<svg xmlns="http://www.w3.org/2000/svg" viewBox="0 0 64 64" width="35" height="35" id="about-us">
  <g>
    <path fill="#c4d3c1" fill-rule="evenodd" d="M32,1A31,31,0,1,0,60.29,44.64,30.69,30.69,0,0,0,63,32,31.06,31.06,0,0,0,32,1Z"></path>
    <path d="M47.58,22.56l-5.43,3.08,2.51,4.54L42,31.58l-.81-6.7-4.32-7.51-.17.93-1.43-2.47L32.61,34,28,24.49h-.86l-1-1.78-.52.31-1-1.78-9,8,1.35,2.34,0,.21,2.82,4.9-8.5,7.07,10,17.3A31,31,0,0,0,60.29,44.64Z" opacity=".1"></path>
    <path fill="#f4ba92" d="M41.79,34.35a9.53,9.53,0,0,1-5.37-3c-1-1.4-.85-4.8-.85-4.8H28.94s.2,3.4-.84,4.8a9.53,9.53,0,0,1-5.37,3s-.45.11.59,1.81c.51.85,4.71,1.27,8.94,1.28s8.43-.43,8.94-1.28C42.24,34.46,41.79,34.35,41.79,34.35Z"></path>
    <path fill="#1498c3" d="M42,33a56.54,56.54,0,0,0-5.36-2v-.38s.24-2.65-1-2.05a5.8,5.8,0,0,1-3.43,1.57,5.8,5.8,0,0,1-3.43-1.57c-1.26-.6-1,2.43-1,2.43s-4.1,1.38-5.14,2A2.65,2.65,0,0,0,20.9,35.4c0,.48,0,1.87.06,3a1.73,1.73,0,0,0,1.74,1.69H41.9a1.73,1.73,0,0,0,1.74-1.69c0-1.18.06-2.55.06-3A2.65,2.65,0,0,0,42,33Z"></path>
    <path fill="#d9dfed" d="M28.83 28.71a.9.9 0 0 0-.52.65c-.14.63-.27.33-.19 2.66a1.88 1.88 0 0 0 .24.25c-.09-2.58 0-2.22.18-2.86a.65.65 0 0 1 .5-.52zM29.89 29.49a.9.9 0 0 0-.39.58c-.15.64-.27.33-.19 2.77l.24.09c-.09-2.52 0-2.18.18-2.81a.64.64 0 0 1 .41-.49zM31.1 30a.93.93 0 0 0-.29.51c-.15.63-.27.33-.2 2.69l.24 0c-.08-2.39 0-2.07.19-2.69a.65.65 0 0 1 .37-.48zM36.05 29.36a.9.9 0 0 0-.52-.65l-.21.18a.63.63 0 0 1 .5.52c.15.63.27.28.18 2.84a2 2 0 0 0 .25-.26C36.32 29.69 36.2 30 36.05 29.36zM34.86 30.07a.86.86 0 0 0-.39-.58l-.25.14a.61.61 0 0 1 .41.49c.15.64.27.29.19 2.83l.24-.1C35.14 30.4 35 30.71 34.86 30.07zM33.56 30.55a.94.94 0 0 0-.3-.51l-.31.08a.62.62 0 0 1 .37.48c.15.62.27.29.19 2.72l.24-.06C33.83 30.88 33.7 31.18 33.56 30.55zM32.18 30.21h-.12v3.25l.24 0h0V30.21z"></path>
    <path fill="#fed299" d="M36.82,21.66a.72.72,0,0,0-.27.09l-.1-1.13L36.07,20A7.34,7.34,0,0,0,36,18.14a3.65,3.65,0,0,0-.72-.58s-.13-.46-1.1-.16-1.8.56-1.8.56L28.7,19.18a12.68,12.68,0,0,1-1,1c-.21.16-.24.28-.4.61a1.39,1.39,0,0,0-.14.78c-1,0-.85.94-.69,1.75s.3,1.51.92,1.51a.43.43,0,0,0,.22-.06c.34,3,1.18,3.63,3.26,4.94a2.44,2.44,0,0,0,2.23,0c1.38-1,3.42-1.35,3.46-4.87a.47.47,0,0,0,.16,0c.62,0,.75-.58.93-1.51S38,21.58,36.82,21.66Z"></path>
    <path fill="#404040" d="M35.49 16.54c-.18-1.95-3-1.92-3-1.92-4.73.2-5.84 3.31-5.79 4.15s.08 2.92.08 2.92c.72.2.7 1.08.68 1.35a.07.07 0 0 0 .08.07h.13a.05.05 0 0 0 .06 0A3.33 3.33 0 0 0 28 21.42a.88.88 0 0 1 .85-.93c4.61 0 3.51-.45 5.31-1.66 1.48-.88 1.54 1.28 1.61 1.9s.66 1.57.45 2.31c0 .05 0 .09.09.09h.18a.08.08 0 0 0 .07-.08 1.75 1.75 0 0 1 .52-1.39C37.94 16.67 35.94 16.49 35.49 16.54zM48.81 34.32c-1-1.8-.83-5.13-.79-5.75h0a1.45 1.45 0 0 1-.1.18h0l0 0v0l0 0h0l-.09.1h0l0 0 0 0h-.19l0 0A12.15 12.15 0 0 1 47 30.72l-.12.31a.69.69 0 0 0 0 .1l-.09.21a.93.93 0 0 0 0 .1 1.74 1.74 0 0 1-.1.19l0 .09c0 .07-.1.06-.14.13l-.05.12c-.21.36-.51.5-.74.78a10.2 10.2 0 0 0 .76 4s3.44 1.19 4.26 1.65a3.29 3.29 0 0 1 1 .79C51.75 37.59 49.83 36.2 48.81 34.32zM39.82 32.29l0 0L39.65 32l0 0c-.06-.09-.11-.19-.17-.29v0c0-.09-.09-.18-.14-.28a.36.36 0 0 0 0-.09c0-.08-.07-.15-.1-.23l0-.1c0-.11-.09-.22-.14-.34a12.08 12.08 0 0 1-.46-1.71l0 0H38.3l0 0h0l0 0 0 0 0 0 0-.05v0l0 0 0 0 0 0v0l0-.05 0 0 0-.06v0a.33.33 0 0 1 0-.06h0l0-.07s.31 3.86-.78 5.85-3.18 3.45-2.8 5.19a2.65 2.65 0 0 1 1.2-1.1c.82-.45 4.24-1.65 4.25-1.65A9 9 0 0 0 40.39 33C40.2 32.8 40 32.56 39.82 32.29z"></path>
    <path fill="#f4ba92" d="M51.46,37.5c-.89-.49-4.62-1.79-4.64-1.79-.86-1.41-1.21-5.53-1.21-5.53h-5s-.35,4.12-1.22,5.53c0,0-3.74,1.3-4.63,1.79a2.29,2.29,0,0,0-1.49,2c0,.69.07,1.55.07,2.15H52.87c0-.75.08-1.46.08-2.15A2.31,2.31,0,0,0,51.46,37.5Z"></path>
    <path fill="#fcc89d" d="M48.46,27.16c-.21-.47-.51-.1-.63.17.08-3.17-1.1-6.5-4.79-6.56h-.11c-3.71.06-4.85,3.37-4.75,6.56-.16-.26-.47-.67-.7-.17a2.15,2.15,0,0,0,.07,1.4c.21.59.63,1,.85.79a12.08,12.08,0,0,0,.46,1.71,6.78,6.78,0,0,0,1.26,2A6.62,6.62,0,0,0,41,34a3.08,3.08,0,0,0,2,.7H43a3.09,3.09,0,0,0,1.9-.69,7.61,7.61,0,0,0,.86-1,6.31,6.31,0,0,0,1.31-2,10.92,10.92,0,0,0,.45-1.69c.23.18.67-.32.88-.92A2,2,0,0,0,48.46,27.16Z"></path>
    <path fill="#404040" d="M43,20.14s-6-.62-5.62,7.26c0,0,.2-.9.76,0a5.74,5.74,0,0,0,2.7-4s1.09,2.85,6.92,4a1.22,1.22,0,0,1,.24-.31c.16-.12.35-.22.49.25C48.52,27.33,49.09,19.89,43,20.14Z"></path>
    <path fill="#ed1653" d="M51.46,37.5c-.89-.49-4.63-1.79-4.64-1.79a8.15,8.15,0,0,1-3.74,4.55,8.21,8.21,0,0,1-3.74-4.55S35.6,37,34.71,37.5a2.29,2.29,0,0,0-1.49,2c0,.46,0,2.17.05,3.46a1.45,1.45,0,0,0,1.45,1.43H51.44A1.45,1.45,0,0,0,52.89,43c0-1.29.06-3,.06-3.46A2.31,2.31,0,0,0,51.46,37.5Z"></path>
    <path fill="#c11f4b" d="M46.82,35.71a8.15,8.15,0,0,1-3.74,4.55,8.21,8.21,0,0,1-3.74-4.55l-1.1.39a8.69,8.69,0,0,0,4.84,5.6h0a8.69,8.69,0,0,0,4.84-5.6Z"></path>
    <polygon fill="#deb17f" points="17.5 32.39 17.5 35.32 21.27 38.67 25.05 35.32 25.05 32.39 17.5 32.39"></polygon>
    <path fill="#3c566f" d="M31.49,38.32a1.68,1.68,0,0,0-1.29-1.63l-4.51-1.22a.85.85,0,0,1-.22-.09l-4.2,2.45-4-2.56a.91.91,0,0,1-.39.2l-4.5,1.22a1.69,1.69,0,0,0-1.3,1.63V43a1.4,1.4,0,0,0,1.4,1.4H30.1A1.4,1.4,0,0,0,31.5,43Z"></path>
    <path fill="#fed299" d="M25.65,22.77H16.82l-.59,3.66.49,4.43a2.43,2.43,0,0,0,.9,1.8L18.93,34c.43.32,1,1,1.5,1h1.68c.55,0,1.08-.64,1.51-1l1.3-1.35a2.43,2.43,0,0,0,.9-1.8l.48-4.29Z"></path>
    <polygon fill="#63bdd0" points="22.06 38.67 20.49 38.67 20.23 44.44 22.32 44.44 22.06 38.67"></polygon>
    <path fill="#51afbb" d="M20.23,37.83v.79a.47.47,0,0,0,.46.47h1.16a.47.47,0,0,0,.47-.47v-.79Z"></path>
    <path fill="#d9dfed" d="M17.44 34.39a.42.42 0 0 0-.63.08l-.57.85 1.8 4a.55.55 0 0 0 .84.19 14.89 14.89 0 0 1 2.39-1.64zM25.73 34.47a.42.42 0 0 0-.63-.08l-3.83 3.44a14.68 14.68 0 0 1 2.4 1.64.54.54 0 0 0 .83-.19l1.8-4z"></path>
    <path fill="#fed299" d="M26.55 27h0a.87.87 0 0 0-.87 1l-.22 2c0 .25 1 .93 2-1.54C27.48 28.41 28 26.88 26.55 27zM16.94 27.94a.87.87 0 0 0-.87-1h0c-1.45-.09-.93 1.44-.93 1.44 1 2.47 2 1.79 2 1.54z"></path>
    <path fill="#404040" d="M24.76,21.92c-.18-1.92-3-1.89-3-1.89-4.65.2-5.75,3.26-5.7,4.09s.08,2.85.08,2.85c.71.19.7,1.09.67,1.35a.08.08,0,0,0,.08.08H17a.06.06,0,0,0,.06,0,3.46,3.46,0,0,0,.28-1.64.85.85,0,0,1,.83-.91c4.54,0,3.46-.45,5.23-1.63C24.9,23.31,25,25.44,25,26.05s.65,1.54.45,2.27c0,.05,0,.09.09.09h.18a.08.08,0,0,0,.07-.08,1.72,1.72,0,0,1,.5-1.36C27.16,22.05,25.2,21.87,24.76,21.92Z"></path>
  </g>
</svg>
