<svg xmlns="http://www.w3.org/2000/svg" xml:space="preserve" enable-background="new 0 0 2000 2000" viewBox="0 0 2000 2000" id="coming-soon" height="50" width= "50">
  <path fill="#ff9b28" d="M425.455 953.25c.348-.794.706-1.552 1.06-2.32-.088-.481-.169-.949-.263-1.441-.804-4.198-2.325-8.399-4.558-12.602-2.237-4.197-4.96-8.131-8.178-11.796-1.788-2.035-3.949-3.871-6.454-5.521 1.698 2.332 3.24 4.748 4.585 7.271 2.233 4.202 3.753 8.404 4.558 12.602.804 4.202 1.382 8.001 1.743 11.395.356 3.397.444 6.167.268 8.312v3.217c-9.652.36-18.365 1.118-26.141 2.279-3.285.492-6.122.975-8.562 1.449-.01.139-.014.283-.025.42-.18 2.145-.448 4.382-.804 6.703-.36 2.325-.628 3.888-.804 4.692-.18.805-.36 1.387-.536 1.743l4.558-1.609c3.037-1.072 8.446-2.187 16.221-3.352 5.119-.764 10.653-1.35 16.585-1.766C420.546 965.893 422.789 959.327 425.455 953.25zM428.263 969.195c.057-.697.083-1.467.085-2.295-.63 1.824-1.228 3.683-1.782 5.586.566-.024 1.125-.052 1.698-.073V969.195zM406.01 1059.28l-2.681-.536c-1.789-.356-4.202-.893-7.239-1.609-1.682-.394-3.438-.819-5.254-1.269-3.958 4.757-8.188 9.034-12.702 12.805-6.527 5.455-12.56 9.384-18.098 11.797-5.542 2.413-10.683 4.248-15.416 5.497-4.738 1.252-8.538 1.877-11.395 1.877l-4.022.268c-7.687 0-14.524-1.026-20.51-3.083-4.268-1.462-7.979-3.25-11.156-5.351 1.886 2.823 4.038 5.275 6.457 7.354 3.842 3.309 8.756 5.991 14.746 8.043 5.986 2.057 12.823 3.083 20.51 3.083l4.022-.268c2.857 0 6.657-.625 11.395-1.877 4.734-1.249 9.874-3.083 15.416-5.496 5.538-2.413 11.571-6.343 18.098-11.797C394.703 1073.268 400.648 1066.787 406.01 1059.28zM334.425 989.035c4.826-10.725 10.766-20.284 17.829-28.688 6.854-8.156 13.835-12.508 20.946-13.084-.219-1.564-.535-2.973-.964-4.201-.628-1.785-1.655-3.259-3.083-4.424-1.433-1.16-3.217-1.65-5.362-1.475-7.331.36-14.524 4.738-21.583 13.138-7.063 8.403-13.004 17.963-17.829 28.688-3.042 6.435-5.497 15.282-7.373 26.543s-1.877 21.851 0 31.771c1.688 8.919 5.441 13.815 11.247 14.715-.473-1.413-.877-2.962-1.2-4.668-1.877-9.92-1.877-20.51 0-31.771C328.928 1004.317 331.383 995.47 334.425 989.035zM463.654 1009.545c.892-4.377 1.784-8.085 2.681-11.126 3.754-13.762 9.786-25.915 18.098-36.463 8.312-10.544 16.489-15.458 24.532-14.746.356.021.704.06 1.046.11-.7-2.267-1.893-4.401-3.585-6.403-1.969-2.321-4.47-3.574-7.507-3.754-8.043-.712-16.22 4.202-24.532 14.746-8.312 10.548-14.344 22.702-18.098 36.463-.896 3.041-1.789 6.749-2.681 11.126-.896 4.382-1.609 9.564-2.145 15.55-.536 5.991-.67 11.529-.402 16.623s1.341 9.564 3.217 13.405c1.877 3.846 4.6 6.125 8.177 6.837.193.034.381.057.572.087-1.08-3.085-1.722-6.512-1.92-10.283-.268-5.094-.134-10.632.402-16.623C462.045 1019.109 462.757 1013.927 463.654 1009.545z"></path>
  <path fill="#ff9b28" d="M439.256 1086.359c3.217 2.505 5.94 4.382 8.177 5.63 2.233 1.252 5.27 2.371 9.116 3.351 3.842.985 6.745 1.609 8.714 1.877 1.965.268 4.734.583 8.312.938.356 0 .712 0 1.072 0 4.646.536 10.23-.176 16.757-2.145 6.523-1.964 13.54-5.362 21.047-10.188 7.507-4.826 14.654-10.767 21.449-17.83 6.791-7.059 12.869-15.995 18.232-26.811 5.362-10.812 9.204-22.563 11.529-35.256 2.321-16.799 2.681-31.143 1.073-43.032-1.609-11.885-5.052-21.625-10.322-29.224-3.854-5.549-8.02-9.991-12.493-13.347.827 1.058 1.646 2.147 2.446 3.3 5.27 7.599 8.714 17.339 10.322 29.224 1.609 11.889 1.248 26.233-1.073 43.032-2.325 12.693-6.167 24.444-11.529 35.257-5.362 10.816-11.441 19.752-18.232 26.811-6.795 7.063-13.942 13.003-21.449 17.829-7.507 4.826-14.524 8.224-21.047 10.188-6.527 1.969-12.111 2.681-16.757 2.145-.36 0-.716 0-1.072 0-3.578-.356-6.347-.67-8.312-.938-1.969-.268-4.872-.893-8.714-1.877-3.846-.98-6.883-2.099-9.116-3.351-1.473-.822-3.161-1.922-5.058-3.29C434.062 1081.547 436.37 1084.116 439.256 1086.359zM689.276 1006.067c-22.882 38.432-36.731 64.171-41.557 77.216l-6.971 1.072c-3.46.555-6.974.675-10.54.371.144 1.189.261 2.197.344 2.973.268 2.505.402 4.382.402 5.63l6.167 1.073c4.646.716 9.204.716 13.673 0l6.971-1.073c3.684-9.959 12.634-27.325 26.84-52.08C685.912 1030.312 687.468 1018.585 689.276 1006.067zM558.237 1080.021c-1.121 2.829-2.263 5.481-3.426 7.946l1.608.269c1.253.18 2.861.402 4.826.67 1.969.268 4.156.628 6.569 1.072 2.413.448 5.094.985 8.043 1.609 2.949.628 5.764 1.299 8.446 2.011 2.681.716 5.404 1.566 8.177 2.547 2.769.984 5.136 1.923 7.105 2.815l2.145-10.188c1.609-6.971 3.842-17.247 6.703-30.833 1.767-8.402 3.459-16.729 5.092-24.997-.578-2.638-1.191-5.328-1.867-8.107-1.701-6.971-3.444-12.689-5.228-17.159-2.505 13.229-5.186 26.635-8.043 40.217-2.861 13.585-5.094 23.862-6.703 30.833l-2.145 10.188c-1.969-.893-4.336-1.831-7.105-2.815-2.773-.98-5.496-1.831-8.177-2.547-2.681-.712-5.496-1.382-8.445-2.011C563.047 1080.956 560.529 1080.452 558.237 1080.021zM740.887 948.424c-3.666 15.55-6.481 30.879-8.446 45.981-1.969 15.106-3.62 29.539-4.96 43.3-1.341 13.766-2.191 24.935-2.547 33.514l-.804 12.601c-6.078-.712-12.781-.624-20.108.268-5.026.615-9.318 1.356-12.913 2.221-.365 4.597-.666 8.995-.902 13.188l6.435-1.877c4.29-1.429 10.096-2.589 17.427-3.485 7.327-.893 14.03-.98 20.108-.269l.804-12.601c.054-1.302.121-2.671.198-4.092-.106-.018-.228-.039-.327-.056l-1.609-.269c.77-1.699 1.53-3.487 2.282-5.359.457-6.798 1.124-14.706 2.003-23.738 1.34-13.762 2.991-28.194 4.96-43.3 1.965-15.103 4.78-30.431 8.446-45.981 3.661-15.55 7.729-28.151 12.199-37.803-4.992-.042-9.631-.247-13.943-.604C746.223 928.068 743.455 937.518 740.887 948.424zM641.82 1005.531c1.073-2.145 2.547-5.048 4.424-8.713.655-1.277 1.531-2.944 2.621-4.983-1.22-7.759-2.716-16.01-4.505-24.785-3.753-18.407-6.615-31.189-8.58-38.34-1.969-7.146-3.578-12.869-4.826-17.159l-1.072.536c-.716.181-1.789.537-3.217 1.073-.683.255-1.429.522-2.232.798.416 1.496.848 3.058 1.302 4.706 1.965 7.151 4.826 19.932 8.58 38.34C638.066 975.415 640.567 991.59 641.82 1005.531zM584.952 943.065c-.51 5.423-1.205 11.639-2.082 18.646.073-.118.15-.253.233-.418.712-1.248 1.249-2.857 1.609-4.826C585.513 950.053 585.589 945.596 584.952 943.065zM581.91 969.139c-.134 1.014-.269 2.029-.406 3.052-.308 3.416-.667 7.465-1.082 12.159-.536 6.079-1.969 16.045-4.29 29.895-1.829 10.898-3.934 19.88-6.315 26.96-.375 1.593-.754 3.187-1.147 4.784 2.269-1.775 4.04-5.605 5.317-11.502 4.29-20.913 7.239-39.768 8.848-56.571C583.522 970.335 583.213 967.418 581.91 969.139zM767.025 1007.944c3.573-21.269 5.806-40.305 6.703-57.107.505-7.406.136-10.29-1.102-8.661-.132 1.451-.277 2.961-.433 4.525-.139 3.037-.297 6.597-.475 10.704-.268 6.167-1.341 16.221-3.218 30.163-1.563 11.609-3.469 21.043-5.713 28.313-.212 1.201-.431 2.403-.654 3.607C764.267 1017.733 765.899 1013.89 767.025 1007.944zM780.155 1095.207c2.589.896 4.868 1.877 6.837 2.949l2.681-12.333c.579-2.476 1.194-5.195 1.843-8.144l-1.704-.294c1.251-2.763 2.483-5.761 3.697-8.98 1.019-4.845 2.108-10.161 3.269-15.961 2.769-13.85 5.584-28.73 8.445-44.641 2.857-15.906 5.496-32.751 7.909-50.539 2.413-17.783 3.976-33.288 4.692-46.517-.36 0-1.341-.042-2.949-.134-1.609-.088-4.114.046-7.507.402-.095.01-.191.025-.286.036-.855 10.775-2.186 22.83-3.996 36.167-2.413 17.788-5.052 34.632-7.909 50.539-2.861 15.911-5.676 30.791-8.445 44.64-2.773 13.854-5.14 24.98-7.105 33.38l-2.681 12.333c-1.969-1.072-4.248-2.053-6.837-2.949-2.593-.892-5.274-1.696-8.043-2.413-2.773-.712-5.542-1.382-8.312-2.011-2.584-.582-5.002-1.083-7.272-1.512-1.047 2.727-2.111 5.285-3.191 7.671l1.609.268c1.073.18 2.593.448 4.558.804 1.969.36 4.156.763 6.568 1.207 2.413.448 5.002.985 7.775 1.609 2.769.628 5.538 1.299 8.312 2.011C774.88 1093.51 777.562 1094.314 780.155 1095.207zM760.619 1027.318c-1.224 6.045-2.577 12.127-4.062 18.248.577-.895 1.205-2.253 1.888-4.108 2.145-6.791 2.949-11.348 2.413-13.673C760.858 1027.451 760.776 1027.3 760.619 1027.318zM844.365 1098.692l3.217-13.674c2.145-9.292 4.96-22.521 8.446-39.68 2.082-10.25 4.017-20.272 5.812-30.076-2.054-10.592-4.255-20.461-6.61-29.571-2.681 15.911-5.764 32.441-9.25 49.6-3.486 17.159-6.301 30.389-8.446 39.681l-3.217 13.674c-4.29-2.145-10.146-4.156-17.561-6.033-5.023-1.271-9.561-2.268-13.641-3.006-1.071 2.784-2.157 5.394-3.258 7.824l7.775 1.341c5.362.716 11.751 2.011 19.17 3.888C834.218 1094.537 840.075 1096.548 844.365 1098.692zM829.224 956.467c.176.36.444.092.804-.805.712-1.248 1.248-2.857 1.608-4.826.892-7.147.892-11.797 0-13.942-.36-.712-.716-.536-1.072.536.176 6.615-.18 11.977-1.072 16.087C829.132 955.307 829.044 956.291 829.224 956.467zM938.229 978.414c.126-.703.249-1.414.377-2.114 1.877-10.276 4.243-20.418 7.105-30.431 2.857-10.008 5.898-18.587 9.116-25.739-4.963-.041-9.582-.245-13.883-.598-1.823 4.932-3.584 10.353-5.279 16.29-2.861 10.012-5.228 20.154-7.105 30.43-1.877 10.281-3.62 20.825-5.228 31.637-1.609 10.817-2.861 20.913-3.754 30.297-.896 9.384-1.655 17.787-2.279 25.202-.628 7.419-1.031 13.271-1.207 17.562l-.268 6.435c-5.187 3.753-11.441 6.079-18.768 6.971-6.303.771-11.672.875-16.122.32.328 2.766.652 5.554.966 8.386l6.971 1.341c4.826.896 10.9.896 18.231 0 7.327-.893 13.581-3.217 18.768-6.971l.268-6.435c.176-4.29.578-10.142 1.207-17.561.624-7.415 1.382-15.819 2.279-25.203.892-9.384 2.145-19.48 3.754-30.296 1.19-7.999 2.455-15.849 3.791-23.556C937.484 982.364 937.839 980.376 938.229 978.414zM828.688 963.706c-.36 3.934-.804 8.982-1.34 15.148s-1.969 16.133-4.29 29.895c-2.325 13.766-5.094 24.49-8.312 32.173 2.681-1.428 4.734-5.45 6.167-12.065 4.29-20.913 7.239-39.768 8.848-56.571C830.472 964.422 830.116 961.561 828.688 963.706zM881.23 925.627c-1.877-5.27-3.13-8.756-3.754-10.457-.628-1.697-1.119-2.991-1.475-3.888h-6.352c.456 1.274.962 2.693 1.534 4.297 1.876 5.274 3.619 10.59 5.228 15.953s3.259 11.889 4.96 19.572c1.697 7.687 3.083 15.106 4.156 22.253 1.25-7.085 2.52-14.131 3.801-21.156-.972-3.935-1.928-7.484-2.87-10.623C884.849 936.217 883.106 930.901 881.23 925.627zM1036.066 1084.482c2.321-1.428 4.646-3.125 6.971-5.094 3.573-2.857 6.971-5.898 10.188-9.116 3.217-3.217 6.745-7.415 10.59-12.601 3.842-5.182 7.281-10.59 10.322-16.221 3.037-5.63 5.672-12.333 7.909-20.108 2.233-7.775 3.619-15.772 4.156-23.996-3.016-.25-6.71-.457-11.052-.62-.732 4.94-1.781 9.797-3.151 14.569-2.237 7.775-4.872 14.478-7.909 20.108-3.042 5.63-6.481 11.039-10.322 16.221-3.846 5.186-7.373 9.384-10.591 12.601s-6.615 6.259-10.188 9.116c-2.325 1.969-4.65 3.666-6.971 5.094l-4.021 2.681c-5.723 3.397-11.663 6.032-17.829 7.909s-10.858 2.907-14.076 3.083h-4.826c-7.688 0-14.478-1.026-20.376-3.083-4.195-1.46-7.86-3.244-11.015-5.339 1.885 2.818 4.033 5.266 6.449 7.342 3.842 3.309 8.713 5.991 14.612 8.043 5.898 2.057 12.689 3.083 20.376 3.083h4.826c3.217-.176 7.909-1.207 14.076-3.083 6.167-1.877 12.107-4.512 17.829-7.91L1036.066 1084.482zM1039.305 965.503c-.009.111-.012.23-.021.34-.18 2.057-.448 4.248-.804 6.569-.36 2.325-.628 3.888-.804 4.692-.18.804-.36 1.475-.536 2.011l4.558-1.608c3.037-1.073 8.399-2.233 16.087-3.485 7.683-1.249 16.355-1.965 26.007-2.145l.268-3.217c0-2.145-.18-4.96-.536-8.445-.36-3.486-.938-7.327-1.743-11.529-.804-4.198-2.325-8.446-4.558-12.735-2.237-4.29-4.918-8.219-8.043-11.797-1.784-2.037-3.973-3.893-6.54-5.582 1.666 2.32 3.192 4.753 4.536 7.332 2.233 4.29 3.753 8.538 4.558 12.735.804 4.202 1.382 8.043 1.743 11.529.356 3.485.536 6.301.536 8.445l-.268 3.217c-9.652.18-18.324.896-26.007 2.145C1044.508 964.5 1041.714 965.009 1039.305 965.503zM1006.038 1037.027c2.381-.699 5.431-1.428 9.132-2.184 2.186-3.057 3.84-5.771 4.952-8.131l1.877-4.29c-3.934.18-8.492.763-13.674 1.743-2.476.47-4.699.929-6.684 1.378.069 1.859.108 3.849.108 5.988 0 2.413-.092 4.692-.268 6.837L1006.038 1037.027zM998.136 949.63c-6.971 8.492-12.869 18.097-17.695 28.822-3.041 6.615-5.454 15.55-7.239 26.811-1.789 11.261-1.743 21.851.134 31.771 1.709 9.034 5.461 13.94 11.249 14.748-.473-1.421-.877-2.981-1.202-4.701-1.877-9.92-1.923-20.51-.134-31.771 1.785-11.261 4.198-20.196 7.239-26.811 4.826-10.725 10.725-20.331 17.695-28.822 6.766-8.237 13.698-12.635 20.802-13.217-.219-1.58-.531-2.991-.954-4.203-.628-1.785-1.655-3.259-3.083-4.424-1.433-1.161-3.218-1.651-5.362-1.475C1012.254 936.719 1005.107 941.143 998.136 949.63zM1297.221 959.765c-1.824 4.267-3.413 8.781-4.772 13.537.864-.077 1.741-.153 2.627-.229.803-2.947 1.692-5.804 2.676-8.558-.105-1.193-.241-2.48-.409-3.865C1297.307 960.363 1297.259 960.058 1297.221 959.765zM1201.571 971.383c1.341.896 2.681 1.567 4.021 2.011 1.341.448 2.547.763 3.62.938l1.609.268c.794.073 1.7.183 2.67.313.046-1.023.246-2.157.603-3.404 1.965-6.254 6.208-11.751 12.735-16.489 3.993-2.897 7.935-4.9 11.828-6.025-.342-7.413-2.916-11.126-7.728-11.126-6.259 0-12.647 2.371-19.17 7.105-6.527 4.738-10.77 10.234-12.735 16.489-.716 2.505-.804 4.558-.268 6.167C1199.292 969.238 1200.23 970.491 1201.571 971.383zM1280.585 923.383c-3.379-3.458-7.924-6.272-13.612-8.46 2.951 3.235 5.564 6.717 7.792 10.479 2.589 4.382 4.378 8.76 5.362 13.137.98 4.382 1.697 8.404 2.145 12.065.444 3.666.67 6.661.67 8.982l-.268 3.217c-11.548.924-21.266 2.041-29.184 3.346-.39 4.059-1.189 8.794-2.397 14.208 6.905-2.537 18.054-4.627 33.411-6.275 1.885-7.411 4.222-14.298 7.014-20.663 1.036-2.363 2.104-4.598 3.198-6.73-1.041-3.746-2.666-7.492-4.881-11.241C1287.242 931.071 1284.159 927.049 1280.585 923.383zM1176.369 998.864c-.272-.094-.527-.193-.793-.289.978 1.239 2.061 2.407 3.261 3.498 2.949 2.681 7.146 4.96 12.601 6.837 5.45 1.877 11.931 2.908 19.438 3.083h3.754c2.501-.176 5.404 0 8.714.536.67.109 1.337.246 2.004.387-.129-.41-.279-.805-.451-1.184-1.341-2.949-3.62-5.094-6.837-6.435-3.217-1.34-6.481-2.279-9.786-2.815-3.309-.536-6.213-.712-8.714-.536h-3.753C1188.299 1001.771 1181.819 1000.741 1176.369 998.864zM1205.246 1098.594c10.188 0 18.99-.846 26.409-2.547 7.415-1.697 13.628-3.976 18.634-6.837 5.002-2.857 9.425-7.059 13.271-12.601 3.842-5.538 6.971-11.214 9.384-17.025 1.927-4.638 4.056-10.467 6.383-17.446-.16-1.219-.302-2.457-.411-3.727-.536-6.254-.628-13.674-.268-22.253.059-1.414.141-2.857.234-4.315-2.86-5.233-6.487-9.348-10.899-12.315-2.853-1.917-6.056-3.694-9.584-5.341 2.688 2.889 4.972 6.368 6.847 10.443 3.037 6.614 3.305 13.941.804 21.985-3.042 9.476-5.765 17.117-8.177 22.923-2.413 5.811-5.543 11.487-9.384 17.025-3.846 5.542-8.269 9.744-13.271 12.601-5.006 2.861-11.219 5.14-18.634 6.837-7.419 1.701-16.221 2.547-26.409 2.547-6.616 0-12.622-1.036-18.018-3.103C1180.604 1094.202 1191.629 1098.594 1205.246 1098.594zM1197.203 1024.327c-4.805 1.972-9.632 3.553-14.479 4.759.396 3.307.821 6.558 1.285 9.726.536 3.666 1.65 6.837 3.351 9.519 1.697 2.681 3.619 4.113 5.764 4.29 2.578.104 4.834.1 6.789-.006-.345-1.195-.641-2.432-.834-3.755-.536-3.661-1.031-7.415-1.475-11.261-.448-3.841-.582-6.971-.402-9.384C1197.379 1025.802 1197.379 1024.507 1197.203 1024.327zM1431.069 994.708c-.268 2.681-.314 5.094-.134 7.239 0 2.325.176 3.485.536 3.485.893 0 1.429-1.877 1.609-5.63v-13.942c-.36 0-.716.804-1.072 2.413C1431.647 989.883 1431.337 992.027 1431.069 994.708zM1436.798 978.985c.002-3.021-.085-5.931-.269-8.721-.556 1.771-1.085 3.568-1.573 5.409l.804 4.021C1436.105 980.213 1436.45 979.972 1436.798 978.985zM1334.74 1009.715c.892-4.377 1.784-8.085 2.681-11.126 3.754-13.761 9.786-25.914 18.098-36.463 6.946-8.812 13.799-13.677 20.558-14.626-.7-2.271-1.894-4.408-3.588-6.413-1.969-2.321-4.47-3.574-7.507-3.753-8.043-.712-16.22 4.202-24.532 14.746-8.312 10.549-14.344 22.702-18.098 36.463-.896 3.042-1.789 6.749-2.681 11.126-.896 4.382-1.609 9.564-2.145 15.551-.536 5.99-.67 11.528-.402 16.623s1.341 9.564 3.217 13.406c1.877 3.846 4.6 6.125 8.177 6.837 2.013.351 3.928.516 5.748.501-1.171-3.192-1.865-6.755-2.073-10.697-.268-5.094-.134-10.632.402-16.623C1333.131 1019.279 1333.844 1014.097 1334.74 1009.715z"></path>
  <path fill="#ff9b28" d="M1307.35 1083.871c.919.93 1.912 1.819 2.992 2.658 3.217 2.505 5.94 4.382 8.177 5.63 2.233 1.253 5.27 2.371 9.116 3.352 3.842.984 6.745 1.608 8.714 1.877 1.965.268 4.734.582 8.312.938.356 0 .712 0 1.072 0 4.646.536 10.23-.176 16.757-2.145 6.523-1.965 13.54-5.362 21.047-10.188s14.654-10.766 21.449-17.829c6.518-6.776 12.373-15.3 17.575-25.538-.189-1.373-.35-2.775-.473-4.215-.536-6.254-.628-13.674-.268-22.253.356-8.579 1.341-17.963 2.949-28.151 2.072-12.432 5.238-23.6 9.479-33.53-1.895-8.076-4.812-14.955-8.752-20.636-5.274-7.595-11.126-13.138-17.561-16.623-1.594-.863-3.211-1.619-4.849-2.268 2.558 2.555 5.009 5.487 7.34 8.845 5.27 7.599 8.713 17.339 10.322 29.224 1.608 11.889 1.248 26.233-1.073 43.032-2.325 12.693-6.167 24.444-11.529 35.256-5.362 10.816-11.441 19.752-18.231 26.811-6.795 7.063-13.942 13.003-21.449 17.83-7.507 4.826-14.524 8.224-21.047 10.188-6.527 1.969-12.111 2.681-16.757 2.145-.36 0-.716 0-1.072 0-3.578-.356-6.347-.67-8.312-.938-1.969-.268-4.872-.892-8.714-1.877C1310.62 1084.968 1308.883 1084.437 1307.35 1083.871zM1477.91 1009.715c.892-4.377 1.784-8.085 2.681-11.126 3.754-13.761 9.786-25.914 18.098-36.463 6.946-8.812 13.799-13.677 20.558-14.626-.7-2.271-1.894-4.408-3.588-6.413-1.969-2.321-4.47-3.574-7.507-3.753-8.043-.712-16.22 4.202-24.532 14.746-8.312 10.549-14.344 22.702-18.098 36.463-.896 3.042-1.789 6.749-2.681 11.126-.897 4.382-1.609 9.564-2.145 15.551-.536 5.99-.67 11.528-.402 16.623s1.341 9.564 3.217 13.406c1.877 3.846 4.6 6.125 8.177 6.837 2.013.351 3.928.516 5.748.501-1.171-3.192-1.866-6.755-2.073-10.697-.268-5.094-.134-10.632.402-16.623C1476.302 1019.279 1477.014 1014.097 1477.91 1009.715z"></path>
  <path fill="#ff9b28" d="M1548.156 1068.164c5.458-5.674 10.448-12.582 14.984-20.683.577-2.074 1.15-4.198 1.717-6.389 3.842-14.834 6.925-29.446 9.25-43.836 1.88-11.654 3.525-22.894 4.939-33.729-.02-.153-.037-.311-.057-.462-1.609-11.885-5.052-21.625-10.322-29.224-5.274-7.595-11.127-13.138-17.561-16.623-1.594-.863-3.211-1.619-4.849-2.268 2.558 2.555 5.009 5.487 7.34 8.845 5.27 7.599 8.714 17.339 10.323 29.224 1.608 11.889 1.248 26.233-1.073 43.032-2.325 12.693-6.167 24.444-11.529 35.256-5.362 10.816-11.441 19.752-18.232 26.811-6.795 7.063-13.942 13.003-21.449 17.83-7.507 4.826-14.524 8.224-21.047 10.188-6.527 1.969-12.111 2.681-16.757 2.145-.36 0-.716 0-1.073 0-3.578-.356-6.347-.67-8.312-.938-1.969-.268-4.872-.892-8.714-1.877-1.945-.496-3.682-1.027-5.215-1.593.919.93 1.912 1.819 2.991 2.658 3.217 2.505 5.94 4.382 8.177 5.63 2.233 1.253 5.27 2.371 9.116 3.352 3.842.984 6.745 1.608 8.714 1.877 1.965.268 4.734.582 8.312.938.356 0 .712 0 1.072 0 4.646.536 10.23-.176 16.757-2.145 6.523-1.965 13.54-5.362 21.047-10.188S1541.361 1075.227 1548.156 1068.164zM1698.51 935.992c-2.861 10.012-5.228 20.154-7.105 30.431-1.877 10.28-3.62 20.825-5.228 31.637-1.609 10.816-2.861 20.913-3.753 30.296-.897 9.384-1.655 17.788-2.279 25.203-.628 7.419-1.031 13.271-1.207 17.561l-.268 6.435c-5.186 3.754-11.441 6.079-18.768 6.971-4.08.499-7.756.709-11.058.653.314 2.656.624 5.335.926 8.053l6.971 1.34c4.826.896 10.9.896 18.232 0 7.327-.892 13.581-3.217 18.768-6.971l.268-6.435c.176-4.29.578-10.142 1.207-17.561.624-7.415 1.382-15.818 2.279-25.202.892-9.384 2.145-19.48 3.753-30.297 1.609-10.812 3.352-21.356 5.229-31.637 1.876-10.276 4.243-20.418 7.104-30.431 2.857-10.008 5.898-18.588 9.116-25.739-6.885-.057-13.122-.419-18.733-1.076C1702.078 924.28 1700.259 929.866 1698.51 935.992zM1644.217 951.274c1.697 7.688 3.083 15.106 4.156 22.253 1.906-10.799 3.851-21.517 5.829-32.177-1.575-5.227-3.273-10.412-5.103-15.555-1.877-5.27-3.129-8.755-3.753-10.456-.628-1.697-1.119-2.991-1.475-3.888h-7.239c-1.265 0-2.625.065-4.069.188.438 1.226.923 2.583 1.466 4.109 1.876 5.274 3.619 10.59 5.228 15.953C1640.866 937.065 1642.517 943.591 1644.217 951.274zM1594.673 1092.83c7.415 1.877 13.271 3.888 17.561 6.033l3.217-13.674c2.145-9.292 4.96-22.521 8.446-39.68 1.133-5.579 2.219-11.085 3.268-16.531-2.729-15.852-5.758-30.23-9.088-43.116-2.681 15.911-5.764 32.441-9.25 49.601-3.486 17.159-6.301 30.389-8.446 39.681l-3.217 13.673c-4.29-2.145-10.146-4.156-17.561-6.032-3.185-.806-6.169-1.498-8.975-2.089-.955 2.44-1.922 4.747-2.9 6.908l7.775 1.34C1580.865 1089.658 1587.253 1090.953 1594.673 1092.83z"></path>
  <path fill="#ffe300" d="M372.638 963.17c-.36 2.325-.628 3.888-.804 4.692-.18.804-.36 1.387-.536 1.743l4.558-1.608c1.754-.62 4.324-1.253 7.659-1.902 2.44-.475 5.276-.957 8.562-1.449 7.775-1.161 16.489-1.919 26.141-2.279v-3.217c.176-2.145.088-4.914-.268-8.312-.36-3.394-.938-7.193-1.743-11.395-.804-4.198-2.325-8.4-4.558-12.602-1.345-2.523-2.887-4.939-4.585-7.271-1.126-1.547-2.309-3.064-3.592-4.526-3.217-3.661-7.599-6.703-13.137-9.116-5.542-2.413-11.889-3.888-19.036-4.424-12.693-.712-24.398 1.031-35.123 5.228-10.724 4.202-19.84 10.28-27.347 18.231-7.507 7.956-13.674 17.293-18.5 28.018-4.826 10.724-8.135 22.345-9.92 34.854-1.072 7.868-1.876 14.973-2.413 21.315-.536 6.347-.762 13.096-.67 20.242.088 7.151.67 13.452 1.743 18.902 1.072 5.455 2.857 10.771 5.362 15.953 2.501 5.187 5.672 9.43 9.518 12.735 1.104.952 2.308 1.845 3.59 2.692 3.177 2.101 6.888 3.889 11.156 5.351 5.986 2.057 12.823 3.083 20.51 3.083l4.022-.268c2.857 0 6.657-.625 11.395-1.877 4.734-1.249 9.874-3.083 15.416-5.497 5.538-2.413 11.571-6.342 18.098-11.797 4.513-3.771 8.743-8.048 12.702-12.805 1.762-2.117 3.476-4.32 5.127-6.633l-2.681-.536c-1.789-.356-4.202-.892-7.239-1.608-3.041-.712-6.301-1.517-9.786-2.413-3.485-.893-7.105-2.053-10.858-3.485-3.753-1.429-6.971-2.949-9.652-4.558l-.268.804c-.18.536-.495 1.299-.938 2.279-.448.984-1.031 2.011-1.743 3.083-.717 1.072-1.743 2.145-3.083 3.217-1.34 1.073-2.861 2.057-4.558 2.949-1.701.896-3.846 1.655-6.435 2.279-2.593.629-5.408.938-8.446.938-.703 0-1.373-.064-2.025-.165-5.806-.9-9.559-5.795-11.247-14.715-1.877-9.92-1.877-20.511 0-31.771s4.332-20.108 7.373-26.543c4.826-10.724 10.766-20.284 17.829-28.688 7.059-8.399 14.251-12.777 21.583-13.138 2.145-.176 3.93.314 5.362 1.475 1.429 1.165 2.455 2.639 3.083 4.424.429 1.229.745 2.637.964 4.201.1.714.186 1.45.243 2.233.176 2.505.176 4.826 0 6.971C373.262 958.612 372.994 960.849 372.638 963.17zM288.183 999.633c0 3.754-.448 5.63-1.341 5.63-.36 0-.628-1.16-.804-3.485 0-2.145.134-4.558.402-7.239.268-2.681.578-4.826.938-6.435.356-1.608.625-2.413.805-2.413V999.633zM292.473 977.38c-.18.536-.268.984-.268 1.34-.36 1.073-.716 1.341-1.072.804l-.805-4.021c2.321-8.755 5.362-16.711 9.116-23.862 3.754-7.147 7.641-12.958 11.663-17.427 4.022-4.466 8.488-8.399 13.406-11.797 4.914-3.393 9.204-5.898 12.869-7.507 3.661-1.609 7.415-2.903 11.261-3.888 3.842-.98 6.435-1.562 7.775-1.743 1.341-.176 2.367-.268 3.083-.268C323.573 917.235 301.228 940.024 292.473 977.38zM416.339 1055.132c1.785 5.006 3.573 9.162 5.362 12.467 1.785 3.31 4.29 6.212 7.507 8.713 1.099.856 2.135 1.632 3.119 2.341 1.897 1.367 3.585 2.467 5.058 3.29 2.233 1.252 5.27 2.371 9.116 3.351 3.842.984 6.745 1.609 8.714 1.877 1.965.268 4.734.582 8.312.938.356 0 .712 0 1.072 0 4.646.537 10.23-.176 16.757-2.145 6.523-1.965 13.54-5.362 21.047-10.188 7.507-4.826 14.654-10.766 21.449-17.829 6.791-7.059 12.869-15.995 18.232-26.811 5.362-10.812 9.204-22.563 11.529-35.257 2.321-16.799 2.681-31.143 1.073-43.032-1.609-11.885-5.052-21.625-10.322-29.224-.801-1.153-1.619-2.242-2.446-3.3-4.623-5.914-9.657-10.366-15.115-13.323-6.435-3.485-13.23-5.228-20.376-5.228l-4.021-.268c-2.862-.356-6.615-.176-11.261.536-4.65.716-9.832 1.835-15.551 3.352-5.722 1.521-11.621 4.382-17.695 8.58-6.078 4.202-11.889 9.25-17.427 15.148-5.11 5.439-9.759 12.725-13.954 21.81-.355.769-.712 1.526-1.06 2.32-2.666 6.077-4.909 12.643-6.747 19.675-1.244 4.756-2.307 9.719-3.173 14.911-1.609 10.188-2.593 19.572-2.949 28.152-.36 8.58-.268 15.999.268 22.253C413.39 1044.5 414.551 1050.13 416.339 1055.132zM498.917 937.163c3.037.18 5.539 1.433 7.507 3.754 1.692 2.002 2.885 4.137 3.585 6.403.113.365.216.732.303 1.104.624 2.681.98 5.764 1.072 9.25.088 3.485.042 5.944-.134 7.373-.18 1.433-.36 2.505-.536 3.217-2.325 14.658-5.006 27.305-8.043 37.938-3.042 10.637-6.033 19.036-8.982 25.203s-6.213 10.904-9.786 14.21c-3.578 3.31-7.017 5.362-10.322 6.167-3.154.766-6.674.836-10.554.221-.191-.03-.379-.054-.572-.087-3.578-.712-6.301-2.991-8.177-6.837-1.877-3.841-2.949-8.311-3.217-13.405s-.134-10.632.402-16.623c.536-5.986 1.248-11.168 2.145-15.55.892-4.378 1.784-8.085 2.681-11.126 3.754-13.762 9.786-25.915 18.098-36.463C482.697 941.365 490.875 936.451 498.917 937.163zM426.566 972.485c.555-1.903 1.152-3.762 1.782-5.586 1.877-5.435 4.081-10.526 6.625-15.258 3.842-7.147 7.775-12.958 11.797-17.427 4.022-4.466 8.446-8.399 13.272-11.797 4.826-3.393 9.116-5.898 12.869-7.507 3.754-1.609 7.549-2.903 11.395-3.888 3.842-.98 6.388-1.562 7.641-1.743 1.249-.176 2.233-.268 2.949-.268-35.927 8.223-58.272 31.013-67.028 68.368 0 .536-.092.984-.268 1.34-.36 1.073-.716 1.341-1.072.804l-.805-4.021C425.993 974.485 426.275 973.481 426.566 972.485zM421.836 994.539c.268-2.681.578-4.826.938-6.435.356-1.608.712-2.413 1.072-2.413v13.941c-.18 3.754-.717 5.63-1.609 5.63-.36 0-.536-1.16-.536-3.485C421.522 999.633 421.568 997.22 421.836 994.539zM680.16 1089.45l6.435-1.877c1.349-.449 2.865-.869 4.514-1.265 3.595-.864 7.887-1.606 12.913-2.221 7.327-.892 14.03-.98 20.108-.268l.804-12.601c.356-8.58 1.207-19.748 2.547-33.514 1.34-13.761 2.991-28.193 4.96-43.3 1.965-15.102 4.78-30.431 8.446-45.981 2.568-10.906 5.336-20.355 8.302-28.36 1.263-3.409 2.562-6.561 3.896-9.443-21.273-.176-36.375-3.217-45.311-9.116-5.006 4.826-10.771 11.797-17.293 20.913-6.527 9.116-12.333 17.922-17.427 26.409-5.094 8.491-10.368 17.695-15.818 27.615-3.552 6.46-6.339 11.586-8.372 15.393-1.089 2.039-1.966 3.707-2.621 4.983-1.876 3.666-3.351 6.569-4.424 8.713-1.252-13.941-3.753-30.116-7.507-48.528-3.754-18.408-6.615-31.189-8.58-38.34-.454-1.647-.886-3.21-1.302-4.706-1.387-4.994-2.564-9.152-3.524-12.454l-1.073.536c-.716.18-1.789.536-3.217 1.073-1.433.536-3.129 1.118-5.094 1.743-1.969.628-4.29 1.252-6.971 1.876-2.681.628-5.408 1.299-8.177 2.011-2.773.717-5.898 1.387-9.384 2.011-3.485.628-6.929 1.118-10.322 1.475l-1.072 12.333c-.537 8.043-1.655 18.592-3.352 31.637-1.701 13.049-3.666 26.811-5.898 41.289-2.237 14.478-5.274 29.136-9.116 43.97-3.842 14.838-7.998 26.992-12.467 36.463l1.608.268c1.253.18 2.861.402 4.826.67 1.969.268 4.156.628 6.569 1.072.152.028.315.06.47.089 2.292.43 4.811.935 7.574 1.52 2.949.628 5.764 1.299 8.445 2.011 2.681.716 5.404 1.567 8.177 2.547 2.769.984 5.136 1.923 7.105 2.815l2.145-10.188c1.609-6.971 3.842-17.247 6.703-30.833 2.857-13.582 5.538-26.987 8.043-40.217 1.785 4.47 3.527 10.188 5.228 17.159.677 2.78 1.29 5.469 1.867 8.107.871 3.977 1.644 7.812 2.288 11.464 1.072 6.079 2.053 12.514 2.949 19.304.892 6.795 1.475 11.441 1.743 13.942.268 2.505.402 4.382.402 5.63l6.167 1.072c1.049.162 2.094.282 3.134.371 3.566.304 7.079.184 10.54-.371l6.971-1.072c4.826-13.045 18.676-38.784 41.557-77.216-1.807 12.518-3.364 24.245-4.67 35.183C682.423 1059.521 680.941 1075.588 680.16 1089.45zM582.835 977.916c-1.608 16.803-4.558 35.659-8.848 56.571-1.277 5.897-3.049 9.728-5.317 11.502-.276.216-.558.408-.849.562.686-1.639 1.351-3.427 1.997-5.347 2.381-7.081 4.486-16.062 6.315-26.96 2.321-13.85 3.753-23.816 4.29-29.895.415-4.694.773-8.743 1.082-12.159.091-1.005.177-1.961.259-2.855.051-.077.098-.133.147-.197C583.213 967.418 583.522 970.335 582.835 977.916zM584.712 956.467c-.36 1.969-.896 3.578-1.609 4.826-.083.165-.16.3-.233.418-.245.392-.436.525-.571.387-.18-.176-.092-1.161.268-2.949.892-4.11 1.249-9.472 1.072-16.087.356-1.072.712-1.34 1.073-.804.091.238.167.519.24.808C585.589 945.596 585.513 950.053 584.712 956.467zM735.178 1077.173c1.049.178 2.447.425 4.231.749 1.969.36 4.156.762 6.569 1.207.165.031.336.065.503.096 2.271.429 4.688.931 7.272 1.512 2.769.629 5.538 1.299 8.312 2.011 2.769.716 5.45 1.521 8.043 2.413 2.589.896 4.868 1.877 6.837 2.949l2.681-12.333c1.965-8.399 4.332-19.526 7.105-33.38 2.769-13.85 5.584-28.729 8.445-44.64 2.857-15.907 5.496-32.751 7.909-50.539 1.81-13.337 3.141-25.392 3.996-36.167.285-3.592.517-7.042.696-10.35-.36 0-1.341-.042-2.949-.134-1.609-.088-4.114.046-7.507.402-3.397.36-6.837.85-10.322 1.475-3.485.628-7.331 1.701-11.529 3.217-4.202 1.521-7.909 3.443-11.126 5.764l-1.073 12.065c-.536 8.043-1.609 18.634-3.217 31.771-1.609 13.137-3.531 26.903-5.765 41.289-2.237 14.39-5.228 29.002-8.981 43.836-3.081 12.177-6.342 22.542-9.783 31.104-.752 1.872-1.512 3.66-2.282 5.359l1.609.269C734.95 1077.134 735.072 1077.155 735.178 1077.173zM762.786 1015.881c2.243-7.271 4.15-16.705 5.713-28.313 1.877-13.942 2.949-23.996 3.218-30.163.178-4.107.336-7.667.475-10.704.07-1.522.135-2.923.195-4.176.083-.135.162-.249.238-.349 1.238-1.629 1.607 1.254 1.102 8.661-.896 16.803-3.129 35.839-6.703 57.107-1.126 5.945-2.758 9.789-4.892 11.544-.24.198-.485.376-.739.521C761.873 1018.724 762.336 1017.342 762.786 1015.881zM755.764 1043.871c1.609-3.929 2.949-9.204 4.022-15.818.378-.474.655-.714.833-.735.157-.018.24.133.24.467.536 2.325-.268 6.883-2.413 13.673-.684 1.855-1.312 3.213-1.888 4.108-.479.745-.924 1.175-1.329 1.254C754.867 1046.82 755.048 1045.84 755.764 1043.871zM797.587 1078.726c1.732.231 3.583.53 5.53.882 4.079.738 8.618 1.735 13.641 3.006 7.415 1.877 13.271 3.888 17.561 6.033l3.217-13.674c2.145-9.292 4.96-22.521 8.446-39.681 3.485-17.159 6.568-33.689 9.25-49.6 2.354 9.11 4.555 18.979 6.61 29.571 3.87 19.958 7.211 42.531 10.013 67.753l6.971 1.34c.677.125 1.384.229 2.109.32 4.45.555 9.819.451 16.122-.32 7.327-.892 13.581-3.217 18.768-6.971l.268-6.435c.176-4.29.578-10.142 1.207-17.562.624-7.415 1.382-15.818 2.279-25.202.892-9.384 2.145-19.48 3.754-30.297 1.609-10.812 3.351-21.356 5.228-31.637 1.877-10.276 4.244-20.418 7.105-30.43 1.695-5.937 3.456-11.358 5.279-16.29 1.25-3.382 2.528-6.54 3.837-9.449-21.273-.176-36.463-3.217-45.579-9.116l-1.876 9.116c-1.253 6.079-2.996 15.106-5.228 27.079-.933 4.995-1.852 10.014-2.768 15.039-1.281 7.025-2.55 14.071-3.801 21.156-1.072-7.147-2.459-14.566-4.156-22.253-1.701-7.683-3.351-14.21-4.96-19.572s-3.352-10.678-5.228-15.953c-.572-1.604-1.078-3.023-1.534-4.297-1.041-2.909-1.786-4.976-2.22-6.159-.628-1.697-1.119-2.991-1.475-3.888h-7.239c-4.826 0-10.951.896-18.365 2.681-7.419 1.789-13.72 4.47-18.902 8.043l-.804 12.064c-.716 8.043-1.877 18.634-3.485 31.771-1.609 13.137-3.578 26.903-5.898 41.289-2.325 14.39-5.408 29.002-9.25 43.836-2.721 10.51-5.556 19.666-8.502 27.483-1.214 3.219-2.445 6.217-3.697 8.98l1.704.294L797.587 1078.726zM829.492 953.518c.892-4.11 1.248-9.472 1.072-16.087.356-1.072.712-1.249 1.072-.536.892 2.145.892 6.795 0 13.942-.36 1.969-.896 3.578-1.608 4.826-.36.896-.628 1.165-.804.805C829.044 956.291 829.132 955.307 829.492 953.518zM823.057 1008.749c2.321-13.762 3.754-23.728 4.29-29.895s.98-11.215 1.34-15.148c1.428-2.145 1.785.716 1.073 8.58-1.609 16.803-4.558 35.659-8.848 56.571-1.433 6.615-3.486 10.637-6.167 12.065C817.963 1033.239 820.732 1022.515 823.057 1008.749zM935.398 1048.161c1.072 5.542 2.857 10.905 5.362 16.086 2.501 5.187 5.672 9.43 9.518 12.735 1.11.956 2.316 1.854 3.597 2.705 3.155 2.095 6.82 3.879 11.015 5.339 5.898 2.057 12.689 3.083 20.376 3.083h4.826c3.218-.176 7.909-1.206 14.076-3.083s12.107-4.512 17.829-7.909l4.021-2.681c2.321-1.429 4.646-3.125 6.971-5.094 3.573-2.857 6.971-5.898 10.188-9.116s6.745-7.415 10.591-12.601c3.841-5.182 7.281-10.591 10.322-16.221 3.037-5.63 5.672-12.333 7.909-20.108 1.37-4.772 2.419-9.629 3.151-14.569.46-3.109.798-6.25 1.005-9.427-4.29-.356-9.92-.624-16.891-.804-6.971-.176-18.231.448-33.782 1.877-15.551 1.433-27.708 3.846-36.463 7.239v1.072c.176.536.402 1.387.67 2.547.268 1.165.49 2.505.67 4.021.176 1.521.402 3.31.67 5.362.268 2.057.444 4.114.537 6.167.088 2.057.134 4.29.134 6.703 0 2.413-.092 4.692-.268 6.837l4.558-1.34c1.587-.466 3.475-.946 5.649-1.438 1.985-.449 4.208-.908 6.684-1.378 5.182-.98 9.74-1.562 13.674-1.743l-1.877 4.29c-1.112 2.36-2.766 5.074-4.952 8.131-.631.881-1.299 1.788-2.019 2.728-3.217 4.202-6.795 7.553-10.724 10.054-1.073.536-2.057 1.072-2.949 1.608-.18 0-.448.092-.805.269-3.933 1.608-8.043 2.413-12.333 2.413-.607 0-1.187-.054-1.755-.133-5.787-.807-9.54-5.713-11.249-14.748-1.877-9.92-1.923-20.51-.134-31.771 1.784-11.261 4.198-20.196 7.239-26.811 4.826-10.725 10.725-20.33 17.695-28.822 6.971-8.487 14.118-12.911 21.449-13.271 2.145-.176 3.929.314 5.362 1.475 1.428 1.165 2.455 2.639 3.083 4.424.423 1.211.735 2.623.954 4.203.104.752.194 1.531.252 2.366.176 2.593.176 4.918 0 6.971-.18 2.057-.448 4.248-.804 6.569-.36 2.325-.628 3.887-.804 4.692-.18.804-.36 1.475-.536 2.011l4.558-1.609c1.761-.622 4.33-1.274 7.655-1.956 2.409-.494 5.203-1.003 8.432-1.529 7.683-1.249 16.355-1.965 26.007-2.145l.268-3.217c0-2.145-.18-4.96-.536-8.445-.36-3.485-.938-7.327-1.743-11.529-.805-4.198-2.325-8.445-4.558-12.735-1.345-2.579-2.87-5.012-4.536-7.332-1.105-1.54-2.26-3.038-3.507-4.465-3.129-3.573-7.465-6.61-13.003-9.116-5.542-2.501-11.889-3.929-19.036-4.29-16.623-1.073-31.503 2.237-44.64 9.92-13.137 7.688-23.46 18.144-30.967 31.369-6.171 10.875-10.589 23.018-13.256 36.425-.39 1.962-.745 3.95-1.06 5.967-.151.967-.296 1.939-.43 2.919-1.072 7.867-1.876 15.014-2.413 21.449-.536 6.435-.762 13.229-.67 20.376C933.744 1036.276 934.326 1042.623 935.398 1048.161zM956.713 951.641c3.842-7.147 7.775-12.958 11.797-17.427 4.022-4.466 8.488-8.399 13.406-11.797 4.914-3.393 9.204-5.898 12.87-7.507 3.661-1.609 7.415-2.903 11.26-3.888 3.842-.98 6.389-1.562 7.641-1.743 1.248-.176 2.321-.268 3.217-.268-35.927 8.223-58.272 31.013-67.028 68.368-.18.536-.36.984-.536 1.34-.36 1.073-.628 1.341-.804.804l-.804-4.021C949.876 966.748 952.867 958.792 956.713 951.641zM943.844 994.539c.268-2.681.578-4.826.938-6.435.356-1.608.624-2.413.804-2.413v13.941c-.18 3.754-.628 5.63-1.34 5.63-.536 0-.804-1.16-.804-3.485C943.442 999.633 943.576 997.22 943.844 994.539zM1253.49 966.149c7.918-1.305 17.636-2.422 29.184-3.346l.268-3.217c0-2.321-.226-5.316-.67-8.982-.448-3.661-1.165-7.683-2.145-12.065-.984-4.377-2.773-8.755-5.362-13.137-2.228-3.761-4.84-7.243-7.792-10.479-.484-.53-.955-1.07-1.458-1.586-3.578-3.661-8.446-6.61-14.612-8.848-6.167-2.233-13.095-3.352-20.779-3.352-35.215 0-59.165 14.926-71.854 44.774-.896 1.969-1.701 4.156-2.413 6.569-.717 2.413-1.253 5.409-1.609 8.982-.36 3.577-.402 7.104-.134 10.59.268 3.485 1.207 7.017 2.815 10.59 1.609 3.578 3.888 6.703 6.837 9.384 2.802 2.547 6.745 4.728 11.809 6.548.266.096.521.195.793.289 5.45 1.877 11.931 2.907 19.438 3.083h3.753c2.501-.176 5.404 0 8.714.536 3.305.536 6.569 1.475 9.786 2.815 3.217 1.341 5.496 3.485 6.837 6.435.172.379.321.774.451 1.184.878 2.781.771 6.273-.317 10.479-2.325 6.971-4.47 12.425-6.435 16.354-1.969 3.934-4.29 6.883-6.971 8.848-2.681 1.969-5.321 3.176-7.909 3.62-1.096.189-2.37.319-3.802.396-1.954.105-4.211.11-6.789.006-2.145-.176-4.068-1.609-5.764-4.29-1.701-2.682-2.815-5.853-3.351-9.519-.464-3.168-.89-6.419-1.285-9.726-.062-.514-.129-1.017-.189-1.534-.448-3.841-.582-6.971-.402-9.384.176-2.413.176-3.707 0-3.887-6.971 2.861-13.988 4.918-21.047 6.167-7.063 1.252-11.709 1.923-13.942 2.011-2.237.092-3.976.046-5.228-.134-.536 22.346 3.573 38.969 12.333 49.869 4.943 6.156 10.914 10.572 17.909 13.251 5.396 2.067 11.401 3.103 18.018 3.103 10.188 0 18.99-.846 26.409-2.547 7.415-1.697 13.628-3.976 18.634-6.837 5.002-2.857 9.426-7.059 13.271-12.601 3.842-5.538 6.971-11.215 9.384-17.025 2.413-5.806 5.136-13.447 8.177-22.923 2.501-8.043 2.233-15.371-.804-21.985-1.875-4.076-4.159-7.554-6.847-10.443-1.672-1.797-3.499-3.369-5.486-4.705-5.186-3.485-11.487-6.523-18.902-9.116-7.419-2.589-12.647-4.156-15.685-4.692-1.812-.319-3.407-.567-4.837-.76-.97-.13-1.876-.24-2.67-.313l-1.609-.268c-1.073-.176-2.279-.49-3.62-.938-1.341-.444-2.681-1.114-4.021-2.011-1.341-.892-2.279-2.145-2.815-3.753-.536-1.609-.448-3.662.268-6.167 1.965-6.254 6.208-11.751 12.735-16.489 6.523-4.734 12.911-7.105 19.17-7.105 4.812 0 7.386 3.713 7.728 11.126.242 5.249-.633 12.35-2.634 21.315C1240.254 968.756 1246.087 967.37 1253.49 966.149zM1204.654 915.75c-8.223 4.202-14.524 8.312-18.902 12.333-4.382 4.021-8.177 8.713-11.395 14.076s-5.274 9.25-6.167 11.663c-.896 2.413-1.701 5.053-2.413 7.91-.18.36-.268.628-.268.804 0 .18-.092.448-.268.804-.36 1.073-.716 1.433-1.073 1.073l-.804-3.218c2.321-7.146 5.362-13.673 9.116-19.572s7.641-10.678 11.663-14.344c4.022-3.662 8.488-6.879 13.406-9.652 4.914-2.77 9.204-4.826 12.869-6.167 3.661-1.34 7.415-2.413 11.261-3.217 3.842-.804 6.435-1.249 7.775-1.34 1.341-.088 2.367-.134 3.083-.134C1222.169 908.557 1212.874 911.552 1204.654 915.75zM1279.328 1042.138c.63 4.785 1.649 9.177 3.075 13.164 1.785 5.006 3.573 9.162 5.362 12.467 1.784 3.31 4.29 6.212 7.507 8.713 3.217 2.505 5.94 4.382 8.177 5.63 1.103.619 2.405 1.205 3.901 1.758 1.532.566 3.269 1.098 5.215 1.593 3.842.985 6.745 1.609 8.714 1.877 1.965.268 4.734.583 8.312.938.356 0 .712 0 1.072 0 4.646.536 10.23-.176 16.757-2.145 6.523-1.964 13.54-5.362 21.047-10.188 7.507-4.826 14.654-10.767 21.449-17.83 6.791-7.059 12.869-15.995 18.231-26.811 5.362-10.812 9.204-22.563 11.529-35.256 2.321-16.799 2.681-31.143 1.073-43.032-1.609-11.885-5.052-21.625-10.322-29.224-2.332-3.357-4.783-6.29-7.34-8.845-3.229-3.225-6.631-5.834-10.221-7.778-6.435-3.485-13.23-5.228-20.376-5.228l-4.022-.269c-2.861-.356-6.615-.176-11.261.536-4.65.717-9.832 1.835-15.55 3.352-5.723 1.521-11.621 4.382-17.695 8.58-6.079 4.202-11.889 9.25-17.427 15.148-4.257 4.53-8.194 10.338-11.817 17.4-1.094 2.132-2.162 4.367-3.198 6.73-2.792 6.364-5.13 13.252-7.014 20.663-1.132 4.452-2.101 9.094-2.906 13.924-1.343 8.509-2.245 16.449-2.715 23.836-.093 1.458-.175 2.901-.234 4.315-.36 8.58-.268 15.999.268 22.253C1279.026 1039.681 1279.167 1040.919 1279.328 1042.138zM1364.981 937.333c3.037.18 5.538 1.433 7.507 3.753 1.695 2.005 2.888 4.143 3.588 6.413.111.361.213.726.299 1.094.624 2.681.98 5.765 1.073 9.25.088 3.485.042 5.945-.134 7.373-.18 1.433-.36 2.505-.536 3.217-2.325 14.658-5.006 27.306-8.043 37.938-3.042 10.636-6.032 19.036-8.982 25.202-2.949 6.167-6.213 10.905-9.786 14.21-3.578 3.31-7.017 5.362-10.322 6.167-1.689.411-3.482.621-5.379.636-1.821.015-3.735-.151-5.748-.501-3.577-.712-6.301-2.991-8.177-6.837-1.877-3.842-2.949-8.312-3.217-13.406s-.134-10.632.402-16.623c.536-5.987 1.249-11.168 2.145-15.551.892-4.377 1.784-8.085 2.681-11.126 3.754-13.762 9.786-25.915 18.098-36.463C1348.76 941.535 1356.938 936.621 1364.981 937.333zM1292.448 973.302c1.359-4.756 2.948-9.27 4.772-13.537 1.177-2.752 2.445-5.407 3.816-7.955 3.842-7.146 7.775-12.957 11.797-17.427 4.022-4.466 8.446-8.399 13.271-11.797 4.826-3.394 9.116-5.898 12.869-7.507s7.549-2.903 11.395-3.888c3.842-.98 6.389-1.562 7.641-1.743 1.249-.176 2.233-.268 2.949-.268-31.538 7.219-52.607 25.666-63.208 55.334-.984 2.754-1.873 5.61-2.676 8.558-.401 1.471-.788 2.957-1.144 4.476 0 .537-.092.984-.268 1.341-.36 1.072-.717 1.34-1.073.804l-.804-4.021C1291.998 974.873 1292.224 974.088 1292.448 973.302zM1287.899 994.708c.268-2.681.578-4.826.938-6.435.356-1.609.712-2.413 1.072-2.413v13.942c-.18 3.753-.716 5.63-1.609 5.63-.36 0-.536-1.161-.536-3.485C1287.585 999.803 1287.631 997.39 1287.899 994.708zM1533.085 1058.117c6.791-7.059 12.869-15.995 18.232-26.811 5.362-10.812 9.204-22.563 11.529-35.256 2.321-16.799 2.681-31.143 1.073-43.032-1.609-11.885-5.052-21.625-10.323-29.224-2.331-3.357-4.782-6.29-7.34-8.845-3.229-3.225-6.631-5.834-10.221-7.778-6.435-3.485-13.23-5.228-20.376-5.228l-4.021-.269c-2.861-.356-6.615-.176-11.261.536-4.65.717-9.832 1.835-15.55 3.352-5.723 1.521-11.621 4.382-17.696 8.58-6.078 4.202-11.889 9.25-17.427 15.148-5.542 5.898-10.549 13.941-15.014 24.13-.152.347-.292.707-.441 1.057-4.241 9.93-7.407 21.098-9.479 33.53-1.608 10.188-2.593 19.572-2.949 28.151-.36 8.58-.268 15.999.268 22.253.124 1.44.284 2.842.473 4.215.634 4.596 1.635 8.824 3.012 12.676 1.785 5.006 3.573 9.162 5.362 12.467 1.785 3.31 4.29 6.212 7.507 8.713 3.217 2.505 5.94 4.382 8.177 5.63 1.103.619 2.405 1.205 3.901 1.758 1.532.566 3.269 1.098 5.215 1.593 3.842.985 6.745 1.609 8.714 1.877 1.965.268 4.734.583 8.312.938.356 0 .712 0 1.073 0 4.646.536 10.23-.176 16.757-2.145 6.523-1.964 13.54-5.362 21.047-10.188C1519.144 1071.12 1526.291 1065.18 1533.085 1058.117zM1433.08 999.803c-.18 3.753-.716 5.63-1.609 5.63-.36 0-.536-1.161-.536-3.485-.18-2.145-.134-4.558.134-7.239s.578-4.826.938-6.435c.356-1.609.712-2.413 1.072-2.413V999.803zM1437.102 977.549c0 .537-.092.984-.268 1.341-.012.035-.023.062-.035.095-.348.987-.693 1.229-1.037.709l-.804-4.021c.488-1.841 1.017-3.639 1.573-5.409 2.086-6.648 4.64-12.806 7.677-18.453 3.842-7.146 7.775-12.957 11.797-17.427 4.021-4.466 8.445-8.399 13.271-11.797 4.826-3.394 9.116-5.898 12.869-7.507 3.753-1.609 7.549-2.903 11.395-3.888 3.842-.98 6.389-1.562 7.641-1.743 1.249-.176 2.233-.268 2.949-.268C1468.203 917.404 1445.857 940.194 1437.102 977.549zM1520.484 965.216c-.18 1.433-.36 2.505-.536 3.217-2.325 14.658-5.006 27.306-8.043 37.938-3.042 10.636-6.033 19.036-8.982 25.202s-6.213 10.905-9.786 14.21c-3.578 3.31-7.017 5.362-10.322 6.167-1.688.411-3.482.621-5.378.636-1.821.015-3.736-.151-5.748-.501-3.577-.712-6.301-2.991-8.177-6.837-1.876-3.842-2.949-8.312-3.217-13.406s-.134-10.632.402-16.623c.536-5.987 1.248-11.168 2.145-15.551.892-4.377 1.784-8.085 2.681-11.126 3.754-13.762 9.786-25.915 18.098-36.463 8.312-10.544 16.489-15.458 24.532-14.746 3.037.18 5.538 1.433 7.507 3.753 1.695 2.005 2.888 4.143 3.588 6.413.111.361.213.726.299 1.094.624 2.681.98 5.765 1.072 9.25C1520.706 961.329 1520.66 963.788 1520.484 965.216zM1570.628 1080.694c2.806.592 5.79 1.283 8.975 2.089 7.415 1.876 13.272 3.887 17.561 6.032l3.217-13.673c2.145-9.292 4.96-22.521 8.446-39.681 3.485-17.159 6.569-33.69 9.25-49.601 3.33 12.886 6.358 27.264 9.088 43.116 2.836 16.471 5.349 34.534 7.535 54.208l6.971 1.341c2.14.397 4.541.608 7.173.653 3.303.056 6.979-.154 11.058-.653 7.327-.893 13.582-3.217 18.768-6.971l.268-6.435c.176-4.29.578-10.142 1.207-17.561.624-7.415 1.382-15.819 2.279-25.203.892-9.384 2.145-19.48 3.753-30.296 1.609-10.812 3.352-21.357 5.228-31.637 1.877-10.276 4.244-20.418 7.105-30.431 1.749-6.126 3.568-11.712 5.453-16.768 1.194-3.203 2.415-6.198 3.663-8.971-21.273-.176-36.463-3.218-45.579-9.116l-1.877 9.116c-1.252 6.078-2.995 15.106-5.228 27.079-.249 1.334-.491 2.682-.74 4.018-1.978 10.66-3.923 21.378-5.829 32.177-1.072-7.147-2.459-14.566-4.156-22.253-1.701-7.683-3.351-14.209-4.96-19.572-1.609-5.362-3.352-10.679-5.228-15.953-.543-1.525-1.028-2.883-1.466-4.109-1.077-3.011-1.844-5.139-2.287-6.348-.628-1.697-1.119-2.991-1.475-3.888h-7.239c-4.826 0-10.951.896-18.365 2.681-7.419 1.789-13.72 4.47-18.902 8.043l-.804 12.065c-.716 8.043-1.877 18.634-3.485 31.771-.305 2.495-.628 5.02-.959 7.56-1.414 10.835-3.059 22.075-4.939 33.729-2.325 14.39-5.408 29.002-9.25 43.836-.567 2.19-1.14 4.315-1.717 6.389-3.331 11.972-6.826 22.001-10.482 30.074l7.775 1.341C1563.493 1079.304 1566.899 1079.908 1570.628 1080.694zM1592.338 953.688c.893-4.109 1.248-9.472 1.073-16.086.356-1.073.712-1.249 1.072-.536.892 2.145.892 6.794 0 13.941-.36 1.969-.896 3.578-1.608 4.826-.36.896-.628 1.165-.804.804C1591.89 956.461 1591.978 955.477 1592.338 953.688zM1585.903 1008.918c2.321-13.762 3.753-23.728 4.29-29.895.536-6.167.98-11.214 1.34-15.148 1.428-2.145 1.785.716 1.073 8.579-1.609 16.803-4.558 35.659-8.848 56.572-1.433 6.615-3.485 10.636-6.167 12.065C1580.809 1033.409 1583.578 1022.684 1585.903 1008.918z"></path>
  <path fill="#8b1875" d="M759.786 1028.053c-1.072 6.615-2.413 11.889-4.022 15.818-.716 1.969-.896 2.949-.536 2.949.405-.08.849-.51 1.329-1.254 1.485-6.121 2.838-12.203 4.062-18.248C760.44 1027.338 760.164 1027.579 759.786 1028.053zM1501.18 909.449c-1.252.18-3.8.763-7.641 1.743-3.846.984-7.641 2.279-11.395 3.888-3.754 1.609-8.043 4.114-12.869 7.507-4.826 3.397-9.25 7.331-13.271 11.797-4.022 4.47-7.955 10.28-11.797 17.427-3.037 5.647-5.591 11.805-7.677 18.453.184 2.79.271 5.7.269 8.721.012-.033.023-.06.035-.095.176-.356.268-.804.268-1.341 8.756-37.355 31.101-60.145 67.028-68.368C1503.413 909.181 1502.429 909.273 1501.18 909.449zM762.133 1019.489c.223-1.204.441-2.407.654-3.607-.451 1.461-.914 2.842-1.392 4.128C761.647 1019.865 761.893 1019.687 762.133 1019.489zM510.312 948.424c-.087-.372-.19-.739-.303-1.104-.342-.051-.689-.089-1.046-.11-8.043-.712-16.22 4.202-24.532 14.746-8.312 10.548-14.344 22.701-18.098 36.463-.896 3.042-1.789 6.749-2.681 11.126-.896 4.382-1.609 9.564-2.145 15.55-.536 5.991-.67 11.529-.402 16.623.198 3.771.841 7.198 1.92 10.283 3.881.615 7.4.545 10.554-.221 3.305-.804 6.745-2.857 10.322-6.167 3.573-3.306 6.837-8.043 9.786-14.21s5.94-14.566 8.982-25.203c3.037-10.632 5.718-23.279 8.043-37.938.176-.712.356-1.785.536-3.217.176-1.429.222-3.888.134-7.373C511.292 954.188 510.937 951.105 510.312 948.424zM287.378 988.104c-.36 1.609-.67 3.754-.938 6.435-.268 2.681-.402 5.094-.402 7.239.176 2.325.444 3.485.804 3.485.892 0 1.341-1.876 1.341-5.63v-13.941C288.003 985.691 287.735 986.496 287.378 988.104zM581.504 972.191c.137-1.023.272-2.039.406-3.052-.049.064-.095.12-.147.197C581.681 970.23 581.594 971.187 581.504 972.191zM1013.687 909.28c-1.252.18-3.8.762-7.641 1.743-3.846.984-7.599 2.279-11.26 3.888-3.666 1.608-7.956 4.114-12.87 7.507-4.918 3.397-9.384 7.331-13.406 11.797-4.021 4.47-7.955 10.28-11.797 17.427-3.846 7.151-6.837 15.106-8.982 23.862l.804 4.021c.176.537.444.269.804-.804.176-.356.356-.804.536-1.34 8.756-37.355 31.101-60.145 67.028-68.368C1016.008 909.012 1014.935 909.104 1013.687 909.28zM944.782 988.104c-.36 1.609-.67 3.754-.938 6.435-.268 2.681-.402 5.094-.402 7.239 0 2.325.268 3.485.804 3.485.712 0 1.16-1.876 1.34-5.63v-13.941C945.406 985.691 945.138 986.496 944.782 988.104zM568.67 1045.99c.393-1.597.773-3.191 1.147-4.784-.646 1.92-1.31 3.708-1.997 5.347C568.112 1046.397 568.394 1046.206 568.67 1045.99zM348.642 911.022c-3.846.984-7.599 2.279-11.261 3.888-3.666 1.608-7.956 4.114-12.869 7.507-4.918 3.397-9.384 7.331-13.406 11.797-4.022 4.47-7.909 10.28-11.663 17.427-3.754 7.151-6.795 15.106-9.116 23.862l.805 4.021c.356.537.712.269 1.072-.804 0-.356.088-.804.268-1.34 8.756-37.355 31.101-60.145 67.028-68.368-.716 0-1.743.092-3.083.268C355.077 909.46 352.484 910.042 348.642 911.022zM422.774 988.104c-.36 1.609-.67 3.754-.938 6.435-.268 2.681-.314 5.094-.134 7.239 0 2.325.176 3.485.536 3.485.892 0 1.429-1.876 1.609-5.63v-13.941C423.486 985.691 423.13 986.496 422.774 988.104zM583.64 943.062c.176 6.615-.18 11.977-1.072 16.087-.36 1.789-.448 2.773-.268 2.949.135.138.327.005.571-.387.877-7.007 1.572-13.223 2.082-18.646-.073-.289-.149-.569-.24-.808C584.352 941.721 583.996 941.989 583.64 943.062zM1376.375 948.593c-.086-.368-.188-.732-.299-1.094-6.759.949-13.611 5.813-20.558 14.626-8.312 10.549-14.344 22.702-18.098 36.463-.896 3.042-1.789 6.749-2.681 11.126-.896 4.382-1.609 9.564-2.145 15.551-.536 5.991-.67 11.529-.402 16.623.208 3.942.902 7.505 2.073 10.697 1.896-.015 3.69-.225 5.379-.636 3.305-.804 6.745-2.857 10.322-6.167 3.573-3.305 6.836-8.043 9.786-14.21 2.949-6.167 5.94-14.566 8.982-25.202 3.037-10.632 5.718-23.28 8.043-37.938.176-.712.356-1.785.536-3.217.176-1.428.222-3.888.134-7.373C1377.356 954.358 1377 951.274 1376.375 948.593zM772.192 946.702c.156-1.564.301-3.075.433-4.525-.076.101-.155.214-.238.349C772.327 943.779 772.261 945.179 772.192 946.702zM1288.837 988.274c-.36 1.609-.67 3.753-.938 6.435s-.314 5.094-.134 7.239c0 2.325.176 3.485.536 3.485.892 0 1.428-1.877 1.609-5.63v-13.942C1289.549 985.861 1289.193 986.665 1288.837 988.274zM1229.455 906.902c-1.341.092-3.934.536-7.775 1.34-3.846.804-7.599 1.877-11.261 3.217-3.666 1.341-7.955 3.397-12.869 6.167-4.918 2.773-9.384 5.99-13.406 9.652-4.021 3.666-7.909 8.445-11.663 14.344s-6.795 12.425-9.116 19.572l.804 3.218c.356.36.712 0 1.073-1.073.176-.356.268-.624.268-.804 0-.176.088-.444.268-.804.712-2.857 1.516-5.497 2.413-7.91.892-2.413 2.949-6.3 6.167-11.663s7.013-10.054 11.395-14.076c4.378-4.021 10.678-8.131 18.902-12.333 8.219-4.198 17.515-7.193 27.884-8.982C1231.821 906.768 1230.795 906.814 1229.455 906.902zM1591.533 963.876c-.36 3.934-.804 8.981-1.34 15.148-.536 6.167-1.969 16.133-4.29 29.895-2.325 13.766-5.094 24.49-8.312 32.173 2.681-1.429 4.734-5.45 6.167-12.065 4.29-20.913 7.239-39.769 8.848-56.572C1593.318 964.592 1592.962 961.731 1591.533 963.876zM1519.546 948.593c-.086-.368-.188-.732-.299-1.094-6.759.949-13.611 5.813-20.558 14.626-8.312 10.549-14.344 22.702-18.098 36.463-.896 3.042-1.789 6.749-2.681 11.126-.896 4.382-1.609 9.564-2.145 15.551-.536 5.991-.67 11.529-.402 16.623.207 3.942.902 7.505 2.073 10.697 1.896-.015 3.69-.225 5.378-.636 3.305-.804 6.745-2.857 10.322-6.167 3.573-3.305 6.837-8.043 9.786-14.21s5.94-14.566 8.982-25.202c3.037-10.632 5.718-23.28 8.043-37.938.176-.712.356-1.785.536-3.217.176-1.428.222-3.888.134-7.373C1520.526 954.358 1520.17 951.274 1519.546 948.593z"></path>
  <path fill="#8b1875" d="M1561.165,765.966H238.327c-18.516,0-33.526,15.01-33.526,33.526v401.017c0,18.516,15.01,33.526,33.526,33.526
	h1322.837c129.253,0,234.034-104.781,234.034-234.034S1690.418,765.966,1561.165,765.966z M512.45,1085.823
	c-7.507,4.826-14.524,8.224-21.047,10.188c-6.527,1.969-12.111,2.681-16.757,2.145c-0.36,0-0.716,0-1.072,0
	c-3.578-0.356-6.347-0.67-8.312-0.938c-1.969-0.268-4.872-0.892-8.714-1.877c-3.846-0.98-6.883-2.099-9.116-3.351
	c-2.237-1.249-4.96-3.125-8.177-5.63c-2.885-2.243-5.194-4.812-6.927-7.706c-0.984-0.709-2.021-1.485-3.119-2.341
	c-3.217-2.501-5.723-5.404-7.507-8.713c-1.789-3.305-3.578-7.461-5.362-12.467c-1.789-5.002-2.949-10.632-3.485-16.891
	c-0.536-6.255-0.628-13.674-0.268-22.253c0.356-8.58,1.341-17.963,2.949-28.152c0.865-5.192,1.929-10.155,3.173-14.911
	c-5.932,0.417-11.467,1.002-16.585,1.766c-7.775,1.165-13.184,2.279-16.221,3.352l-4.558,1.609c0.176-0.356,0.356-0.938,0.536-1.743
	c0.176-0.804,0.444-2.367,0.804-4.692c0.356-2.321,0.624-4.558,0.804-6.703c0.011-0.137,0.015-0.281,0.025-0.42
	c-3.334,0.649-5.905,1.283-7.659,1.902l-4.558,1.608c0.176-0.356,0.356-0.938,0.536-1.743c0.176-0.804,0.444-2.367,0.804-4.692
	c0.356-2.321,0.624-4.558,0.804-6.703c0.176-2.145,0.176-4.466,0-6.971c-0.057-0.784-0.143-1.52-0.243-2.233
	c-7.111,0.576-14.092,4.929-20.946,13.084c-7.063,8.404-13.003,17.963-17.829,28.688c-3.042,6.435-5.497,15.282-7.373,26.543
	c-1.877,11.261-1.877,21.851,0,31.771c0.323,1.707,0.727,3.255,1.2,4.668c0.651,0.101,1.322,0.165,2.025,0.165
	c3.037,0,5.852-0.31,8.446-0.938c2.589-0.624,4.734-1.382,6.435-2.279c1.697-0.892,3.217-1.876,4.558-2.949
	c1.341-1.072,2.367-2.145,3.083-3.217c0.712-1.072,1.294-2.099,1.743-3.083c0.444-0.98,0.758-1.743,0.938-2.279l0.268-0.804
	c2.681,1.609,5.898,3.129,9.652,4.558c3.753,1.433,7.373,2.593,10.858,3.485c3.486,0.896,6.745,1.701,9.786,2.413
	c3.037,0.716,5.45,1.252,7.239,1.608l2.681,0.536c-1.652,2.312-3.365,4.516-5.127,6.633c1.816,0.45,3.572,0.875,5.254,1.269
	c3.037,0.716,5.45,1.252,7.239,1.609l2.681,0.536c-5.362,7.507-11.307,13.988-17.829,19.438
	c-6.527,5.454-12.559,9.384-18.098,11.797c-5.542,2.413-10.683,4.248-15.416,5.496c-4.738,1.252-8.538,1.877-11.395,1.877
	l-4.022,0.268c-7.687,0-14.524-1.026-20.51-3.083c-5.991-2.053-10.905-4.734-14.746-8.043c-2.419-2.08-4.571-4.532-6.457-7.354
	c-1.282-0.848-2.485-1.741-3.59-2.692c-3.846-3.305-7.017-7.549-9.518-12.735c-2.505-5.182-4.29-10.498-5.362-15.953
	c-1.073-5.45-1.655-11.75-1.743-18.902c-0.092-7.146,0.134-13.896,0.67-20.242c0.537-6.342,1.341-13.447,2.413-21.315
	c1.785-12.509,5.094-24.13,9.92-34.854c4.826-10.725,10.993-20.062,18.5-28.018c7.507-7.951,16.623-14.029,27.347-18.231
	c10.725-4.197,22.429-5.94,35.123-5.228c7.147,0.536,13.494,2.011,19.036,4.424c5.538,2.413,9.92,5.455,13.137,9.116
	c1.283,1.462,2.466,2.979,3.592,4.526c2.506,1.65,4.667,3.486,6.454,5.521c3.218,3.666,5.94,7.599,8.178,11.796
	c2.233,4.202,3.753,8.404,4.558,12.602c0.094,0.492,0.175,0.96,0.263,1.441c4.195-9.085,8.844-16.371,13.954-21.81
	c5.538-5.898,11.349-10.946,17.427-15.148c6.074-4.198,11.973-7.059,17.695-8.58c5.718-1.517,10.9-2.635,15.551-3.352
	c4.646-0.712,8.399-0.892,11.261-0.536l4.021,0.268c7.147,0,13.942,1.743,20.376,5.228c5.458,2.957,10.493,7.409,15.115,13.323
	c4.473,3.356,8.639,7.797,12.493,13.347c5.27,7.6,8.713,17.339,10.322,29.224c1.609,11.889,1.248,26.233-1.073,43.032
	c-2.325,12.693-6.167,24.444-11.529,35.256c-5.362,10.816-11.441,19.752-18.232,26.811
	C527.104,1075.057,519.957,1080.997,512.45,1085.823z M1082.048,1021.342c-2.237,7.775-4.872,14.478-7.909,20.108
	c-3.041,5.63-6.481,11.039-10.322,16.221c-3.846,5.187-7.373,9.384-10.59,12.601c-3.217,3.218-6.615,6.259-10.188,9.116
	c-2.325,1.969-4.65,3.666-6.971,5.094l-4.021,2.681c-5.723,3.397-11.663,6.033-17.829,7.91c-6.167,1.876-10.859,2.907-14.076,3.083
	h-4.826c-7.687,0-14.478-1.026-20.376-3.083c-5.898-2.053-10.77-4.734-14.612-8.043c-2.416-2.077-4.565-4.524-6.449-7.342
	c-1.281-0.851-2.488-1.749-3.597-2.705c-3.846-3.305-7.017-7.549-9.518-12.735c-2.505-5.182-4.29-10.544-5.362-16.086
	c-1.073-5.538-1.655-11.885-1.743-19.036c-0.092-7.146,0.134-13.941,0.67-20.376c0.537-6.435,1.341-13.582,2.413-21.449
	c0.134-0.98,0.279-1.952,0.43-2.919c-1.337,7.707-2.601,15.557-3.791,23.556c-1.609,10.816-2.861,20.913-3.754,30.296
	c-0.896,9.384-1.655,17.788-2.279,25.203c-0.628,7.419-1.031,13.271-1.207,17.561l-0.268,6.435
	c-5.187,3.754-11.441,6.079-18.768,6.971c-7.331,0.896-13.406,0.896-18.231,0l-6.971-1.341c-0.315-2.832-0.638-5.621-0.966-8.386
	c-0.726-0.091-1.433-0.194-2.109-0.32l-6.971-1.34c-2.802-25.222-6.143-47.794-10.013-67.753c-1.795,9.804-3.73,19.825-5.812,30.076
	c-3.486,17.159-6.301,30.389-8.446,39.68l-3.217,13.674c-4.29-2.145-10.146-4.156-17.561-6.032
	c-7.419-1.877-13.808-3.171-19.17-3.888l-7.775-1.341c1.101-2.43,2.187-5.041,3.258-7.824c-1.946-0.352-3.797-0.65-5.53-0.882
	l-6.071-1.046c-0.649,2.949-1.264,5.668-1.843,8.144l-2.681,12.333c-1.969-1.072-4.248-2.053-6.837-2.949
	c-2.593-0.893-5.274-1.697-8.043-2.413c-2.773-0.712-5.542-1.382-8.312-2.011c-2.773-0.624-5.362-1.161-7.775-1.609
	c-2.413-0.444-4.6-0.846-6.568-1.207c-1.965-0.356-3.486-0.624-4.558-0.804l-1.609-0.268c1.081-2.387,2.145-4.944,3.191-7.671
	c-0.166-0.031-0.338-0.065-0.503-0.096c-2.413-0.444-4.6-0.846-6.569-1.207c-1.784-0.323-3.182-0.57-4.231-0.749
	c-0.077,1.421-0.144,2.791-0.198,4.092l-0.804,12.601c-6.078-0.712-12.781-0.624-20.108,0.269
	c-7.331,0.896-13.138,2.057-17.427,3.485l-6.435,1.877c0.236-4.194,0.537-8.591,0.902-13.188c-1.649,0.396-3.165,0.815-4.514,1.265
	l-6.435,1.877c0.781-13.862,2.263-29.929,4.445-48.2c-14.206,24.755-23.156,42.121-26.84,52.08l-6.971,1.073
	c-4.47,0.716-9.028,0.716-13.673,0l-6.167-1.073c0-1.248-0.134-3.125-0.402-5.63c-0.083-0.776-0.2-1.784-0.344-2.973
	c-1.04-0.089-2.084-0.209-3.134-0.371l-6.167-1.072c0-1.249-0.134-3.125-0.402-5.63c-0.268-2.501-0.85-7.147-1.743-13.942
	c-0.896-6.791-1.877-13.225-2.949-19.304c-0.645-3.652-1.417-7.487-2.288-11.464c-1.633,8.268-3.325,16.594-5.092,24.997
	c-2.861,13.586-5.094,23.862-6.703,30.833l-2.145,10.188c-1.969-0.892-4.336-1.831-7.105-2.815c-2.773-0.98-5.496-1.831-8.177-2.547
	c-2.681-0.712-5.496-1.383-8.446-2.011c-2.949-0.624-5.63-1.161-8.043-1.609c-2.413-0.444-4.6-0.804-6.569-1.072
	c-1.965-0.268-3.573-0.49-4.826-0.67l-1.608-0.269c1.164-2.465,2.305-5.117,3.426-7.946c-0.155-0.029-0.317-0.061-0.47-0.089
	c-2.413-0.444-4.6-0.804-6.569-1.072c-1.965-0.268-3.573-0.49-4.826-0.67l-1.608-0.268c4.469-9.472,8.625-21.625,12.467-36.463
	c3.841-14.834,6.879-29.492,9.116-43.97c2.233-14.478,4.198-28.24,5.898-41.289c1.697-13.045,2.815-23.594,3.352-31.637
	l1.072-12.333c3.393-0.356,6.837-0.846,10.322-1.475c3.485-0.625,6.611-1.294,9.384-2.011c2.769-0.712,5.496-1.382,8.177-2.011
	c2.681-0.624,5.002-1.248,6.971-1.876c1.965-0.625,3.662-1.207,5.094-1.743c1.428-0.537,2.501-0.893,3.217-1.073l1.073-0.536
	c0.961,3.301,2.137,7.459,3.524,12.454c0.803-0.276,1.55-0.543,2.232-0.798c1.428-0.536,2.501-0.892,3.217-1.073l1.072-0.536
	c1.249,4.29,2.857,10.013,4.826,17.159c1.965,7.151,4.826,19.933,8.58,38.34c1.789,8.775,3.284,17.026,4.505,24.785
	c2.033-3.807,4.82-8.933,8.372-15.393c5.45-9.92,10.724-19.124,15.818-27.615c5.094-8.487,10.901-17.293,17.427-26.409
	c6.523-9.116,12.287-16.086,17.293-20.913c8.935,5.898,24.038,8.94,45.311,9.116c-1.335,2.883-2.633,6.035-3.896,9.443
	c4.312,0.356,8.951,0.562,13.943,0.604c-4.47,9.652-8.538,22.253-12.199,37.803c-3.666,15.551-6.481,30.879-8.446,45.981
	c-1.969,15.106-3.62,29.538-4.96,43.3c-0.88,9.033-1.547,16.94-2.003,23.738c3.441-8.562,6.703-18.927,9.783-31.104
	c3.753-14.834,6.745-29.446,8.981-43.836c2.233-14.386,4.156-28.152,5.765-41.289c1.609-13.138,2.681-23.728,3.217-31.771
	l1.073-12.065c3.217-2.321,6.925-4.244,11.126-5.764c4.198-1.517,8.043-2.589,11.529-3.217c3.485-0.625,6.925-1.114,10.322-1.475
	c3.393-0.356,5.898-0.49,7.507-0.402c1.609,0.092,2.589,0.134,2.949,0.134c-0.179,3.308-0.411,6.758-0.696,10.35
	c0.095-0.01,0.191-0.025,0.286-0.036c3.393-0.356,5.898-0.49,7.507-0.402c1.609,0.092,2.589,0.134,2.949,0.134
	c-0.716,13.229-2.279,28.734-4.692,46.517c-2.413,17.788-5.052,34.633-7.909,50.539c-2.861,15.911-5.677,30.791-8.445,44.641
	c-1.161,5.801-2.25,11.117-3.269,15.961c2.946-7.817,5.781-16.973,8.502-27.483c3.842-14.834,6.925-29.446,9.25-43.836
	c2.321-14.386,4.29-28.152,5.898-41.289c1.609-13.138,2.769-23.728,3.485-31.771l0.804-12.064
	c5.182-3.574,11.483-6.255,18.902-8.043c7.415-1.785,13.54-2.681,18.365-2.681h7.239c0.356,0.896,0.846,2.191,1.475,3.888
	c0.434,1.183,1.179,3.25,2.22,6.159h6.352c0.356,0.896,0.846,2.191,1.475,3.888c0.624,1.701,1.877,5.187,3.754,10.457
	c1.876,5.274,3.619,10.59,5.228,15.953c0.941,3.138,1.898,6.688,2.87,10.623c0.916-5.025,1.835-10.044,2.768-15.039
	c2.233-11.973,3.976-21,5.228-27.079l1.876-9.116c9.116,5.898,24.306,8.94,45.579,9.116c-1.309,2.909-2.587,6.067-3.837,9.449
	c4.301,0.353,8.92,0.557,13.883,0.598c-3.217,7.151-6.259,15.73-9.116,25.739c-2.861,10.012-5.228,20.154-7.105,30.431
	c-0.128,0.7-0.25,1.412-0.377,2.114c2.667-13.407,7.085-25.55,13.256-36.425c7.507-13.226,17.829-23.682,30.967-31.369
	c13.137-7.683,28.017-10.993,44.64-9.92c7.147,0.36,13.494,1.789,19.036,4.29c5.538,2.505,9.874,5.542,13.003,9.116
	c1.246,1.427,2.402,2.925,3.507,4.465c2.567,1.689,4.756,3.545,6.54,5.582c3.125,3.578,5.806,7.507,8.043,11.797
	c2.233,4.29,3.754,8.538,4.558,12.735c0.804,4.202,1.382,8.043,1.743,11.529c0.356,3.485,0.536,6.3,0.536,8.445l-0.268,3.217
	c-9.652,0.18-18.324,0.896-26.007,2.145c-7.687,1.252-13.049,2.413-16.087,3.485l-4.558,1.608c0.176-0.536,0.356-1.207,0.536-2.011
	c0.176-0.804,0.444-2.367,0.804-4.692c0.356-2.321,0.624-4.512,0.804-6.569c0.01-0.109,0.013-0.229,0.021-0.34
	c-3.325,0.682-5.893,1.334-7.655,1.956l-4.558,1.609c0.176-0.536,0.356-1.207,0.536-2.011c0.176-0.805,0.444-2.367,0.804-4.692
	c0.356-2.321,0.624-4.512,0.804-6.569c0.176-2.053,0.176-4.378,0-6.971c-0.058-0.835-0.148-1.614-0.252-2.366
	c-7.104,0.582-14.036,4.979-20.802,13.217c-6.971,8.492-12.869,18.098-17.695,28.822c-3.041,6.615-5.454,15.55-7.239,26.811
	c-1.789,11.261-1.743,21.851,0.134,31.771c0.325,1.719,0.729,3.279,1.202,4.701c0.568,0.079,1.148,0.133,1.755,0.133
	c4.29,0,8.4-0.804,12.333-2.413c0.356-0.176,0.624-0.269,0.805-0.269c0.892-0.536,1.876-1.072,2.949-1.608
	c3.929-2.501,7.507-5.853,10.724-10.054c0.72-0.94,1.389-1.846,2.019-2.728c-3.701,0.756-6.751,1.484-9.132,2.184l-4.558,1.341
	c0.176-2.145,0.268-4.424,0.268-6.837c0-2.139-0.038-4.129-0.108-5.988c-2.174,0.492-4.062,0.971-5.649,1.438l-4.558,1.34
	c0.176-2.145,0.268-4.424,0.268-6.837c0-2.413-0.046-4.646-0.134-6.703c-0.092-2.053-0.269-4.109-0.537-6.167
	c-0.268-2.053-0.494-3.841-0.67-5.362c-0.18-1.517-0.402-2.857-0.67-4.021c-0.268-1.161-0.494-2.011-0.67-2.547v-1.072
	c8.755-3.393,20.913-5.806,36.463-7.239c15.551-1.429,26.811-2.053,33.782-1.877c6.971,0.18,12.601,0.448,16.891,0.804
	c-0.207,3.176-0.544,6.318-1.005,9.427c4.342,0.164,8.035,0.37,11.052,0.62C1085.667,1005.57,1084.28,1013.567,1082.048,1021.342z
	 M1713.58,946.039c-2.861,10.012-5.228,20.154-7.104,30.431c-1.877,10.28-3.62,20.824-5.229,31.637
	c-1.608,10.816-2.861,20.913-3.753,30.297c-0.896,9.384-1.655,17.787-2.279,25.202c-0.628,7.419-1.031,13.271-1.207,17.561
	l-0.268,6.435c-5.187,3.753-11.441,6.079-18.768,6.971c-7.331,0.896-13.406,0.896-18.232,0l-6.971-1.34
	c-0.302-2.718-0.612-5.396-0.926-8.053c-2.632-0.045-5.033-0.256-7.173-0.653l-6.971-1.341c-2.186-19.674-4.699-37.737-7.535-54.208
	c-1.048,5.446-2.135,10.952-3.268,16.531c-3.486,17.159-6.301,30.388-8.446,39.68l-3.217,13.674
	c-4.29-2.145-10.146-4.156-17.561-6.033c-7.419-1.877-13.808-3.171-19.17-3.888l-7.775-1.34c0.979-2.161,1.945-4.468,2.9-6.908
	c-3.729-0.786-7.135-1.39-10.195-1.798l-7.775-1.341c3.656-8.073,7.151-18.102,10.482-30.074
	c-4.536,8.101-9.526,15.009-14.984,20.683c-6.795,7.063-13.942,13.003-21.449,17.829s-14.524,8.224-21.047,10.188
	c-6.527,1.969-12.111,2.681-16.757,2.145c-0.36,0-0.716,0-1.072,0c-3.578-0.356-6.347-0.67-8.312-0.938
	c-1.969-0.269-4.872-0.893-8.714-1.877c-3.846-0.98-6.883-2.099-9.116-3.352c-2.237-1.248-4.96-3.125-8.177-5.63
	c-1.08-0.839-2.072-1.728-2.991-2.658c-1.496-0.553-2.798-1.139-3.901-1.758c-2.237-1.249-4.96-3.125-8.177-5.63
	c-3.217-2.501-5.723-5.404-7.507-8.713c-1.789-3.306-3.578-7.461-5.362-12.467c-1.377-3.852-2.378-8.08-3.012-12.676
	c-5.202,10.238-11.057,18.762-17.575,25.538c-6.795,7.063-13.942,13.003-21.449,17.829s-14.524,8.224-21.047,10.188
	c-6.527,1.969-12.111,2.681-16.757,2.145c-0.36,0-0.716,0-1.072,0c-3.578-0.356-6.347-0.67-8.312-0.938
	c-1.969-0.269-4.872-0.893-8.714-1.877c-3.846-0.98-6.883-2.099-9.116-3.352c-2.237-1.248-4.96-3.125-8.177-5.63
	c-1.08-0.839-2.073-1.728-2.992-2.658c-1.496-0.553-2.798-1.139-3.901-1.758c-2.237-1.249-4.96-3.125-8.177-5.63
	c-3.217-2.501-5.723-5.404-7.507-8.713c-1.789-3.306-3.578-7.461-5.362-12.467c-1.426-3.987-2.445-8.379-3.075-13.164
	c-2.327,6.979-4.456,12.809-6.383,17.446c-2.413,5.811-5.542,11.487-9.384,17.025c-3.846,5.542-8.269,9.744-13.271,12.601
	c-5.006,2.861-11.219,5.14-18.634,6.837c-7.419,1.701-16.221,2.547-26.409,2.547c-13.617,0-24.642-4.392-33.088-13.149
	c-6.995-2.68-12.966-7.096-17.909-13.251c-8.76-10.9-12.869-27.523-12.333-49.869c1.253,0.18,2.991,0.227,5.228,0.134
	c2.233-0.088,6.879-0.758,13.942-2.011c7.059-1.249,14.076-3.305,21.047-6.167c0.176,0.18,0.176,1.475,0,3.887
	c-0.18,2.413-0.046,5.543,0.402,9.384c0.06,0.518,0.128,1.02,0.189,1.534c4.847-1.207,9.674-2.787,14.479-4.759
	c0.176,0.18,0.176,1.475,0,3.888c-0.18,2.413-0.046,5.542,0.402,9.384c0.444,3.846,0.938,7.6,1.475,11.261
	c0.194,1.324,0.49,2.561,0.834,3.755c1.431-0.077,2.706-0.207,3.802-0.396c2.589-0.444,5.228-1.65,7.909-3.62
	c2.681-1.964,5.002-4.914,6.971-8.848c1.965-3.929,4.11-9.384,6.435-16.354c1.088-4.206,1.194-7.698,0.317-10.479
	c-0.667-0.142-1.334-0.278-2.004-0.387c-3.31-0.536-6.213-0.712-8.714-0.536h-3.754c-7.507-0.176-13.988-1.207-19.438-3.083
	c-5.455-1.876-9.652-4.156-12.601-6.837c-1.2-1.091-2.283-2.259-3.261-3.498c-5.063-1.821-9.006-4.001-11.809-6.548
	c-2.949-2.681-5.228-5.806-6.837-9.384c-1.608-3.573-2.547-7.105-2.815-10.59c-0.268-3.486-0.226-7.013,0.134-10.59
	c0.356-3.573,0.892-6.569,1.609-8.982c0.712-2.413,1.516-4.6,2.413-6.569c12.689-29.848,36.639-44.774,71.854-44.774
	c7.683,0,14.612,1.119,20.779,3.352c6.167,2.237,11.035,5.187,14.612,8.848c0.503,0.516,0.974,1.056,1.458,1.586
	c5.688,2.188,10.233,5.002,13.612,8.46c3.573,3.666,6.657,7.688,9.25,12.065c2.215,3.75,3.84,7.495,4.881,11.241
	c3.622-7.062,7.56-12.87,11.817-17.4c5.538-5.898,11.349-10.947,17.427-15.148c6.074-4.198,11.973-7.059,17.695-8.58
	c5.718-1.517,10.9-2.635,15.55-3.352c4.646-0.712,8.399-0.892,11.261-0.536l4.022,0.269c7.147,0,13.942,1.743,20.376,5.228
	c3.59,1.944,6.992,4.554,10.221,7.778c1.638,0.649,3.255,1.405,4.849,2.268c6.435,3.485,12.287,9.028,17.561,16.623
	c3.94,5.681,6.857,12.561,8.752,20.636c0.149-0.35,0.289-0.71,0.441-1.057c4.466-10.188,9.472-18.231,15.014-24.13
	c5.538-5.898,11.349-10.947,17.427-15.148c6.074-4.198,11.973-7.059,17.696-8.58c5.718-1.517,10.9-2.635,15.55-3.352
	c4.646-0.712,8.399-0.892,11.261-0.536l4.021,0.269c7.147,0,13.942,1.743,20.376,5.228c3.59,1.944,6.993,4.554,10.221,7.778
	c1.638,0.649,3.255,1.405,4.849,2.268c6.435,3.485,12.287,9.028,17.561,16.623c5.27,7.599,8.713,17.339,10.322,29.224
	c0.021,0.152,0.037,0.31,0.057,0.462c0.331-2.54,0.654-5.065,0.959-7.56c1.609-13.137,2.769-23.728,3.485-31.771l0.804-12.065
	c5.182-3.573,11.483-6.254,18.902-8.043c7.415-1.785,13.54-2.681,18.365-2.681h7.239c0.356,0.896,0.846,2.191,1.475,3.888
	c0.443,1.208,1.21,3.336,2.287,6.348c1.444-0.123,2.804-0.188,4.069-0.188h7.239c0.356,0.896,0.846,2.191,1.475,3.888
	c0.624,1.701,1.876,5.186,3.753,10.456c1.83,5.143,3.528,10.328,5.103,15.555c0.248-1.336,0.49-2.684,0.74-4.018
	c2.233-11.973,3.976-21.001,5.228-27.079l1.877-9.116c9.116,5.898,24.306,8.94,45.579,9.116c-1.248,2.773-2.468,5.768-3.663,8.971
	c5.611,0.657,11.848,1.019,18.733,1.076C1719.478,927.451,1716.437,936.031,1713.58,946.039z"></path>
  <path fill="#8b1875" d="M1593.41 937.601c.176 6.615-.18 11.977-1.073 16.086-.36 1.789-.448 2.773-.268 2.949.176.36.444.092.804-.804.712-1.249 1.248-2.857 1.608-4.826.892-7.147.892-11.797 0-13.941C1594.123 936.353 1593.767 936.528 1593.41 937.601zM1253.49 966.149c-7.404 1.221-13.236 2.606-17.467 4.161 2.001-8.965 2.876-16.066 2.634-21.315-3.893 1.125-7.835 3.127-11.828 6.025-6.527 4.738-10.771 10.234-12.735 16.489-.357 1.247-.557 2.38-.603 3.404 1.429.192 3.025.44 4.837.76 3.037.536 8.265 2.103 15.685 4.692 7.415 2.593 13.716 5.63 18.902 9.116 1.987 1.336 3.814 2.908 5.486 4.705 3.528 1.647 6.731 3.424 9.584 5.341 4.412 2.967 8.039 7.082 10.899 12.315.47-7.387 1.372-15.327 2.715-23.836.805-4.83 1.774-9.472 2.906-13.924-15.357 1.648-26.506 3.738-33.411 6.275C1252.301 974.944 1253.1 970.208 1253.49 966.149zM491.947 909.28c-1.253.18-3.8.762-7.641 1.743-3.846.984-7.641 2.279-11.395 3.888-3.753 1.608-8.043 4.114-12.869 7.507-4.826 3.397-9.25 7.331-13.272 11.797-4.021 4.47-7.955 10.28-11.797 17.427-2.544 4.732-4.748 9.823-6.625 15.258-.001.829-.028 1.599-.085 2.295v3.217c-.573.021-1.132.049-1.698.073-.29.996-.573 2-.843 3.018l.805 4.021c.356.537.712.269 1.072-.804.176-.356.268-.804.268-1.34 8.756-37.355 31.101-60.145 67.028-68.368C494.18 909.012 493.195 909.104 491.947 909.28zM1358.01 909.449c-1.252.18-3.8.763-7.641 1.743-3.846.984-7.641 2.279-11.395 3.888s-8.043 4.114-12.869 7.507c-4.826 3.397-9.25 7.331-13.271 11.797-4.022 4.47-7.955 10.28-11.797 17.427-1.37 2.548-2.639 5.203-3.816 7.955.039.292.086.598.122.886.168 1.384.304 2.672.409 3.865 10.601-29.668 31.669-48.116 63.208-55.334C1360.243 909.181 1359.258 909.273 1358.01 909.449zM1291.786 975.673l.804 4.021c.356.536.712.268 1.073-.804.176-.356.268-.804.268-1.341.356-1.519.743-3.005 1.144-4.476-.886.075-1.763.151-2.627.229C1292.224 974.088 1291.998 974.873 1291.786 975.673z"></path>
</svg>
