<svg xmlns="http://www.w3.org/2000/svg" viewBox="0 0 16 16" id="Date" height="35" width="35">
  <path fill="#f9b2ff" d="M10.999 10.493a5.494 5.494 0 0 1-5.494 5.493 5.494 5.494 0 0 1-5.493-5.493 5.494 5.494 0 0 1 5.493-5.494 5.494 5.494 0 0 1 5.494 5.494z" class="colorc2e4f8 svgShape"></path>
  <path fill="#d724e6" fill-rule="evenodd" d="M5.486 1043.023a.5.5 0 0 0-.492.508v3.325a.5.5 0 0 0 .5.5h3.012a.5.5 0 1 0 0-1H5.994v-2.825a.5.5 0 0 0-.508-.508zm4.018-6.648a.5.5 0 0 0-.492.508v1.996a.5.5 0 1 0 1 0v-1.996a.5.5 0 0 0-.508-.508zm3.992 0a.5.5 0 0 0-.492.508v1.996a.5.5 0 1 0 1 0v-1.996a.5.5 0 0 0-.508-.508z" color="#000" font-family="sans-serif" font-weight="400" overflow="visible" style="line-height:normal;text-indent:0;text-align:start;text-decoration-line:none;text-decoration-style:solid;text-decoration-color:#000;text-transform:none;block-progression:tb;isolation:auto;mix-blend-mode:normal" transform="translate(0 -1036.362)" class="color249fe6 svgShape"></path>
  <path fill="#d724e6" d="M9.012 4.008h.998v.998h-.998zm1.997 0h.998v.998h-.998zm1.996 0h.998v.998h-.998zM11.01 6.005h.998v.998h-.998zm1.996 0h.998v.998h-.998z" class="color249fe6 svgShape"></path>
  <path fill="#d724e6" d="M7.514 1038.373a.5.5 0 0 0-.499.5v1.797c.419-.01.999.384.999.384v-1.682h6.988v4.991H11.31c.282.287.292.656.373.998H15.5a.5.5 0 0 0 .499-.499v-5.99a.5.5 0 0 0-.5-.499z" color="#000" font-family="sans-serif" font-weight="400" overflow="visible" style="line-height:normal;text-indent:0;text-align:start;text-decoration-line:none;text-decoration-style:solid;text-decoration-color:#000;text-transform:none;block-progression:tb;isolation:auto;mix-blend-mode:normal" transform="translate(0 -1036.362)" class="color249fe6 svgShape"></path>
  <path fill="#d724e6" d="M5.493 1041.362A5.5 5.5 0 0 0 0 1046.856a5.499 5.499 0 0 0 5.493 5.493 5.5 5.5 0 0 0 5.494-5.493 5.502 5.502 0 0 0-5.494-5.494zm0 .998a4.489 4.489 0 0 1 4.496 4.496 4.487 4.487 0 0 1-4.496 4.494 4.486 4.486 0 0 1-4.495-4.494 4.487 4.487 0 0 1 4.495-4.496z" color="#000" font-family="sans-serif" font-weight="400" overflow="visible" style="line-height:normal;text-indent:0;text-align:start;text-decoration-line:none;text-decoration-style:solid;text-decoration-color:#000;text-transform:none;block-progression:tb;isolation:auto;mix-blend-mode:normal" transform="translate(0 -1036.362)" class="color249fe6 svgShape"></path>
</svg>
