<svg xmlns="http://www.w3.org/2000/svg" viewBox="0 0 512 512" id="donate" height="40" width= "40">
  <g>
    <path fill="#fbb540" d="M480,280H208V228a12,12,0,0,1,12-12H468a12,12,0,0,1,12,12Z"></path>
    <path fill="#e6af89" d="M207.507,188.1l-17.614,7.045a20.055,20.055,0,0,1-27.114-14.687h0A20.056,20.056,0,0,1,175,157.907l24.511-9.8Z"></path>
    <path fill="#f6bb92" d="M263.507,168,218.35,191.766a17.711,17.711,0,0,1-19.1-3.921h0a17.711,17.711,0,0,1,3.137-27.542l5.76-3.532,88.41-5.626Z"></path>
    <path fill="#fdc9a6" d="M207.507,157.1v-32h80v-38a36,36,0,0,0-14.4-28.8L236.971,31.2a36,36,0,0,0-29.846-6.243L87.507,53.1H32v104H71.507L87.83,170.161a86.445,86.445,0,0,0,54,18.942h0a73.206,73.206,0,0,0,45.729-16.041Z"></path>
    <path fill="#f6bb92" d="M247.507 112.1a8 8 0 0 1-8-8v-19a8 8 0 0 1 16 0v19A8 8 0 0 1 247.507 112.1zM228.792 117.019a7.99 7.99 0 0 1-6.664-3.564L200.851 81.54a8 8 0 0 1 13.313-8.875L235.44 104.58a8 8 0 0 1-6.648 12.439z"></path>
    <path fill="#e82f3e" d="M435.077,148.923,344,240l-91.077-91.077A44.124,44.124,0,0,1,240,117.723h0A44.124,44.124,0,0,1,284.123,73.6h0a44.124,44.124,0,0,1,31.2,12.923L344,115.2l28.677-28.677a44.124,44.124,0,0,1,31.2-12.923h0A44.124,44.124,0,0,1,448,117.723h0A44.124,44.124,0,0,1,435.077,148.923Z"></path>
    <path fill="#ea9d2d" d="M208,280H480a0,0,0,0,1,0,0V476a12,12,0,0,1-12,12H220a12,12,0,0,1-12-12V280A0,0,0,0,1,208,280Z"></path>
    <path fill="#fdc9a6" d="M143.507,189.1h0a68.422,68.422,0,0,0,42.741-14.993L207.507,157.1l80.41-3.946a24.805,24.805,0,0,0,23.59-24.775h0a24.806,24.806,0,0,0-24.378-24.8L143.507,101.1Z"></path>
    <path fill="#d32b39" d="M360 192a8 8 0 0 1-5.657-13.657l8-8a8 8 0 0 1 11.314 11.314l-8 8A7.976 7.976 0 0 1 360 192zM392 160a8 8 0 0 1-5.657-13.657l16-16a8 8 0 0 1 11.314 11.314l-16 16A7.976 7.976 0 0 1 392 160z"></path>
    <path fill="#ea9d2d" d="M416,256H272a8,8,0,0,1,0-16H416a8,8,0,0,1,0,16Z"></path>
    <path fill="#c38325" d="M344.031,421.565a31.959,31.959,0,0,1-19.971-56.917l7.165-5.731L315.11,346.025a8,8,0,0,1,10-12.494l18.926,15.141,18.926-15.141a8,8,0,0,1,10,12.494l-16.115,12.892L364,364.648a31.954,31.954,0,0,1-19.97,56.917Zm0-52.4-9.976,7.981a15.967,15.967,0,0,0-1.316,23.76,15.986,15.986,0,0,0,22.584,0,15.968,15.968,0,0,0-1.317-23.76Z"></path>
    <path d="M468,208H387.314l53.42-53.42A52.124,52.124,0,0,0,367.02,80.866L344,103.887,320.98,80.866a51.722,51.722,0,0,0-30.92-14.921A44.041,44.041,0,0,0,277.907,51.9L241.771,24.8a43.9,43.9,0,0,0-36.479-7.63L86.579,45.1H32a8,8,0,0,0-8,8v104a8,8,0,0,0,8,8H68.7l14.132,11.3a94.777,94.777,0,0,0,59,20.7,8.027,8.027,0,0,0,.839-.045,8.027,8.027,0,0,0,.839.045,76.147,76.147,0,0,0,17.8-2.133,27.908,27.908,0,0,0,21.07,9.639,28.219,28.219,0,0,0,10.49-2.033l8.914-3.566a25.649,25.649,0,0,0,19.543.183c.255-.1,46.3-24.259,46.3-24.259L300.686,208H220a20.023,20.023,0,0,0-20,20V476a20.023,20.023,0,0,0,20,20H468a20.023,20.023,0,0,0,20-20V228A20.023,20.023,0,0,0,468,208ZM338.343,120.857a8,8,0,0,0,11.314,0l28.676-28.676a36.124,36.124,0,0,1,51.087,51.086l-67.075,67.074,0,0L344,228.687,326.263,210.95a8.034,8.034,0,0,0-1.151-1.152l-48.1-48.1,11.293-.555a32.806,32.806,0,0,0-1.041-65.567c-.115,0-.23,0-.345,0l-32.007.824a36.172,36.172,0,0,1,54.751-4.225Zm-261.838,30a8.005,8.005,0,0,0-5-1.752H40v-88H87.507a8.026,8.026,0,0,0,1.833-.213L208.957,32.744A27.93,27.93,0,0,1,232.171,37.6l36.136,27.1a27.951,27.951,0,0,1,2.893,2.5,51.726,51.726,0,0,0-20.6,10.523,8,8,0,0,0-11.1,7.378v5.6a52.494,52.494,0,0,0-3.175,6.185L231.981,97,213.963,72.378a8,8,0,1,0-12.911,9.449l20.492,28a7.974,7.974,0,0,0,6.662,3.273l58.94-1.519a16.806,16.806,0,0,1,.379,33.586l-80.41,3.945a7.965,7.965,0,0,0-4.493,1.66c-.038.029-.073.052-.112.083l-21.26,17.008a60.641,60.641,0,0,1-37.743,13.24,8.028,8.028,0,0,0-.839.044,8.028,8.028,0,0,0-.839-.044,78.719,78.719,0,0,1-49-17.189ZM179.29,188.177a76.28,76.28,0,0,0,8.031-4.905,25.547,25.547,0,0,0,1.525,3.679l-1.925.77A12.043,12.043,0,0,1,179.29,188.177Zm35.761-3.715a9.714,9.714,0,0,1-11.891-13.637l7.324-5.859,44.962-2.206.324.324ZM216,228a4,4,0,0,1,4-4h96.686l16,16H272a8,8,0,0,0,0,16H416a8,8,0,0,0,0-16H355.314l16-16H468a4,4,0,0,1,4,4v44H216ZM472,476a4,4,0,0,1-4,4H220a4,4,0,0,1-4-4V288H472Z"></path>
    <path d="M360 192a7.976 7.976 0 0 0 5.657-2.343l8-8a8 8 0 0 0-11.314-11.314l-8 8A8 8 0 0 0 360 192zM392 160a7.976 7.976 0 0 0 5.657-2.343l16-16a8 8 0 0 0-11.314-11.314l-16 16A8 8 0 0 0 392 160zM312.111 387.845a31.969 31.969 0 1 0 51.89-23.2l-7.164-5.731 16.115-12.892a8 8 0 0 0-10-12.494l-18.926 15.141-18.926-15.141a8 8 0 0 0-10 12.494l16.115 12.892-7.165 5.731A32.008 32.008 0 0 0 312.111 387.845zm15.975.884a15.779 15.779 0 0 1 5.969-11.586l9.976-7.981 9.975 7.981a15.968 15.968 0 0 1 1.317 23.76 15.986 15.986 0 0 1-22.584 0A15.777 15.777 0 0 1 328.086 388.729z"></path>
  </g>
</svg>
