<svg xmlns="http://www.w3.org/2000/svg" enable-background="new 0 0 93 93" viewBox="0 0 93 93" id="faq">
  <circle cx="27.51" cy="77.71" r="4.126" fill="#DFEBF8"></circle>
  <path fill="#FDDDD6" d="M35.47339 39.65829H9.86206c-4.55225 0-8.24243 3.69043-8.24243 8.24268s3.69019 8.24243 8.24243 8.24243h25.61133c4.55225 0 8.24243-3.69019 8.24243-8.24243S40.02563 39.65829 35.47339 39.65829zM83.1377 50.58297H63.67773c-4.55225 0-8.24243 3.69031-8.24243 8.24255s3.69019 8.24255 8.24243 8.24255H83.1377c4.55225 0 8.24268-3.69031 8.24268-8.24255S87.68994 50.58297 83.1377 50.58297zM74.68555 30.23812h7.87842c4.55225 0 8.24243-3.69019 8.24243-8.24243v-.00012c0-4.55212-3.69019-8.24255-8.24243-8.24255h-7.87842c-4.55225 0-8.24268 3.69043-8.24268 8.24255v.00012C66.44287 26.54794 70.1333 30.23812 74.68555 30.23812z"></path>
  <circle cx="8.582" cy="24.145" r="2.512" fill="#FDDDD6"></circle>
  <circle cx="10.492" cy="67.795" r="2.512" fill="#FEF2D8"></circle>
  <g>
    <circle cx="88.202" cy="40.411" r="1.694" fill="#66C190"></circle>
  </g>
  <g>
    <circle cx="53" cy="12.858" r="1.694" fill="#5DCAE7"></circle>
  </g>
  <g>
    <path fill="#FFF" d="M71.41621,69.19693l2.9652,8.51289l-8.15145-4.29368c-2.91227,1.658-6.29184,2.60389-9.88391,2.60389
			c-11.09563,0-20.07582-8.98058-20.07582-20.07595c0-11.08473,8.98019-20.06531,20.07582-20.06531
			c11.08474,0,20.06518,8.98058,20.06518,20.06531C76.41123,61.0242,74.53035,65.65791,71.41621,69.19693z"></path>
    <circle cx="47.903" cy="56.009" r="3.403" fill="#F3765D"></circle>
    <circle cx="56.946" cy="56.009" r="3.403" fill="#F3765D"></circle>
    <circle cx="65.99" cy="56.009" r="3.403" fill="#F3765D"></circle>
    <path fill="#F3765D" d="M18.40625,52.96342l-2.9652,8.51289l8.15145-4.29368c2.91227,1.658,6.29184,2.60389,9.88391,2.60389
				c11.09563,0,20.07582-8.98058,20.07582-20.07595c0-11.08473-8.98019-20.06531-20.07582-20.06531
				c-11.08473,0-20.06518,8.98058-20.06518,20.06531C13.41123,44.7907,15.29212,49.42441,18.40625,52.96342z"></path>
    <path fill="#010101" d="M72.27124,69.35482c3.15015-3.73999,4.88989-8.48999,4.88989-13.40991
				c0-11.47998-9.33984-20.82007-20.81982-20.82007c-0.8501,0-1.68994,0.08008-2.52002,0.18994
				c-2.02002-9.36987-10.37012-16.41992-20.34009-16.41992c-11.47998,0-20.82007,9.33997-20.82007,20.82007
				c0,4.91992,1.73022,9.65991,4.89014,13.40991l-2.82007,8.1001c-0.09985,0.29993-0.01001,0.61987,0.21997,0.81982
				c0.14014,0.12012,0.31006,0.18018,0.49023,0.18018c0.11987,0,0.23975-0.03003,0.34985-0.09009l7.79004-4.09998
				c3.02002,1.64001,6.42993,2.5,9.8999,2.5c0.86011,0,1.69995-0.06995,2.53003-0.17004
				c2.04004,9.36011,10.37012,16.41003,20.33008,16.41003c3.46997,0,6.87988-0.87,9.8999-2.51001l7.79004,4.10999
				c0.68018,0.35999,1.41992-0.40991,1.01001-1.06006L72.27124,69.35482z M33.4812,59.03487c-3.34985,0-6.63989-0.85999-9.51978-2.5
				c-0.22021-0.13-0.49023-0.13-0.72021-0.02002l-6.46997,3.41003l2.34009-6.70996c0.08984-0.26001,0.04004-0.54004-0.14014-0.75
				c-3.09985-3.52002-4.81006-8.05005-4.81006-12.75c0-10.65015,8.66016-19.32007,19.32007-19.32007
				c10.65015,0,19.32007,8.66992,19.32007,19.32007C52.80127,50.36483,44.13135,59.03487,33.4812,59.03487z M66.5813,72.75484
				c-0.11011-0.05994-0.22998-0.08997-0.3501-0.08997c-0.12988,0-0.26001,0.03003-0.36987,0.09998
				c-2.88013,1.64001-6.16992,2.51001-9.52002,2.51001c-9.20996,0-16.91016-6.48999-18.83008-15.14001
				c9.56006-1.88,16.79004-10.32007,16.79004-20.41992c0-1-0.08984-1.97009-0.22998-2.92017
				c0.75-0.09985,1.5-0.16992,2.27002-0.16992c10.65991,0,19.31982,8.66992,19.31982,19.32007
				c0,4.69995-1.70996,9.22998-4.80981,12.76001c-0.17993,0.19995-0.22998,0.47998-0.13989,0.73999l2.33984,6.70996
				L66.5813,72.75484z"></path>
    <g>
      <circle cx="33.482" cy="39.696" r="15.25" fill="#FFF"></circle>
    </g>
    <g>
      <path fill="#F3765D" d="M33.48193,43.71493c-0.55225,0-1-0.44775-1-1v-3.56348c0-0.55225,0.44775-1,1-1
				c1.36279,0,2.47119-1.1084,2.47119-2.47119s-1.1084-2.47168-2.47119-2.47168s-2.47168,1.10889-2.47168,2.47168
				c0,0.55225-0.44775,1-1,1s-1-0.44775-1-1c0-2.46582,2.00586-4.47168,4.47168-4.47168c2.46533,0,4.47119,2.00586,4.47119,4.47168
				c0,2.12158-1.48584,3.90283-3.47119,4.3584v2.67627C34.48193,43.26717,34.03418,43.71493,33.48193,43.71493z"></path>
    </g>
    <g>
      <circle cx="33.551" cy="46.277" r="1.26" fill="#F3765D"></circle>
    </g>
  </g>
</svg>
