<svg xmlns="http://www.w3.org/2000/svg" width="300" height="30" viewBox="0 0 330.443 373.417" id="happy-woman">
  <g>
    <g>
      <g>
        <path fill="#fefefe" d="M163.823 368.671c-.15-1.15-.494-2.509-1.004-4.048.104-.101.165-.208.18-.32l-1.902-6.058-2.145-8.455-.49-2.396-5.156-18.81c-.614-1.387-1.201-2.3-1.762-2.759-.517-2.239-.982-4.099-1.393-5.555-.275-1.075-.635-2.061-1.061-2.977-.019-.187-.036-.375-.077-.555-.926-4.091-2.468-9.813-4.624-17.166l-10.038-32.002c-.543-.855-1.044-1.619-1.507-2.298-1.452-6.495-2.437-10.41-2.954-11.745-.339-1.175-.937-2.882-1.792-5.12-.209-.823-.791-1.668-1.729-2.533-.292-.841-.814-2.121-1.578-3.864-.023-.017-.404-1.174-1.143-3.47l-.891-3.921c-.26-1.581-.467-2.669-.623-3.263-.148-.629-.352-1.196-.613-1.702-.29-.586-.611-1.009-.958-1.3l.423-.404c-.259.039-.542.091-.809.134-.638-.319-1.362-.191-2.172.38-5.559 1.049-12.538 2.889-20.973 5.538l-17.952 6.696c-2.341.872-4.648 1.963-6.925 3.262-.022 0-.043-.005-.066-.005-1.848.119-4.556.886-8.125 2.299-1.502.746-2.856 1.558-4.095 2.421-6.744 2.815-13.889 5.526-21.487 8.119-9.898 4.145-15.029 6.977-15.392 8.494-.319.478-.519 1.103-.605 1.866-1.104.852-2.229 1.748-3.389 2.725-.701.413-2.911 3.003-6.629 7.769-2.771 4.253-4.428 7.328-4.973 9.224-1.895 7.137-3.352 13.638-4.371 19.505.043.969.131 1.812.252 2.558-.478 1.503-.83 3.309-1.038 5.456-.713 8.771-.977 13.058-.792 12.864.27 4.285.329 9.926.177 16.922.049.777.194 1.303.434 1.579 5.13 2.664 16.183 6.149 33.158 10.455 2.361.197 4.03.133 5.028-.183 3.503.953 7.679 2.073 12.579 3.373 13.526 2.542 23.967 4.913 31.323 7.113 1.151.311 2.771.122 4.846-.551l19.73 3.683c5.94 1.098 9.928 1.609 11.965 1.536 2.159.207 4.089-.157 5.803-1.06 1.596.178 3.104.326 4.502.439.158-.014 1.932.321 5.323 1.005 2.991.256 4.587.365 4.789.327.601.008 1.142.005 1.656-.005.067.003.128.005.198.008 3.87-.052 7.541.026 11.011.234 2.75.628 4.828.987 6.233 1.078 1.958.057 3.291-.18 3.999-.711.535-.36.757-.787.667-1.281l-1.045-2.543ZM329.787 339.838c-.112-.555-.574-.966-1.346-1.25.017-.464.031-.946.042-1.466l-.119-3.704.147-15.89c.202.068-.507-6.3-2.126-19.106-.545-3.149-.867-4.722-.964-4.721-.409-1.198-.781-2.267-1.119-3.223-.139-.718-.297-1.452-.487-2.212-.393-.759-.784-1.494-1.174-2.223-.303-.72-.514-1.133-.631-1.223-.054-.085-.11-.154-.165-.234-6.792-12.322-13.352-19.923-19.678-22.773-10.057-5.605-16.973-8.525-20.749-8.759-.14.004-.258.021-.394.027l-15.151-6.5-11.216-5.421c-1.045-.292-2.129-.419-3.251-.382-2.155-.535-4.905-1.399-8.269-2.603l-13.046-4.921c-1.412-.315-2.601-.574-3.582-.782-1.025-1.15-2.289-1.939-3.809-2.34-3.168-.878-6.565-1.446-10.189-1.706-.929-.094-1.664.337-2.206 1.29-.872 1.568-1.44 2.758-1.704 3.57l-10.411 30.927c-1.547 3.631-2.623 6.411-3.227 8.34l-6.992 24.368c-3.549 8.963-5.423 14.029-5.622 15.197-.517 2.279-.717 3.881-.617 4.835l-3.674 10.947c-1.241 5.25-2.096 9.269-2.579 12.099-.396 1.017-.841 2.257-1.338 3.732-.514 1.922-1.032 4.3-1.556 7.116l-7.046 20 .884.356c-.053.118-.099.225-.153.345l.223-.317.892.359 5.337-.366c.948.676 2.07 1.06 3.368 1.151l7.659.349c.547.01 1.117-.024 1.709-.102 2.075-.327 3.508-.723 4.3-1.19.011-.007.02-.014.03-.022l2.171-.132c2.133-.17 4.218-.322 6.253-.456 1.171-.122 1.999-.215 2.49-.28.473.086.981.157 1.567.196 6.143.047 10.181-.044 12.117-.273 1.701-.209 4.46-.456 8.276-.739 1.161-.246 4.454-.637 9.879-1.175l5.123-.763c4.95-.804 8.173-1.769 9.688-2.893 1.536-.002 3.266.009 5.214.034.853.006 2.3-.146 4.34-.456 7.774-1.584 13.443-2.585 17.005-3.004 3.812-.655 5.786-1.113 5.923-1.374 1.132-.486 2.095-.983 2.894-1.488.46-.078.893-.156 1.275-.236 3.462-.824 7.157-1.604 11.084-2.34l11.905-3.881c12.116-2.271 19.144-4.01 21.083-5.217 1.886-.41 2.456-2.775 1.71-7.095ZM172.201 197.049c.228.004.44.017.685.01 3.063-.076 5.167-.212 6.309-.409 6.762-1.487 11.522-2.319 14.282-2.495.219.051 1.213-.373 2.983-1.271.28-.107.388-.642.325-1.603-.652-3.279-1.023-7.135-1.114-11.568-.037-.628.042-2.22.238-4.776-.054-.678-.238-1.007-.553-.985-.129.01-.343.246-.642.708-.938 2.085-1.586 3.321-1.943 3.707-2.287 3.202-3.414 4.708-3.38 4.52-1.878 1.83-3.739 3.445-5.582 4.846-.213.244-1.448.939-3.704 2.085l-10.89 3.389c-.19-.082-.459-.145-.817-.186-.816.049-2.687-.101-5.612-.449l-11.062-2.635c-.609-.212-1.31-.568-2.101-1.067l-5.029-3.365c-.136-.368-.284-.752-.452-1.167-.145-.263-.326-.489-.544-.678-.599-.275-1.072-.607-1.419-.996-1.143-1.15-1.934-2.018-2.372-2.606-1.53-2.124-2.896-4.361-4.101-6.71l-.838-2.203c-.48 1.23-.71 2.272-.69 3.125l-.216 5.728c-.021.537-.011 1.37.029 2.5-.135 1.977-.173 3.913-.113 5.808.011.122-.042.554-.159 1.297 0 .19.024.341.074.454.824 1.065 2.87 1.985 6.137 2.76 1.372.32 2.491.549 3.37.691.403.292.86.554 1.424.755-.118.112 3.243.867 10.083 2.265 1.41.248 2.651.421 3.723.52 1.728.065 3.544.195 5.451.39 1.384-.055 3.26-.026 5.629.089 1.635-.071 2.498-.23 2.591-.477Z"></path>
        <path fill="#fefefe" d="m76.263,109.659l3.219,6.174c1.08,2.112,3.375,4.108,6.884,5.987.99.647,3.853,1.398,8.589,2.252,1.177.23,2.148.228,2.914-.006,2.558-.088,4.5-1.983,5.829-5.685l-.019-.174c.341.793.756,1.857,1.243,3.181-.12.624-.174,1.255-.136,1.896l7.764,19.172,10.31,14.808c3.404,5.225,10.713,11.226,21.927,18.002,3.846,2.042,7.679,3.285,11.499,3.729.385-.046.739-.108,1.084-.174.438.152.881.28,1.33.382,7.797,1.21,13.794,1.211,17.99.006,6.611-2.256,11.486-4.467,14.625-6.631,2.123-1.228,3.183-1.874,3.18-1.937l7.546-6.005c.828-.473,1.444-1.562,1.854-3.251.095-.085.2-.165.292-.251,7.519-8.521,12.481-15.417,14.885-20.686,3.227-6.24,5.762-13.024,7.606-20.353.016-.831-.067-1.598-.244-2.305.163-.535.313-1.06.451-1.576l1.345,5.564c.282.982.632,1.66,1.051,2.035,1.823,2.061,6.079,1.686,12.768-1.126,5.15-1.983,9.321-6.272,12.512-12.868,1.636-4.535,2.325-7.117,2.067-7.746-.469-3.765-1.18-6.749-2.133-8.954-.66-1.877-2.462-3.602-5.406-5.176-3.254-1.007-6.359-1.14-9.314-.398-1.444.207-2.821.967-4.132,2.28-1.853,1.562-3.543,3.055-5.088,4.487-.011-.121-.027-.235-.042-.35l.094-.218c.226-.602.321-1.248.286-1.938-1.761-5.418-5.169-10.921-10.226-16.51-6.152-5.171-9.754-7.886-10.807-8.145-3.808-1.806-7.825-3.341-12.051-4.603-3.029-.926-6.635-1.688-10.812-2.289-.055-.083-.11-.165-.17-.234l-9.772-1.426c-11.125-2.826-17.349-4.583-18.674-5.27-.918-.34-2.16-.92-3.724-1.742l-4.846-3.114c-4.063-1.877-6.983-3.523-8.759-4.939-1.954-.983-2.945-1.429-2.972-1.339-.235.022-.446.064-.647.115-.793-.724-1.637-1.486-2.572-2.313-3.293-2.371-5.041-3.505-5.242-3.402-.307,1.702-.545,5.638-.714,11.806-.148,1.536-.371,3.125-.667,4.766-1.033,4.209-1.546,6.157-1.541,5.844l-3.101,7.972c-.163.396-.284.982-.364,1.756-.105.369-.147.715-.149,1.045-1.436,2.707-2.543,4.644-3.313,5.786-2.146,2.899-3.275,4.38-3.388,4.44l-7.561,8.459c-1.776,1.697-4.029,3.265-6.76,4.706-.463.334-.973.825-1.525,1.458-1.363-1.82-3.601-3.62-6.737-5.399-2.757-1.514-6.372-1.971-10.843-1.37-6.122,2.155-8.844,7.11-8.167,14.865.683,4.114,1.173,6.424,1.471,6.93Z"></path>
      </g>
      <g>
        <path d="m330.433,335.843v-.02l-.11-5.14v-.02s-.21-5.137-.21-5.137v-.02s-.31-5.132-.31-5.132v-.02s-.392-4.931-.392-4.931l-.002-.02-.482-4.923-.002-.019-.574-4.913-.002-.019-.666-4.902-.003-.019-.756-4.888-.003-.019-.847-4.874c-.007-.042-.033-.074-.044-.114-.009-.053-.001-.105-.019-.157l-.736-2.256-.016-.045-.839-2.22-.018-.044-.94-2.179-.02-.043-1.039-2.133-.022-.043-1.136-2.084-.024-.042-1.23-2.029-.025-.04-1.322-1.971-.028-.039-1.411-1.908-.029-.037-1.479-1.82-.031-.036-1.559-1.751-.032-.034-1.637-1.678-.034-.033-1.711-1.602-.035-.031-1.782-1.523-.037-.03-1.85-1.441-.038-.028-1.913-1.355-.039-.026-1.972-1.268c-.011-.007-.024-.007-.036-.014-.083-.083-.176-.159-.289-.211l-6.734-3.113c.201-4.673.343-9.493-3.643-17.702-2.148-4.423-5.492-9.828-9.272-15.654-1.606-2.476-3.266-4.988-4.981-7.585-1.784-2.701-3.54-5.359-5.321-8.104l-.004-.006v.002c-7.522-11.594-14.415-23.099-17.566-34.162-2.193-7.699-2.586-15.23-2.648-22.336-.014-1.593-.011-3.084-.009-4.631.002-1.467.004-2.905-.008-4.323-.083-9.512-.824-17.674-1.565-25.795,1.319-1.482,2.526-3.136,3.479-4.951,1.695-3.228,2.579-6.902,2.628-10.629.049-3.693-.719-7.61-2.934-10.43-1.833-2.332-4.582-3.802-7.503-4.336-1.689-8.286-3.401-16.637-6.302-25.745-2.934-9.209-7.099-19.245-14.923-29.262-7.8-9.988-19.249-19.971-30.801-25.457-1.475-.7-2.949-1.321-4.418-1.881-.391-.155-.773-.297-1.142-.419-9.067-3.253-17.848-4.037-24.829-4.037-.456,0-.917.004-1.355.01-8.586.121-14.214,1.321-19.892,3.393-2.751,1.004-5.516,2.216-8.037,3.493-.793.279-1.64.731-2.541,1.361-1.609.907-3.068,1.823-4.261,2.699-3.434,2.523-4.773,4.725-5.972,6.823-.628-.101-1.303-.198-2.055-.198-2,0-4.299.643-7.624,2.91-4.884,3.331-12.22,10.332-17.3,18.796-5.087,8.476-7.885,18.373-9.556,26.516-1.674,8.16-2.233,14.637-2.788,21.068v.01c-.005.046.012.087.014.132-2.546.664-4.891,2.058-6.516,4.125-2.216,2.82-2.984,6.737-2.935,10.43.05,3.727.933,7.4,2.628,10.629,1.43,2.721,3.422,5.093,5.523,7.035l-.007.036c-.765,3.812-1.526,7.725-2.199,18.844-.068,1.122-.135,2.316-.205,3.57-.081,1.437-.157,2.812-.252,4.382-.66,10.903-1.833,24.706-5.62,35.646-3.931,11.356-10.7,19.69-17.561,28.123h0c-1.457,1.79-2.985,3.669-4.417,5.496-8.174,10.426-15.368,21.775-19.043,29.52-3.512,7.401-3.823,11.549-3.949,15.457l-.543.251c-.113.052-.205.129-.289.211-.011.007-.024.007-.035.014l-1.972,1.268-.039.026-1.913,1.355-.038.028-1.849,1.441-.037.03-1.782,1.523-.036.031-1.711,1.602-.034.033-1.637,1.678-.033.034-1.559,1.751-.031.036-1.478,1.82-.029.037-1.411,1.908-.028.039-1.322,1.971-.026.04-1.23,2.029-.024.042-1.136,2.084-.021.043-1.039,2.133-.02.043-.94,2.179-.018.044-.839,2.22-.016.045-.737,2.256c-.017.052-.01.104-.018.156-.012.04-.038.073-.045.115l-.848,4.874-.003.019-.756,4.888-.003.019-.666,4.902-.002.019-.574,4.913-.002.019-.482,4.923-.002.02-.391,4.931v.02s-.31,5.132-.31,5.132v.02s-.21,5.137-.21,5.137v.02s-.11,5.14-.11,5.14v.02s-.011,5.142-.011,5.142v.02l.089,5.141c0,.049.023.091.03.138.002.031.014.059.02.089.019.075.033.15.067.217.117.284.342.52.658.616l22.199,6.741.045.013,22.475,5.755.045.011,22.707,4.758.046.009,22.895,3.752.046.006,23.038,2.739.047.005,23.136,1.72.047.002,4.157.125c.171.05.349.057.526.016l18.506.557h.047s23.198-.325,23.198-.325l.044-.002,21.093-1.187.042-.003,21.028-2.033.042-.005,20.93-2.876.042-.007,20.797-3.714.042-.008,20.631-4.547.041-.01,20.432-5.372.041-.012,20.062-6.146s.001,0,.002,0c.577.01,1.052-.449,1.062-1.026l.089-5.141v-.02l-.011-5.142ZM102.089,107.677l-.589-4.118-.434-4.139-.212-3.164c.188-.013.375-.058.539-.175l2.845-2.031.045-.034,2.73-2.183.044-.037,2.607-2.327.042-.039,2.478-2.465.04-.041,2.34-2.596.037-.043,2.196-2.719.035-.045,1.404-1.946c1.491-.251,3.211-.497,5.468-.675h.01c2.976-.235,6.88-.345,9.998-.345.105,0,.127,0,.23,0h.002c3.141.006,5.444.128,7.615.314h.012c2.181.188,4.257.441,6.002.778,1.742.337,3.212.769,4.707,1.209.554.163,1.135-.153,1.298-.707.054-.183.039-.363-.003-.535-.154-1.385-.33-2.978-.868-4.199v-.002c-.606-1.371-1.627-2.22-3.085-2.78h0c-1.396-.536-3.251-.83-5.57-1.032-2.344-.204-5.255-.324-8.26-.337h0c-.067,0-.547-.001-.613-.001-2.794,0-5.645.087-7.767.17-1.815.072-3.176.144-4.431.32l1.157-2.322.024-.051,1.366-3.156.021-.052,1.195-3.225.018-.053,1.022-3.284.015-.054.845-3.334.012-.055.666-3.374.009-.055.485-3.405.006-.056.302-3.426.003-.056.119-3.437v-.056s-.064-3.439-.064-3.439l-.002-.056-.107-1.482,3.509,2.622.035.025,4.135,2.835.036.023,4.246,2.665.037.022,4.351,2.49.038.02,4.449,2.312.038.019,4.539,2.129.039.017,4.621,1.943.04.016,4.647,1.737.04.014,4.713,1.549.041.012,4.771,1.358.041.011,4.822,1.165.041.009,4.865.971.042.007,4.9.775.042.006,4.83.566c.065.026.124.064.195.076l2.384.415,2.337.537,2.299.659,2.262.782,2.218.902,2.163,1.017,2.112,1.135,2.044,1.244,1.975,1.351,1.898,1.453,1.893,1.619,1.793,1.716,1.702,1.82,1.593,1.905,1.487,1.994,1.375,2.074,1.255,2.142,1.136,2.212,1.012,2.273.644,1.693-.105,3.611-.278,4.153-.434,4.138-.588,4.118-.742,4.09-.896,4.06-1.048,4.027-1.355,4.467-1.542,4.404-1.724,4.332-1.908,4.26-2.084,4.174-2.258,4.083-2.427,3.981-2.541,3.799c-.034.035-.076.057-.105.098l-1.029,1.434-1.058,1.394-1.094,1.365-1.126,1.331-1.172,1.313-1.193,1.267-2.103,2.078-2.187,1.976-2.279,1.881-2.358,1.774-2.433,1.665-2.51,1.557-2.531,1.418-1.437.637-1.437.594-1.471.565-1.464.52-1.493.488-1.494.446-2.036.543-2.043.471-2.063.402-2.066.33-2.095.262-2.103.19c-.083.007-.153.043-.229.068-.075-.025-.146-.061-.229-.068l-2.103-.19-2.095-.262-2.066-.33-2.063-.402-2.043-.471-2.036-.543-1.494-.446-1.493-.488-1.464-.52-1.47-.565-1.437-.594-1.437-.638-2.531-1.417-2.51-1.557-2.433-1.665-2.358-1.774-2.279-1.881-2.186-1.975-2.104-2.079-1.193-1.267-1.171-1.311-1.127-1.332-1.094-1.365-1.058-1.394-1.029-1.434c-.029-.041-.072-.063-.106-.098l-2.541-3.799-2.426-3.981-2.258-4.082-2.085-4.175-1.908-4.262-1.725-4.332-1.541-4.403-1.355-4.467-1.048-4.027-.896-4.06-.742-4.09Zm32.887,73.434l.238-5.891v-.019s.041-1.767.041-1.767l.999,2.293.036.074,1.181,2.214.042.071,1.353,2.114.047.068,1.515,2,.052.064,1.668,1.874.058.06,1.812,1.736.062.055,1.943,1.587.066.05,2.062,1.429.07.044,2.169,1.261.073.039,2.262,1.086.076.033,2.341.903.079.027,2.404.715.08.021,2.454.523.082.014,2.488.327.082.008,2.506.129h.083s2.508-.068,2.508-.068l.081-.005,2.375-.25.078-.011,2.35-.428.077-.017,2.311-.604.075-.023,2.259-.776.073-.028,2.194-.943.071-.034,2.117-1.106.068-.039,2.027-1.262.065-.044,1.926-1.411.062-.049,1.814-1.552.058-.053,1.692-1.685.054-.057,1.562-1.807.049-.061,1.421-1.92.044-.065,1.272-2.021.039-.068,1.116-2.111.014-.029.218,5.389v.019s.345,5.886.345,5.886v.019s.384,5.011.384,5.011l-2.398.748-3.962,1.045-4.008.869-4.048.691-4.064.509-4.089.328-4.104.146-4.1-.036-4.083-.218-4.08-.4-4.051-.579-4.022-.759-3.979-.935-3.947-1.114-3.883-1.285-2.172-.827c-.248-.141-.49-.277-.746-.426-.013-.005-.024-.008-.038-.013l.21-2.754v-.019s.345-5.886.345-5.886v-.019Zm60.983,13.237c-.018,0-.035-.001-.053-.001l.175-.055c-.04.018-.083.038-.122.056Zm56.52-101.918c1.8,2.291,2.534,5.656,2.488,9.111-.045,3.421-.856,6.767-2.389,9.685-1.536,2.924-3.817,5.46-6.185,7.442h-.001c-2.353,1.971-4.725,3.337-7.521,4.103-1.539.421-3.21.661-4.711.661-1.262,0-2.339-.169-3.115-.489-1.606-.662-2.211-2.09-2.967-4.048l.666-2.556.009-.038.904-4.1.008-.039.75-4.131.006-.039.594-4.156.005-.039.045-.435c.658-.421,1.346-.851,2.431-1.452.069.044.132.097.213.124l.451.154.426.169.416.189.408.209.392.226.38.244.375.267.358.283.34.296.325.311.3.317.295.342.273.349.256.361.24.375.221.384.203.394.195.429c.24.525.859.756,1.384.517s.756-.859.517-1.384l-.205-.449-.021-.044-.226-.439-.024-.043-.246-.428-.026-.042-.266-.416-.028-.041-.286-.403-.029-.04-.305-.389-.031-.038-.322-.374-.033-.036-.34-.358-.035-.035-.356-.342-.037-.034-.381-.332-.039-.032-.397-.314-.04-.03-.412-.294-.042-.028-.426-.274-.043-.026-.438-.253-.044-.024-.45-.231-.045-.022h-.001c1.685-.84,3.689-1.731,5.405-2.158,1.054-.262,2.008-.352,2.923-.352.938,0,1.845.095,2.792.201h.002s.133.015.133.015c.571.064,1.088-.349,1.152-.922s-.349-1.09-.922-1.154h-.002s-.133-.015-.133-.015h.002c-.94-.105-1.957-.214-3.023-.214s-2.185.104-3.428.414c-2.509.625-5.436,2.08-7.303,3.071-.899.477-1.577.86-2.145,1.196l.117-1.114.003-.039.218-3.258c.066-.062.136-.118.186-.198,1.182-1.906,2.262-3.629,4.354-5.038h0c2.021-1.362,4.997-2.435,7.935-2.435.174,0,.319.003.491.01h0c3.083.128,6.044,1.487,7.836,3.767Zm-174.613,18.796c-1.533-2.918-2.344-6.264-2.389-9.685-.046-3.456.688-6.82,2.488-9.111,1.792-2.28,4.754-3.639,7.836-3.767h0c.172-.007.317-.01.491-.01,2.938,0,5.914,1.073,7.935,2.435h0c2.091,1.409,3.172,3.133,4.354,5.039.049.08.12.136.186.198l.218,3.258.003.039.117,1.114c-.568-.336-1.246-.719-2.145-1.196-1.867-.99-4.793-2.446-7.303-3.071-1.243-.31-2.366-.414-3.428-.414s-2.083.109-3.023.214h.002s-.133.014-.133.014h-.002c-.573.064-.986.581-.922,1.155.064.573.581.986,1.152.922l.134-.015h.002c.946-.106,1.854-.201,2.791-.201.915,0,1.87.09,2.923.352,1.716.427,3.72,1.318,5.405,2.158h-.001s-.045.023-.045.023l-.45.231-.044.024-.438.253-.043.026-.426.274-.042.028-.412.294-.04.03-.397.314-.039.032-.382.332-.037.034-.356.342-.035.035-.34.358-.033.036-.323.374-.031.038-.304.389-.03.04-.286.403-.028.041-.266.416-.025.042-.247.428-.023.043-.226.439-.021.044-.205.449c-.24.525-.008,1.145.517,1.384s1.145.008,1.384-.517l.196-.429.203-.394.221-.384.24-.375.257-.361.273-.349.295-.342.301-.317.324-.311.34-.296.358-.283.375-.267.38-.244.392-.226.408-.209.416-.189.426-.169.451-.154c.081-.028.144-.08.213-.124,1.085.601,1.773,1.031,2.431,1.452l.045.436.005.039.594,4.156.006.039.75,4.131.008.039.904,4.1.009.038.666,2.557c-.756,1.958-1.361,3.386-2.967,4.048-.775.319-1.853.489-3.115.489-1.5,0-3.172-.24-4.711-.661-2.796-.766-5.168-2.132-7.521-4.101h-.001c-2.367-1.983-4.649-4.519-6.185-7.443Zm36.718,257.658l-22.985-2.733-22.854-3.746-22.655-4.748-22.432-5.745-21.49-6.526-.077-4.409.01-5.12.109-5.122.208-5.113.308-5.116.389-4.906.481-4.908.572-4.894.663-4.886.753-4.862.846-4.867s0-.005,0-.008l.72-2.205.822-2.175.922-2.136,1.015-2.085,1.115-2.046,1.204-1.986,1.296-1.932,1.384-1.871,1.445-1.778,1.534-1.722,1.597-1.637,1.684-1.577,1.74-1.487,1.816-1.415,1.873-1.327,1.952-1.255c.043-.028.068-.07.105-.102l.907-.419c.138-.034.262-.09.373-.172l7.772-3.592,9.148-4.023,9.236-3.859,9.296-3.681,9.37-3.51-.018.007,8.887-3.147,8.93-2.987,8.976-2.829,9.04-2.676-.018.005,6.071-1.682-1.8,1.745-.014.013-4.441,4.463-.013.014-4.36,4.542-.013.014-4.278,4.619-.013.014-4.194,4.695-.013.014-4.11,4.769-.009.011-2.294,2.739-.007.008-2.266,2.762-.007.008-2.238,2.785-.006.008-2.21,2.808-.006.008-2.181,2.83c-.046.06-.065.13-.097.196-.021.044-.05.083-.064.13-.096.302-.05.626.125.891l7.413,14.27.007.013,7.664,14.268.007.013,7.861,14.161.007.013,8.056,14.051.007.013,8.25,13.938.006.009,3.867,6.386.003.006,3.908,6.361.003.006,3.949,6.336.003.006,3.989,6.311.003.006,2.914,4.545-2.355-.071-23.095-1.717Zm28.005,1.865l-3.693-5.761.003.006-3.989-6.311.003.006-3.948-6.336.003.006-3.905-6.356-3.867-6.385-8.241-13.922-8.049-14.039-7.85-14.141-7.66-14.261-7.152-13.769,1.758-2.282-.006.008,2.208-2.806,2.227-2.772,2.266-2.761-.007.008,2.285-2.728,4.106-4.765,4.179-4.678,4.269-4.608,4.351-4.532-.013.014,4.435-4.456,4.092-3.967,2.589,7.36-.002-.005,2.833,8.182-.002-.005,2.791,8.196-.002-.005,2.75,8.21-.002-.005,2.708,8.224-.003-.009,6.544,20.474,6.289,20.557,6.03,20.629-.003-.013,5.774,20.713-.003-.013,5.203,19.605-3.071.043-18.227-.549Zm41.382.223l-16.343.23,5.189-19.553-.003.013,5.774-20.713-.003.013,6.03-20.629,6.289-20.557,6.544-20.474-.003.009,2.708-8.224-.002.005,2.75-8.21-.002.005,2.791-8.196-.002.005,2.833-8.182-.002.005,2.092-5.948,2.635,2.554,4.433,4.455,4.337,4.518,4.27,4.61,4.18,4.678,4.104,4.762,2.28,2.723,2.265,2.761,2.229,2.775,2.2,2.796,1.758,2.281-7.154,13.772-7.658,14.257-7.85,14.141-8.05,14.039-8.241,13.922-3.867,6.385-3.905,6.356.004-.006-3.949,6.336.004-.006-3.989,6.311.004-.006-3.73,5.818-2.949.166Zm124.66-19.689l-20.395,5.362-20.591,4.538-20.753,3.706-20.889,2.87-20.981,2.028-15.502.872,2.906-4.533.004-.006,3.989-6.311.004-.006,3.948-6.336.003-.006,3.908-6.361.003-.006,3.868-6.386.005-.009,8.25-13.938.007-.013,8.056-14.051.007-.013,7.861-14.161.007-.013,7.664-14.268.007-.013,7.412-14.27c.174-.265.221-.589.125-.891-.014-.047-.044-.086-.065-.131-.031-.066-.05-.135-.096-.195l-2.181-2.83-.007-.008-2.209-2.808-.006-.008-2.238-2.785-.007-.008-2.266-2.762-.007-.008-2.294-2.739-.01-.011-4.11-4.769-.012-.014-4.195-4.695-.013-.014-4.278-4.619-.013-.014-4.36-4.542-.013-.014-4.441-4.463-.013-.013-2.159-2.093,7.328,2.03-.018-.005,9.04,2.676,8.976,2.829,8.929,2.987,8.888,3.148-.018-.007,9.37,3.51,9.296,3.681,9.235,3.858,9.15,4.024,9.051,4.183c.038.032.062.074.105.102l1.952,1.255,1.874,1.327,1.815,1.415,1.74,1.487,1.684,1.577,1.597,1.637,1.534,1.722,1.445,1.778,1.383,1.871,1.295,1.931,1.205,1.987,1.115,2.046,1.016,2.085.921,2.136.823,2.175.72,2.205s0,.006,0,.009l.847,4.87.752,4.859.664,4.886.572,4.894.481,4.908.389,4.906.308,5.112.208,5.116.109,5.122.011,5.12-.075,4.286-19.648,6.019Z"></path>
        <path d="m197.771 86.21-.046-.357-.017-.094-.079-.351-.025-.092-.111-.342-.034-.09-.142-.331-.042-.086-.171-.316-.05-.082-.2-.299-.057-.078-.227-.279-.062-.071-.251-.258-.07-.066-.273-.234-.076-.059-.294-.208-.081-.052-.312-.18-.085-.044-.327-.15-.088-.036-.339-.12-.092-.028-.349-.088-.094-.019-.355-.056-.095-.011-.359-.023-.096-.002-.359.01-.095.007-.357.043c-.057.007-.102.036-.155.051-.055.005-.108-.005-.163.009l-.348.091-.091.029-.338.122-.089.037-.325.153-.085.045-.31.182-.08.052-.292.21-.075.06-.271.236-.07.066-.249.26-.063.072-.224.281-.056.078-.197.301-.049.083-.169.317-.041.086-.139.332-.033.09-.108.343-.024.092-.077.351-.016.095-.043.357-.007.095-.011.359v.096s.023.359.023.359l.01.096.055.355.019.094.087.349.027.092.119.339.036.089.149.327.044.086.179.312.051.08.207.295.059.076.232.274.065.07.257.252.071.064.278.227.077.057.298.201.082.05.315.173.086.042.33.143.089.034.341.112.093.026.351.08.094.017.356.048.095.008.359.015h.097s.359-.018.359-.018l.094-.009.356-.05.095-.018.35-.083.092-.026.341-.115.089-.034.329-.145.086-.043.314-.175.081-.05.297-.203.077-.058.277-.229.072-.065.255-.254.064-.07.231-.276.058-.077.204-.296.051-.081.176-.314.043-.085.147-.328.035-.089.116-.341.027-.092.084-.35.018-.094.052-.356.01-.095.019-.359v-.096s-.013-.36-.013-.36l-.008-.096ZM128.627 86.865l.01.095.055.354.019.093.087.348.027.092.119.339.035.088.148.327.044.085.178.312.051.081.206.294.058.076.231.274.065.07.256.252.071.064.278.227.076.057.297.201.081.05.314.173.086.043.329.144.088.034.34.113.092.026.35.082.094.017.355.049.095.009.358.017h.095l.358-.016.096-.009.355-.049.093-.017.35-.081.091-.025.333-.11.087-.033.322-.139.084-.041.309-.167.08-.048.292-.194.076-.055.274-.219.07-.062.253-.243.064-.068.23-.265.058-.073.206-.284.052-.078.18-.301.044-.083.152-.316.037-.086.123-.328.029-.088.093-.338.021-.091.063-.345.013-.092.032-.35.004-.094v-.351s-.003-.093-.003-.093l-.031-.35-.012-.092-.062-.345-.021-.091-.092-.339-.028-.088-.122-.329-.037-.086-.151-.317-.044-.082-.179-.302-.051-.078-.205-.285-.058-.073-.229-.265-.064-.068-.252-.244-.07-.061-.273-.22-.075-.055-.292-.195-.08-.049-.308-.168-.084-.041-.322-.14-.087-.033-.333-.111-.09-.025-.341-.081-.092-.017-.347-.05-.093-.009-.35-.019h-.094s-.351.012-.351.012l-.092.007-.348.044c-.055.007-.099.036-.15.051-.057.006-.112-.004-.168.011l-.347.094-.088.028-.337.124-.088.037-.324.154-.084.045-.308.183-.08.052-.291.211-.074.059-.27.236-.069.067-.247.26-.063.072-.222.281-.056.077-.196.3-.048.082-.167.317-.041.086-.138.331-.033.09-.107.342-.024.092-.076.351-.016.094-.043.356-.007.095-.01.359v.096s.023.358.023.358Z"></path>
        <polygon points="215.288 80.136 215.287 80.136 215.286 80.136 215.288 80.136"></polygon>
        <polygon points="176.118 75.366 176.097 75.411 176.097 75.41 176.118 75.367 176.118 75.366"></polygon>
        <path d="m175.225,80.147c.163.553.744.87,1.297.707,1.495-.44,2.965-.873,4.708-1.209,1.745-.337,3.822-.59,6.002-.777h.012c2.171-.187,4.475-.309,7.616-.315h.001c.103,0,.125,0,.23,0,3.118,0,7.022.11,9.998.344h.01c3.016.239,5.076.599,6.907.928,0,0,.003,0,.005,0,.019.003.039.007.058.01h0c.067.012.15.027.105.019.894.16,1.853.335,2.532.335.176,0,.387-.013.58-.052.084-.017.175-.042.265-.075h.002c.757-.28,1.076-1.034.8-1.781-.02-.052-.034-.086-.053-.128v-.004c-.517-1.132-2.871-3.074-4.555-4.18-1.893-1.243-3.423-1.762-4.987-2.065h-.004c-1.53-.296-3.094-.384-5.365-.474-2.122-.083-4.973-.17-7.767-.17-.066,0-.546.001-.613.001h0c-3.004.014-5.916.133-8.26.337-2.318.202-4.173.496-5.57,1.032h0c-1.458.56-2.479,1.41-3.084,2.78v.002c-.539,1.22-.715,2.813-.87,4.199-.042.173-.056.353-.002.535Z"></path>
        <polygon points="152.693 75.38 152.707 75.41 152.708 75.411 152.693 75.38"></polygon>
        <polygon points="152.686 75.366 152.693 75.38 152.687 75.367 152.686 75.366"></polygon>
        <path d="m159.941 113.243.326.113.297.115.302.129.295.138.286.146.285.159.254.153.241.155.244.168.235.173.23.181.229.192.228.203c.431.384 1.091.346 1.475-.084s.347-1.091-.084-1.475l-.243-.217-.025-.022-.25-.209-.025-.02-.256-.201-.026-.02-.262-.193-.028-.02-.269-.185-.026-.017-.274-.176-.028-.017-.279-.168-.03-.017-.315-.175-.032-.017-.321-.164-.033-.016-.327-.153-.033-.015-.312-.134.053-.151.006-.017.313-.955.005-.017.295-.96.005-.018.279-.965.005-.018.262-.97.005-.022.351-1.421.006-.026.314-1.429.005-.026.277-1.437.005-.026.24-1.444.004-.027.203-1.449.003-.026.166-1.454c.065-.573-.346-1.091-.919-1.157s-1.091.346-1.157.919l-.165 1.441-.2 1.422-.236 1.42-.272 1.408-.309 1.404-.345 1.397-.257.953-.273.945-.289.939-.309.942-.326.939c-.122.352-.03.714.187.985.11.268.32.492.615.594ZM168.635 115.007l.162-.207.148-.179.156-.178.169-.183.163-.168.174-.169.18-.166.169-.148.19-.157.183-.144.195-.144.206-.144c.472-.331.586-.983.255-1.455s-.983-.587-1.455-.255l-.218.153-.022.016-.214.159-.022.017-.209.164-.021.017-.205.17-.021.018-.201.175-.021.019-.195.181-.02.019-.193.187-.021.021-.188.193-.019.02-.183.198-.019.021-.177.202-.019.022-.171.207-.018.022-.166.212c-.355.455-.275 1.111.18 1.467.455.355 1.111.275 1.467-.18ZM143.308 127.872l2.239.944.046.018 2.281.837.047.016 2.318.729.047.014 2.35.619.048.011 2.377.507.048.009 2.398.395.048.007 2.414.282.049.004 2.424.167.049.002 2.43.053h.049l2.424-.061.049-.003 2.418-.175.049-.005 2.407-.288.049-.007 2.392-.401.048-.009 2.37-.513.048-.012 2.343-.624.047-.014 2.311-.733.047-.016 2.274-.841.046-.018 2.232-.947c.531-.225.779-.839.554-1.37-.225-.531-.838-.779-1.37-.554l-2.207.936-2.232.825-2.266.718-2.292.61-2.324.503-2.343.393-2.36.282-2.365.171-2.38.06-2.381-.052-2.369-.164-2.371-.277-2.35-.387-2.325-.496-2.303-.606-2.272-.714-2.236-.82-2.217-.934c-.532-.224-1.144.026-1.369.557-.224.532.026 1.144.558 1.368ZM170.244 138.615l-.719.203-.69.164-.718.138-.708.106-.715.076-.723.047-.72.016-.757-.016-.747-.048-.75-.082-.753-.116-.732-.146-.739-.181-.744-.217c-.554-.162-1.134.156-1.296.709-.162.554.156 1.134.709 1.296l.768.225.044.012.777.191.044.01.785.157.045.008.791.122.046.006.795.087.046.004.799.052.045.002.8.017h.045l.764-.017.043-.002.763-.049.044-.004.76-.081.043-.006.756-.113.043-.007.75-.145.043-.01.744-.176.042-.011.736-.207c.556-.156.879-.734.723-1.289-.157-.555-.734-.879-1.289-.722Z"></path>
      </g>
      <path fill="#fefefe" d="m196.081,191.415l3.742,39.155s-10.892,25.787-34.935,26.087-34.641-15.847-35.24-28.245c2.396-16.291,4.832-39.401,4.832-39.401,0,0,16.294,11.104,61.602,2.403Z"></path>
    </g>
  </g>
</svg>
