<svg xmlns="http://www.w3.org/2000/svg" width="180" height="180" viewBox="0 0 4000 1400" id="lgbtq-community-with-pride-flag">
  <defs>
    <clipPath id="clip-path">
      <path d="M2977.24,450.32c53.17,22.09,44.28,80.8,1.92,122.23-9.9-13.32,7.57-34.17-7-44.11-43.87-28.58-39.53-52.91-54.16-54.17,0,0-20.1,11-29.24,39.6C2890.42,483.57,2915.87,427.52,2977.24,450.32Z" style="fill:#e3e3e3"></path>
    </clipPath>
  </defs>
  <g style="isolation:isolate">
    <g id="confetti">
      <path d="M3564.24,732s-39.22-5-39.22,8.17,35.6,20.06,51,9.82S3568.86,732.48,3564.24,732Z" style="fill:#ffa88f"></path>
      <path d="M786.94,807.69,752.77,982.36c-48.49,48.78-39.56,102.51-65.15,156.46l19.68,26.84s77.25-142.54,84.51-157.34S870,848.49,870,848.49,811.69,818.51,786.94,807.69Z" style="fill:#f7a58e"></path>
      <path d="M710.74,1161.81l-12.28,46.88s10.37,6.39,7.82,11.92l-30.54-15,8-48.12L658,1196.92l-4.17-2.05s12-41,19.85-49.64a42.74,42.74,0,0,1,16.58-11.46Z" style="fill:#1d2935"></path>
      <path d="M766.68,817.91,813,989.76c-22,65.16,9.68,109.45,10.48,169.16L853,1174.34s6.52-162,6.52-178.48-.22-178-.22-178S793.67,816.72,766.68,817.91Z" style="fill:#f7a58e"></path>
      <path d="M854.35,1169.37l9.65,47.49s12.12,1.17,12.26,7.26h-34l-14-46.72-5.71,46.72h-4.65s-7.27-42.12-4.06-53.31a42.71,42.71,0,0,1,9.83-17.6Z" style="fill:#1d2935"></path>
      <path d="M690.74,402.34C681,385.21,692.6,357.49,714,350.4c23.26-7.71,42.32-.55,62.8,7.34,16.59-16,46-19.52,63.91-7.63s21.84,37.46,8.49,55.63c21.6-2.61,43.23,6.78,53.11,23.06s3.5,46.63-9.85,62.83c23.75,20.35,20.11,47.69,8.1,77.38,34.12,103.7-96.11,146.29-177.06,110.5-43.71-19-53-70.56-48.16-88.51,10.1-37.89,32.52-43,48.16-61.86,7.07-17-16.48-30.85-18.57-49-4.28-37.14,28.3-36.77,15.85-55.06C712.06,413.59,697.94,415.16,690.74,402.34Z" style="fill:#f16667"></path>
      <path d="M833.58,409.69c-7.75,5.74-59.75,14.47-73.93,4.29s-24.38-24.81-30.83-20.13c-15.85,11.48,16.3,38.11-6.35,76.21,37.92,14.63,35,47.45,35,47.45.42,8.85,22.1,33.4,67.51-12.75C811.25,485,841.34,404,833.58,409.69Z" style="fill:#eb4849"></path>
      <path d="M849,520.55c32.88-1.61,41.64,30.08,36.1,58.41-2.43,12.45-2.79,25.39.15,37.87,2.31,9.85-4.15,18,1.15,30.84,43.4,15.53,58.73,40.6,103.21,74,8.51,6.53-5.27,18.25-14.75,14.19-50.45-21.64-99.29-49-112-64.13C851.07,657.65,812.14,535.58,849,520.55Z" style="fill:#f3bb88"></path>
      <path d="M981,713.56c21.59-1.53,32.55,2.16,51.2,29.44-8.26.52-20.75-14.24-20.75-14.24s-14.44-5-14.58-1c-.15,4.21,11.27,5.11,11.27,5.11s10.41,1.44,11,7.58c-7.56,2.19-24.2.72-42.12-4C969.61,735.79,959.41,715.09,981,713.56Z" style="fill:#f3bb88"></path>
      <path d="M1000.42,714.63l36.54,10s-2,4.1-10.69,4.24S1005.63,720.9,1000.42,714.63Z" style="fill:#f3bb88"></path>
      <path d="M859.3,940.93H758.9s-31.27-74.08-52.27-142.36c-6.78-22-12.47-43.41-15.72-61.55-13.32-74.39,54.23-92.91,54.23-92.91l98.14,4c18.23,26.3,25.87,70,27.49,119.12C872.64,824,866.47,888.05,859.3,940.93Z" style="fill:#0eb055"></path>
      <path d="M860.92,518c-32.49-16.37-93-9.32-107.5,3.67-2,25.24,7.24,44.07-14.57,130.87C753.71,677.68,827.3,676,839.71,666.3,861.4,622.81,867.31,576.49,860.92,518Z" style="fill:#1d2935"></path>
      <path d="M790.47,673.08l-1-.43A381.78,381.78,0,0,0,806,619.77c6.82-28.55,13.6-71,7.16-111.22l1.11-.17c6.47,40.38-.34,83-7.18,111.67A384,384,0,0,1,790.47,673.08Z" style="fill:#5d84ab"></path>
      <path d="M860.92,518s32.75,34.24,22.87,70.25c-24,34.41-58.93,0-58.93,0s-26.35,27.43-56.35,7.53-12.85-78.22-12.85-78.22S810.79,493.41,860.92,518Z" style="fill:#0eb055"></path>
      <path d="M860.92 518a49.44 49.44 0 0 1 23.17 23.22c-15.51 13-24.52 6.9-24.52 6.9S850.76 530.28 860.92 518ZM755.66 517.51c-8.91 2.34-2.75 51.66-3.71 67.5l31.83 9.19 6.56-76.69S764.57 515.18 755.66 517.51Z" style="fill:#0eb055"></path>
      <path d="M755.66 517.51s-101 10.68-105.85 32.19C644 576 683.64 627.63 722.31 659c4.36 3.53 9.32-12.78 9.32-12.78-15.44-14.22-14.15-60-37.87-78.9 15.89 1.75 50.17 6.05 68.49 0C781.17 556.05 776.48 516.64 755.66 517.51ZM833 518.66l-17.83-50.95-39.51 20.18 9.49 30.77s18.47 45 41.89 39S833 518.66 833 518.66Z" style="fill:#f3b883"></path>
      <path d="M821.5,470.4A63.4,63.4,0,0,1,797,490.47c-19,8.78-38.63,6.41-45.18,1.41s-9.14-14-11.3-22.7a137.53,137.53,0,0,0-3.67-13.64c-3.41-7.26-4.46-16.55-3-26,2.23-14.53,10.36-29.46,24.75-38a39.3,39.3,0,0,1,7.7-3.92c13.57-5.21,33.57-5.68,48.24,4.9C839.12,410.25,840,445.33,821.5,470.4Z" style="fill:#f3b883"></path>
      <path d="M808.26,416.61c-4.82,7.8-39.25,8.25-54.54,4.79-9.93-2.23-16.44,3.71-19.79,8.13,2.23-14.53,10.36-29.46,24.75-38a39.3,39.3,0,0,1,7.7-3.92C802.5,384.78,812.79,409.23,808.26,416.61Z" style="fill:#f3a25b"></path>
      <path d="M796.53,453.71s-5.16,20.22-20,13.28c-3.17-1.48-9.81-2.82-14.21-3.47a28.36,28.36,0,0,0-17.25,2.7,19.16,19.16,0,0,0-4.47,3c2.16,8.74,4.89,17.84,11.3,22.7S778,499.25,797,490.47C812.94,481.16,796.53,453.71,796.53,453.71ZM779,482.53C777,488,768.85,491,761,489.6c-13.88-2.45-17.81-11.38-16-16.07s6.67-8.66,16.9-7.5C776.63,467.71,782,474.18,779,482.53Z"></path>
      <path d="M754.74,461.88c-2.43,0-5.54-.4-7.31-2.17a2.35,2.35,0,0,1-.84-1.7c0-1.29,1.12-2.38,2.84-4a32,32,0,0,0,9.75-15.65.84.84,0,1,1,1.62.45,33.74,33.74,0,0,1-10.2,16.41c-1.2,1.16-2.33,2.25-2.32,2.81a.78.78,0,0,0,.32.5c2.13,2.13,7.49,1.78,9.38,1.46a.85.85,0,0,1,1,.7.84.84,0,0,1-.69,1A24.1,24.1,0,0,1,754.74,461.88Z" style="fill:#9c6635"></path>
      <path d="M739.52,396.13s23.45,25.38,68.74,20.48c10.67,0-6.94,27.75-6.94,27.75s2.93-1.25,8.36.73c4.72,1.73,8.83,6.35,2.3,14.2-13.67,16.44,8.17,67.56,53.57,61.19-7-28-19.19-67.52-27.24-99.62-10-39.92-40.85-41.51-62-36.83C758.86,387.9,739.52,396.13,739.52,396.13Z" style="fill:#f16667"></path>
      <path d="M765.15,443a27.91,27.91,0,0,1,8.9,2.11c10.46,4.32,20.11-4.31,21.94-9.07,0,0-3.92,2-14.3,1.69C768.91,437.29,765.15,443,765.15,443Z" style="fill:#fff"></path>
      <path d="M765,443.11c.21-2.31,3.35-7.1,17-7.81,17-.87,21.2-9.24,21.2-9.24s-4.19,15-20,13.44C768.74,438.09,765,443.11,765,443.11Z"></path>
      <path d="M735.68,429.39a35.14,35.14,0,0,0,8.94,5.36,13.18,13.18,0,0,1,7.16,7.35s0-.5-8.73-1.94S735.68,429.39,735.68,429.39Z" style="fill:#fff"></path>
      <path d="M751.75,441.92s1.82-4.13-8-9.1c-11.71-5.94-9.89-14.23-9.89-14.23s-4,9.74,7.22,16C749.74,439.47,751.75,441.92,751.75,441.92Z"></path>
      <path d="M749.67,470.42c2.69,1,7.79-2.73,12,1.89,6.69-3.66,10,.68,13.71.17,0,0-2.4,13.47-14.55,12.52C750.65,484.21,750.36,475.71,749.67,470.42Z" style="fill:#cf2027"></path>
      <path d="M778.76 440.86c0-2.34 1.44-4.23 3.22-4.23s3.22 1.89 3.22 4.23-1.44 4.23-3.22 4.23S778.76 443.2 778.76 440.86ZM742.54 437c0-1.75 1.11-3.16 2.48-3.16s2.48 1.41 2.48 3.16-1.11 3.15-2.48 3.15S742.54 438.78 742.54 437Z"></path>
      <path d="M805.39,459.48a5.15,5.15,0,1,1,6.38,3.5A5.15,5.15,0,0,1,805.39,459.48Z" style="fill:#fff"></path>
      <path d="M724.23,642.22c-5,2.72-9,18.94,3.44,18.43s31.27-7.11,31.27-7.11c2.65-.94,14.17-4,12.19-4.75-3-1.22-20.6,1.9-20.6,1.9s19.64-6.71,18.89-9-21,4-21,4S768,638,767.14,636s-22.09,4.5-22.09,4.5c4.21-4.82,15.55-13.9,14.94-14.49-1.65-1.61-5.15.73-16.4,7.12C732.87,638.5,727.39,640.47,724.23,642.22Z" style="fill:#f3b883"></path>
      <path d="M821.47 610.11a2.08 2.08 0 1 1-2.08-2.08A2.08 2.08 0 0 1 821.47 610.11ZM818.37 627.63a2.09 2.09 0 1 1-2.09-2.09A2.08 2.08 0 0 1 818.37 627.63ZM809.41 643.48a2.08 2.08 0 1 1 1.35 2.62A2.08 2.08 0 0 1 809.41 643.48ZM803.28 661.62a2.08 2.08 0 1 1 1.35 2.62A2.08 2.08 0 0 1 803.28 661.62Z" style="fill:#5d84ab"></path>
      <path d="M859.3,940.93H758.9s-31.27-74.08-52.27-142.36c19,11.81,48.56,25.78,63.92,9.95,23.71-24.45,10.69-91.1,21.51-91.68s66.85,84.43,78.71,50.43C872.64,824,866.47,888.05,859.3,940.93Z" style="fill:#0d9e4c"></path>
      <path d="M770.55,512.52s-18.06,3.12-37.48,8c20.64,17.06,25,43.47,18.67,49,10.76,7.48,31.33-7.46,32-23S779.4,512.56,770.55,512.52Z" style="fill:#0eb055"></path>
      <path d="M3314.22,794l146.23,67.21c-50.27,35.25-50.1,91.68-84.27,140.07l16.34,28.43c52.83-57.41,132.93-145.67,126.37-184.68-6.15-36.64-137.24-111.29-137.24-111.29S3333.13,775.58,3314.22,794Z" style="fill:#f7a58e"></path>
      <path d="M3396.19,1026.28l-30.79,36.2s6.21,10.27,1.62,14l-19.92-26.83,27.63-39.18-39.18,23.62-2.72-3.67s28.05-31.08,38.52-35.29,13.07-6.73,13.07-6.73Z" style="fill:red"></path>
      <path d="M3261.48,759.92l52,198.22c-24.71,75.17,10.85,126.25,11.75,195.13l33.09,17.78s7.31-186.86,7.31-205.87-.25-205.26-.25-205.26S3291.76,758.54,3261.48,759.92Z" style="fill:#f7a58e"></path>
      <path d="M3359.84,1165.32l10.82,54.78s13.6,1.34,13.76,8.37h-38.16l-15.73-53.89-6.41,53.89h-5.21s-8.16-48.58-4.55-61.49a49.54,49.54,0,0,1,11-20.3Z" style="fill:red"></path>
      <polygon points="3353.59 538.05 3323.23 483.26 3287.83 490.5 3296.71 548.23 3353.59 538.05" style="fill:#f5a689"></polygon>
      <path d="M3306.93,495.36s40.29-3.67,45.76-19.16c1.57-4.42.84-9.52-.77-14.54-21.7,10.23-33-.23-33-.23l22.21-19.71a102.9,102.9,0,0,0-6.49-8.12s7-10,4.46-13.09-24-2.11-24-2.11-27.65-17.79-55.09-4.4C3226.78,429.75,3222.91,523.59,3306.93,495.36Z" style="fill:#f5a689"></path>
      <path d="M3350.67,458.23s-14.75,11.7-31.73,3.2c1.9,4.46,22,8.35,33,.23C3353.67,460.24,3352.78,457.75,3350.67,458.23Z" style="fill:red"></path>
      <path d="M3341.15,441.72s4.45,2.85,4,6.12-6.55,9.07-26.23,13.59C3327.1,454.13,3341.15,441.72,3341.15,441.72Z" style="fill:#fff"></path>
      <path d="M3342,440.93c-.09-2.71-3-2-8.24,4.37-4.68,5.69-14.86,16.13-14.86,16.13S3342.36,451.16,3342,440.93Z" style="fill:red"></path>
      <path d="M3302,422.3s-7.7-1.87-11.44,4.29-1.55,13.76-1.55,13.76,9.84-4.4,11.86-10.34S3302,422.3,3302,422.3Z" style="fill:#f66"></path>
      <path d="M3289,440.35s12.26-7.32,13-18.05c7.53-4,7.36-7,7.36-7S3306.41,436.21,3289,440.35Z"></path>
      <path d="M3271.18,451.88s37.86,27.87,35.75,43.48-21.23,27.82-21.23,27.82,5.16-15.77,1.73-21.83c-8.64,2.47-38.43,12.62-52.34-2.6-7.63-8.37-.38-23.74-.38-23.74a31.31,31.31,0,0,1-13.09-15.93c-3.86-10.91-2-31.93,31.11-50.35,18.52-10.29,27.17-34.51,27.17-34.51C3290.7,396.13,3282,419.32,3271.18,451.88Z" style="fill:#d65f00"></path>
      <ellipse cx="3286.18" cy="472.62" rx="10.79" ry="11.27" style="fill:#f5a689" transform="matrix(.09 -1 1 .09 2527.58 3704.79)"></ellipse>
      <path d="M3287.6,502.06a13.59,13.59,0,0,1-1.79-.13,12.44,12.44,0,0,1-8.26-5,13.17,13.17,0,0,1,.82-16.46l.81.77a11.87,11.87,0,0,0,6.78,19.6,11.5,11.5,0,0,0,12.95-10,11.72,11.72,0,0,0-9.69-13.31,11.06,11.06,0,0,0-2.93,0l-.13-1.12a12,12,0,0,1,3.22.05A12.85,12.85,0,0,1,3300,491,12.67,12.67,0,0,1,3287.6,502.06Z" style="fill:#ff0"></path>
      <path d="M3315,456.39c-4.37,5.85-22.62,7.93-29.13-3.1C3286.26,468.31,3309.23,474.63,3315,456.39Z" style="fill:#ed8a66"></path>
      <path d="M3357,533.09l76.66-7.64-59.07-74.23,10-8.75c33.74,35.55,95.9,64.75,93.61,97.26-4.38,26.67-110.2,46.26-110.2,46.26C3338.33,590.63,3328.23,536.06,3357,533.09Z" style="fill:#f5a689"></path>
      <path d="M3388.21,451.51s-11.53,7.83-16.89-4.37c-2.13-4.84-2.25-12.42,1.42-10.94,7.74,3.45,9.77-20.38,9.77-20.38l5-.35Z" style="fill:#f5a689"></path>
      <path d="M3372.82 449.86s-7.83-9.26-8.21-26.17c5.12-.7 4.74 9.67 4.74 9.67a16.94 16.94 0 0 1 7.34 10.16C3378.23 450.32 3374.65 451.91 3372.82 449.86ZM3387.58 415.55l-15.14-11.65a10.33 10.33 0 0 0 4.18 10.16c5.6 4.35 9.73 3.2 9.73 3.2Z" style="fill:#f5a689"></path>
      <path d="M3387.53,415.55l-4.28-18.94s-4.72,3.49-3.17,10.53,5.44,8.9,5.44,8.9Z" style="fill:#f5a689"></path>
      <path d="M3399.37,698.85l-112.43,16.33a113.14,113.14,0,0,1,19.41-21.1c-24.45-70.25-41.6-97.23-38.93-121,2.76-37.36,76.77-37.57,102-34,36.21,17.52,18.75,124.25,20.9,146.88C3393.15,690,3396.2,694.34,3399.37,698.85Z" style="fill:red"></path>
      <path d="M3287.7,621.65c9.09-12,25.93-17.16,39.76-12.28s23.58,19.48,23,34.45c11-22,42.36-30.29,61.91-16.35s22.33,46.55,5.49,64.38c18.13-10.9,44.3-3.1,53.3,15.89s-1.11,45.1-20.59,53.16c23.48,6.17,35,38.94,20.8,59.37s-48.57,20.77-62.36.62c5,23.85-11.91,51.07-35.69,55.4s-48.72-17.14-46.87-41.58c-8,23.22-38.5,35.26-59.3,23.38s-26.16-44.39-10.41-63.17c-22.21,15.94-57.36,6.06-67.71-19s7.07-58.21,33.55-63.8c-21.37-11.06-26.75-44.54-10.07-62.63s49.94-14.84,62.21,6.08C3279.34,643.47,3281.39,630,3287.7,621.65Z" style="fill:red"></path>
      <path d="M3193.33,734.34c14.82,35.14,62.31-5.9,62.31-5.9s24.86,58.31,51.17,50.75,22.55-49.69,22.55-49.69,46.8,52.8,65.06,10.79-42.56-66.11-42.56-66.11,41.23,12.18,57.37-10.59c11.5-16.22-.76-33.21-8.76-41.64a36.41,36.41,0,0,1,11.93,5.52c19.55,13.93,22.33,46.55,5.49,64.38,18.13-10.9,44.3-3.1,53.3,15.89s-1.11,45.1-20.59,53.16c23.48,6.17,35,38.94,20.8,59.37s-48.57,20.77-62.36.62c5,23.85-11.91,51.07-35.69,55.4s-48.72-17.14-46.87-41.57c-8,23.21-38.5,35.25-59.3,23.37s-26.16-44.39-10.41-63.17c-22.21,15.94-57.36,6.06-67.71-19C3183.55,762.52,3185.92,746.89,3193.33,734.34Z" style="fill:#c00"></path>
      <path d="M3363.83,539.77s14.14-11.63,4.62-21.38c-31.71,20.82-67.86,12.65-99.22,13.32.88,6.44,13.53,17,24.31,24.43C3299.21,560,3345.3,551.08,3363.83,539.77Z" style="fill:red"></path>
      <path d="M3351.9,571.58l8.36,87.56,79.34,64.8c0,7.35-6.95,8.75-23.52,1.94,0,0-64.81-27.21-81.56-48.31s-34.39-95.05-34.39-95.05c1-17.37,11.09-26.62,22.27-28.59A26.07,26.07,0,0,1,3351.9,571.58Z" style="fill:#f5a689"></path>
      <path d="M3435.34,719.1c13.87,3.61,20,8.33,26,29.91-5.3-1.42-10.08-13.61-10.08-13.61s-8-6.3-8.94-3.76c-1,2.69,6,5.7,6,5.7s6.24,3.15,5.32,7.23c-5.2-.2-15.35-4.69-25.62-11.54C3423.58,731,3421.46,715.49,3435.34,719.1Z" style="fill:#f5a689"></path>
      <path d="M3447.3,723.93l20.87,14.27s-2.13,2.21-7.6.46S3449.28,729.09,3447.3,723.93Z" style="fill:#f5a689"></path>
      <g id="female_01">
        <path d="M3026.74,829.5s7.19,141.55,23.5,203.18c13.14,49.61,40.52,134.72,69.09,163.1-2.1,7.24,2.89,14,7.81,12.3l43.08-12.26c5.58-1.63.36-12.49-4.91-14.19-6.8-41-17-97.08-37.94-167.29,0,0,13.46-152.09,12.15-199.12C3137.16,730.73,3021.43,758.55,3026.74,829.5Z" style="fill:#73739e"></path>
        <path d="M3103,1198.21l10.79-3.38c7.13-14.34,37.52-12.56,33.28,4.89,9,.23,18.87-2.68,18.87-2.68,5.32,10.43,5,20,2.9,31.43h-64.39Z" style="fill:#d4d4ff"></path>
        <path d="M3137,1228.47c0-.15,0-.3,0-.45,0-16.78-13.29-30.38-29.69-30.38s-29.7,13.6-29.7,30.38c0,.15,0,.3,0,.45Z" style="fill:#b1b1f2"></path>
        <path d="M2953,814.92c-9.68,66.28-12.25,132.44-13.32,196.28-.86,51.39-3.14,143.69,17.56,178.49-3.81,6.47-.64,14.32,4.55,13.91,19.27-2.06,38-4.14,47.75-6.74,4.89-2.7,4.68-12.09,0-15.08,7.39-40.81,10.27-92.87,9.21-166.27l60.39-186.08C3086.76,746.34,2966.42,723.43,2953,814.92Z" style="fill:#73739e"></path>
        <path d="M2945.84,1198.21l10.8-3.38c7.12-14.34,37.51-12.56,33.28,4.89,9,.23,18.87-2.68,18.87-2.68,5.31,10.43,5,20,2.89,31.43H2947.3Z" style="fill:#d4d4ff"></path>
        <path d="M2979.85,1228.47c0-.15,0-.3,0-.45,0-16.78-13.3-30.38-29.7-30.38s-29.7,13.6-29.7,30.38c0,.15,0,.3,0,.45Z" style="fill:#b1b1f2"></path>
        <path d="M2786.68,763.54c-18,3.82-29.74,13.49-34.53,22.93,0,0,18.74-3.71,25.16-2.87s-.77,8.3,4,10.73,20.77-19.22,20.77-19.22Z" style="fill:#ffa88f"></path>
        <path d="M2782.16,759.26s8.1-21.62,83.74-35.2c17.69-38.26,48.48-136.36,93.1-118.54,41.73,28-2.89,120.8-62.8,164.9-18.47,11.3-80.07,35.09-98.69,12.57C2804.19,775.39,2792.23,761.83,2782.16,759.26Z" style="fill:#ff9591"></path>
        <path d="M2781.57,758.85s7.06-2.18,18.12,10.5c6.59,7.55,2.91,11.08,2.91,11.08,1.44,4.45-3.8,6.58-6.46,3.79,0,0-.11-7.16-2.93-10.32-8.29-9.29-14.85-8-14.85-8C2775.59,764.4,2778.72,758.54,2781.57,758.85Z" style="fill:#f06e69"></path>
        <ellipse cx="3006.24" cy="564.86" rx="49.51" ry="50.65" style="fill:#e3e3e3"></ellipse>
        <path d="M2952.26,820.38c-8-94.14-12.59-123.38-30.25-169.53,6.4-29.74,46.43-82.33,93.78-68.14,45.62,22.49,116.43,89.13,123.83,226.06C3084.35,830.34,2979.56,830.86,2952.26,820.38Z" style="fill:#d4d4ff"></path>
        <path d="M2950.05,624.19l-15.39-43.89,34.67-19.17,27,34C3009.8,626.63,2960.87,657.69,2950.05,624.19Z" style="fill:#ffa88f"></path>
        <path d="M2983.78,582.7c31.25,134.6,33.19,206.47,33.6,275,0,0,106.63,1.63,122.24-49,0-57.23-14.42-140.26-99.94-215.87C3021.86,578,2994.89,571.24,2983.78,582.7Z" style="fill:#ff9591"></path>
        <path d="M2983.78,582.7s36.15,172.21,33.6,275C3044.46,857.76,3018.88,553.38,2983.78,582.7Z" style="fill:#ff7673"></path>
        <path d="M2944,604.4c16.15,78.51,25.34,162.75,22.37,253.36,0,0-17.73-10-30.43-42.48-3.17-63.74-15.53-128.71-15.53-159.73C2920.37,614.38,2944,604.4,2944,604.4Z" style="fill:#ff9591"></path>
        <path d="M2939.56,605.65s-7,5-5,23.69c2.5,23.81,39.41,193,31.82,228.42,9-98.11-22.37-253.36-22.37-253.36S2942.44,604.05,2939.56,605.65Z" style="fill:#ff7673"></path>
        <path d="M2888.47,515.43c-6.47,38,14.43,71.19,32.93,75.36,30.12,6.78,70.64-17.77,77.11-55.73s-12.91-73.12-43.3-78.54S2895,477.47,2888.47,515.43Z" style="fill:#ffa88f"></path>
        <path d="M2913.61,546.2a8.66,8.66,0,0,0,5.45-.52.58.58,0,0,0,.34-.75.56.56,0,0,0-.73-.35c-2.21.82-4.12.91-5.34.25a2.52,2.52,0,0,1-1.28-1.65c-.27-1.08,1-2.3,2.72-3.86a22.06,22.06,0,0,0,5.24-6.41l1.92-4.48a.6.6,0,0,0-.3-.77.56.56,0,0,0-.75.3l-1.91,4.45a21.15,21.15,0,0,1-5,6.05c-2,1.82-3.5,3.25-3.05,5a3.66,3.66,0,0,0,1.85,2.4A4.44,4.44,0,0,0,2913.61,546.2Z" style="fill:#94503c"></path>
        <path d="M2938 521c-.15 2.4 1.18 4.45 3 4.57s3.39-1.72 3.55-4.12-1.17-4.44-3-4.57S2938.12 518.58 2938 521ZM2898.2 518.82c-.32 2.3.87 4.38 2.65 4.64s3.5-1.39 3.82-3.69-.86-4.39-2.65-4.65S2898.52 516.51 2898.2 518.82Z" style="fill:#4d2920"></path>
        <path d="M2897 511a.58.58 0 0 0 .68-.3 4.23 4.23 0 0 1 4-2.45 6.65 6.65 0 0 1 5.72 4 .57.57 0 0 0 .75.29.59.59 0 0 0 .28-.78 7.69 7.69 0 0 0-6.73-4.69 5.33 5.33 0 0 0-5.07 3.09.6.6 0 0 0 .25.79ZM2936.94 513.9a.56.56 0 0 0 .67-.3 4.27 4.27 0 0 1 4-2.45 6.65 6.65 0 0 1 5.72 4 .57.57 0 0 0 .76.29.6.6 0 0 0 .28-.78 7.72 7.72 0 0 0-6.74-4.69 5.37 5.37 0 0 0-5.07 3.1.58.58 0 0 0 .26.78Z" style="fill:#94503c"></path>
        <path d="M2977.24,450.32c53.17,22.09,44.28,80.8,1.92,122.23-9.9-13.32,7.57-34.17-7-44.11-43.87-28.58-39.53-52.91-54.16-54.17,0,0-20.1,11-29.24,39.6C2890.42,483.57,2915.87,427.52,2977.24,450.32Z" style="fill:#e3e3e3"></path>
        <g style="clip-path:url(#clip-path)">
          <path d="M2917.4,476.85a.51.51,0,0,0,.44-.26,53.38,53.38,0,0,1,16.67-16.1c10.39-6.48,28.12-12.55,53.56-4.74a.5.5,0,0,0,.64-.35.53.53,0,0,0-.35-.66c-25.82-7.94-43.86-1.73-54.44,4.87A54.56,54.56,0,0,0,2917,476a.55.55,0,0,0,.18.73A.56.56,0,0,0,2917.4,476.85Z" style="fill:#fff"></path>
          <path d="M3008.56,543a.52.52,0,0,0,.38-.17.53.53,0,0,0,0-.75c-16.63-15.74-26.91-31.24-35.18-43.7-13.87-20.93-23.05-34.77-48.7-31.59-1.42-1.11-10.61-7.47-22.69,3.11a.55.55,0,0,0-.06.75.51.51,0,0,0,.73.06c12.38-10.85,21.16-3.3,21.53-3l.17.16.23,0c25.19-3.21,34.24,10.44,47.94,31.1,8.29,12.51,18.61,28.07,35.33,43.89A.52.52,0,0,0,3008.56,543Z" style="fill:#fff"></path>
          <path d="M3021.64 540.45a.5.5 0 0 0 .31-.1.54.54 0 0 0 .11-.74c-3.41-4.72-7.23-9.36-11.29-14.26-8.63-10.45-17.55-21.25-22.11-32.86a52.93 52.93 0 0 0-27.27-28.86c-10.78-5.06-20.68-5.85-24.61-5.55-1.3-1-9.68-6.85-18.74-5.19a.53.53 0 0 0 .18 1c9.19-1.68 18 5.05 18.09 5.12l.16.12h.2c7.24-.65 39.07 3.32 51 33.73 4.62 11.76 13.6 22.63 22.28 33.14 4 4.9 7.86 9.52 11.25 14.21A.49.49 0 0 0 3021.64 540.45ZM3018.07 510.6a.53.53 0 0 0 .33-.94c-10.88-9.27-17.27-20.07-22.92-29.6-8.86-15-16.51-27.88-37.74-28.68a.53.53 0 0 0-.54.51.52.52 0 0 0 .5.55c20.68.78 27.84 12.87 36.9 28.17 5.68 9.6 12.13 20.48 23.14 29.86A.46.46 0 0 0 3018.07 510.6Z" style="fill:#fff"></path>
          <path d="M2956.85,452.55a.52.52,0,0,0,.43-.23.54.54,0,0,0-.15-.74c-.1-.07-10.42-7-22.84-6.2a.53.53,0,0,0,.07,1.06c12.07-.78,22.1,6,22.2,6A.52.52,0,0,0,2956.85,452.55Z" style="fill:#fff"></path>
        </g>
        <ellipse cx="2978.91" cy="539.3" rx="13.19" ry="13.5" style="fill:#ffa88f"></ellipse>
        <path d="M2914.54 567.56c10 3.08 21.67-2.43 21.82-2.5a.58.58 0 0 0 .27-.77.55.55 0 0 0-.76-.28c-.18.08-17.95 8.48-27.83-1.71a.57.57 0 0 0-.81 0 .59.59 0 0 0 0 .83A16.85 16.85 0 0 0 2914.54 567.56ZM2952.47 567.17h0a.53.53 0 0 0 .52-.53c0-.14-.22-13.78-19.62-16.17a.53.53 0 0 0-.58.47.54.54 0 0 0 .46.59c18.45 2.27 18.7 14.58 18.71 15.11A.52.52 0 0 0 2952.47 567.17ZM2901.31 565h.07a.52.52 0 0 0 .44-.6c-1.56-11.24 7-14.2 7.11-14.23a.53.53 0 0 0 .33-.67.52.52 0 0 0-.65-.34c-.1 0-9.5 3.28-7.81 15.39A.52.52 0 0 0 2901.31 565ZM2954 526.35a.26.26 0 0 0 .24-.15.26.26 0 0 0-.12-.35l-6.93-3.38 8.27-1a.25.25 0 0 0 .23-.29.26.26 0 0 0-.29-.23l-9.17 1.09a.25.25 0 0 0-.22.22.26.26 0 0 0 .14.28l7.74 3.78Z" style="fill:#94503c"></path>
      </g>
      <g id="lady_boy">
        <path d="M2250.29,708.76s4.53,12.49,21.85,20.57c4.46-5.83-7.21-10.28-3.59-11.23,2.77-.72,9.13,1,24.9,7.5,2.59-.86,4.7-3,5.88-7.15,5-17.76-24.91-27.82-38.92-31.5S2241.46,705.07,2250.29,708.76Z" style="fill:#ffa88f"></path>
        <path d="M2002.5,533a16.91,16.91,0,0,1-8.69-2.41,17.23,17.23,0,0,1,14.27-31.14,1.78,1.78,0,0,1,1.09,2.25,1.75,1.75,0,0,1-2.23,1.09,13.56,13.56,0,0,0-16.1,6,13.73,13.73,0,0,0-1.47,10.39,13.58,13.58,0,0,0,6.23,8.4,13.36,13.36,0,0,0,10.29,1.49,13.5,13.5,0,0,0,8.32-6.29,13.87,13.87,0,0,0-1.12-15.63,1.77,1.77,0,0,1,.26-2.48,1.74,1.74,0,0,1,2.46.26,17.45,17.45,0,0,1,1.41,19.65A17.07,17.07,0,0,1,2002.5,533Z" style="fill:#fe931f"></path>
        <path d="M2163,755.66l-153.06-9.93c1.67-12.6,7.69-40.09,23.1-61.17l-30.48-111.2c8.39-27.67,133.18-27.13,142.39,0l-1.64,105C2157.12,710.67,2162.71,738.1,2163,755.66Z" style="fill:#11578a"></path>
        <path d="M2101.63,1055.43c-.28,44.23-5.52,86.41-8.25,121.89l-26,2.82-27.24-196.79-14.65-106-14.83-107.06c-5.18-57.12,83.3-65.34,88.51-8.19L2094,833l-7.72,105.55C2098.42,977.06,2101.91,1017,2101.63,1055.43Z" style="fill:#ffa88f"></path>
        <path d="M2043.72,782c19.6-1,39,1.45,58,6.08,3.87-39.28-8.58-60.35-23.51-72.38-18.51-14.91-51.5-9.88-64.19,16.05-7.22,14.76-4.08,39-1,54.67C2013.45,786.24,2032.92,782.49,2043.72,782Z" style="fill:#11578a"></path>
        <path d="M2046.92,1227.45c.55-5.63,17.36-12.2,17.36-12.2l1.82-47.29-.13-1.29,28.53-3.1,7.34,18.65-21.08,45.23Z" style="fill:#f13005"></path>
        <polygon points="2101.89 1224.51 2082.31 1181.78 2101.86 1182.09 2106.31 1224.03 2101.89 1224.51" style="fill:#f13005"></polygon>
        <path d="M2101.63,1055.43l-61.44-72.08-14.65-106L2094,833l-7.72,105.55C2098.42,977.06,2101.91,1017,2101.63,1055.43Z" style="fill:#f58160"></path>
        <path d="M2075,748.86S1976.66,859,1976.66,885.39s150.94,143.69,150.94,143.69l21-17.34C2117.11,956.45,2084,905.36,2042.24,877l95.32-69.39C2165.06,775.56,2115.88,712.15,2075,748.86Z" style="fill:#ffa88f"></path>
        <path d="M2136.89,809.07c20.42-19.8,27.05-39.22,26-55-1.63-23.84-22.54-39.34-55.12-36.87-13.42,1-30.51,20.59-36.14,35.52C2100,758.73,2124.15,782.27,2136.89,809.07Z" style="fill:#11578a"></path>
        <path d="M2155.79,1085.4c-3.94-4,1.8-21.28,1.8-21.28l-32.41-36.34-1-.8,17.91-22.65,18.28,7.87,16.74,46.25Z" style="fill:#f13005"></path>
        <polygon points="2190.16 1041.93 2146.31 1025.89 2160.29 1012.09 2192.93 1038.43 2190.16 1041.93" style="fill:#f13005"></polygon>
        <path d="M2025.24,561.24s-67,23.1-99.08,39.08c-17.25,8.58-15.91,38.78,14.2,36.75,46.77-3.15,92.75-21,92.75-21C2068.12,604.19,2053.11,558,2025.24,561.24Z" style="fill:#11578a"></path>
        <path d="M1953.37 615.26c-5.15 16.85-29.67 28.57-36 13.09-6.89-13-8.6-60.38-7.91-108 .12-9.27.35-18.6.65-27.63l22.55-3.36c2.45 8.1 4.56 16.15 6.43 24.14C1947.41 549.73 1950.16 584.34 1953.37 615.26ZM2107.36 605.31s59.19 19.52 93.59 29.58c18.47 5.4 37.65-17.81 14.06-36.8-36.64-29.52-76.81-38.66-76.81-38.66C2104.39 544.4 2084.6 588.75 2107.36 605.31Z" style="fill:#11578a"></path>
        <path d="M2188.29,626c-2.34-17.48,15-38.49,27.25-27.11,13.94,10.63,30.51,38.69,51.94,89.74l-19.5,19C2217,672.58,2207.52,658.56,2188.29,626Z" style="fill:#11578a"></path>
        <path d="M2098.46,502.82a86.86,86.86,0,0,1-6.5,7.86l0,0c-17.32,18.55-47.17,37-75.31,22.38-17.93-9.62-25.79-49.82-7.33-71.62,5.69-15.42,15-33.65,25.1-40.74v0c12.87-9.09,28.52-11.16,44.78-5.45C2106.51,424.84,2121.89,470.42,2098.46,502.82Z" style="fill:#ffa88f"></path>
        <path d="M2100.66,562c-4.32,11-53.21,20.66-53.21,8.54l-14-71.08,42.47-12.75Z" style="fill:#ffa88f"></path>
        <path d="M2042.47,547.68s11.94,5.13,28.31,0,20.91-11.88,20.91-11.88,5.87-1.48,9.48,7.08,10.42,12,12,18.1-52.51,26.89-67.2,21,.88-19-3.55-25S2042.47,547.68,2042.47,547.68Z" style="fill:#11578a"></path>
        <path d="M2027.17,488.83a.72.72,0,0,1-.4-.12,6.65,6.65,0,0,1-2.79-7l.07-.27,16.75-11.61a.74.74,0,0,1,1,.19.76.76,0,0,1-.19,1l-16.27,11.27a5.08,5.08,0,0,0,2.2,5.14.78.78,0,0,1,.22,1.05A.74.74,0,0,1,2027.17,488.83Z" style="fill:#b56148"></path>
        <path d="M2013.23,495l36.47,11.55S2042.81,522,2026,518.94C2007.67,515.6,2013.23,495,2013.23,495Z" style="fill:#f13005"></path>
        <path d="M2067.38 477.29a.72.72 0 0 1-.48-.17c-8.3-6.61-14.73-4.72-14.79-4.7a.78.78 0 0 1-.47-1.49c.29-.1 7.24-2.2 16.22 5A.78.78 0 0 1 2068 477 .74.74 0 0 1 2067.38 477.29ZM2034.45 463.22a.79.79 0 0 1-.7-.43h0c-.11-.22-2.77-5.4-12.55-5.93a.77.77 0 0 1-.73-.82.79.79 0 0 1 .81-.74c10.76.59 13.74 6.55 13.87 6.8a.8.8 0 0 1-.36 1A.83.83 0 0 1 2034.45 463.22Z" style="fill:#0d0d0d"></path>
        <path d="M2098.46,502.82a86.86,86.86,0,0,1-6.5,7.86l-5.93,6.85c-7.63-14.15,22.73-70.34-19-72-30.58-1.21-36.83-20.33-36.68-21.36,0,0,4-3.49,4-3.49,12.87-9.09,28.23-10.23,44.78-5.45C2111.07,424.48,2121.89,470.42,2098.46,502.82Z" style="fill:#9e189c"></path>
        <ellipse cx="2088.54" cy="495.03" rx="11.14" ry="11.25" style="fill:#ffa88f"></ellipse>
        <path d="M2098.09,532.18a17,17,0,0,1-12.43-5.4,17.43,17.43,0,0,1-1.58-21.72,1.75,1.75,0,0,1,2.44-.43,1.77,1.77,0,0,1,.42,2.46,13.87,13.87,0,0,0,1.26,17.27,13.49,13.49,0,0,0,19.21.56,13.69,13.69,0,0,0-14.64-22.6,1.74,1.74,0,0,1-2.29-.94,1.78,1.78,0,0,1,.93-2.31,17.06,17.06,0,0,1,19.1,4,17.37,17.37,0,0,1-.7,24.38A17,17,0,0,1,2098.09,532.18Z" style="fill:#fe931f"></path>
        <path d="M1907.65,488.91c-.29-3.17.14-17.21,12.14-21.33-1.18-1.07-1.65-3.05-.69-6.11,2.09-6.68,14-17.62,24.24-14,1.37.58,10.86,11,4.78,23.07a74.35,74.35,0,0,1-18.64,23C1920.17,499.6,1908.31,496.22,1907.65,488.91Z" style="fill:#ffa88f"></path>
        <path d="M1919.58,481.35s3.27-12.3,17.8-15.2c3.3-10.51,12.51-13.48,14.91-10.7,2.78,3.23-9.15,16.09-9.15,16.09s-2.42,11-10.49,16.24Z" style="fill:#ffa88f"></path>
        <path d="M1926.25,468.71a21.58,21.58,0,0,1-6.94-1,.48.48,0,0,1,.33-.91,25.32,25.32,0,0,0,17.68-1.47.48.48,0,0,1,.63.24.48.48,0,0,1-.24.64A27.73,27.73,0,0,1,1926.25,468.71Z" style="fill:#de3c0f"></path>
        <path d="M1919.58,481.84l-.13,0a.49.49,0,0,1-.34-.59,23.49,23.49,0,0,1,17.9-15.5c2.4-7.33,7.47-10.82,11.12-11.58,2-.42,3.63-.06,4.52,1,3,3.46-7.91,15.39-9.16,16.74a.49.49,0,0,1-.68,0,.48.48,0,0,1,0-.69c4.5-4.84,11-13.32,9.14-15.43-.65-.76-2-1-3.6-.68-3.72.78-8.4,4.55-10.49,11.21l-.09.27-.28.05A22.54,22.54,0,0,0,1920,481.48.48.48,0,0,1,1919.58,481.84Z" style="fill:#de3c0f"></path>
        <path d="M1939.08,513.54l-29.63,6.85c.12-9.27.35-18.6.65-27.63l22.55-3.36C1935.1,497.5,1937.21,505.55,1939.08,513.54Z" style="fill:#ffa88f"></path>
      </g>
      <g id="male_03">
        <path d="M2542.35,466.39s15,36.91,0,45.82c-26.21,15.59-73.54-94.9-73.54-94.9Z" style="fill:#9e189c"></path>
        <path d="M2441,432.81c4-10,14.6-45.46,61.71-41.86,46,3.52,71.6,74.49,10.72,108.93C2464.32,527.67,2423.14,467.89,2441,432.81Z" style="fill:#59330b"></path>
        <polygon points="2393.97 883.47 2405.46 1195.6 2441.81 1195.6 2464.13 883.75 2393.97 883.47" style="fill:#ffa88f"></polygon>
        <polygon points="2489.48 875.16 2550.33 1194.54 2590.35 1194.54 2554.66 875.43 2489.48 875.16" style="fill:#ffa88f"></polygon>
        <path d="M2466.59,907.16,2479.4,751.7h-91.86c-3.7,23.74-1.81,83.09,2.1,155.46C2411.64,913.57,2437.17,913.78,2466.59,907.16Z" style="fill:#0d0d0d"></path>
        <path d="M2563,907.16l-14.11-153.73h-96l33.2,153.73C2513.8,914.28,2539.08,913.06,2563,907.16Z" style="fill:#0d0d0d"></path>
        <path d="M2400.53,1171.06c-3.46,7.92-12.28,10.94-29.85,14-18.92-1.44-27.84,19.59-18.38,28.39h93.52c1.45-6.42.14-25-.85-34.11-8.15,5.43-16.72,4.42-25.57,1C2425.92,1164.15,2401.89,1161.5,2400.53,1171.06Z" style="fill:#267fbf"></path>
        <path d="M2370.68,1185s15.85,1.1,16.94,19h61.07v10.71h-100.2a37.76,37.76,0,0,1,1.4-20C2353.69,1184.22,2369.34,1184.85,2370.68,1185Z" style="fill:#c2e5ff"></path>
        <path d="m2407.5 1182.06 0 0a1.34 1.34 0 0 1-1.77.66l-13.78-6.4a1.35 1.35 0 0 1-.65-1.78v0a1.33 1.33 0 0 1 1.77-.67l13.78 6.4A1.37 1.37 0 0 1 2407.5 1182.06ZM2402.09 1185.77l0 0a1.34 1.34 0 0 1-1.77.66l-13.78-6.4a1.36 1.36 0 0 1-.66-1.79l0 0a1.34 1.34 0 0 1 1.77-.66l13.78 6.4A1.36 1.36 0 0 1 2402.09 1185.77ZM2395.56 1188.48l0 0a1.32 1.32 0 0 1-1.76.66l-13.79-6.4a1.36 1.36 0 0 1-.65-1.79l0 0a1.32 1.32 0 0 1 1.76-.66l13.78 6.4A1.36 1.36 0 0 1 2395.56 1188.48Z" style="fill:#f2f2f2"></path>
        <path d="M2609.87,1183.11c-10.79-2.55-15.27-6.75-18-12.91-1.37-9.56-29.68-5.47-23.15,10.7-8.86,3.42-13.15,3-21.3-2.44-1,9.14-2.3,27.68-.85,34.11h64.74Z" style="fill:#267fbf"></path>
        <path d="M2601.74,1183.87s-18.79,1.41-19.87,19.26h-38.13v10.72h85.68C2634.89,1195.94,2615.27,1178.47,2601.74,1183.87Z" style="fill:#c2e5ff"></path>
        <path d="M2587.67 1184.23h0a1.36 1.36 0 0 0 1.61 1c3.9-3.12 8.95-4 14.78-3.25a1.37 1.37 0 0 0 1-1.63h0a1.36 1.36 0 0 0-1.61-1.05c-5.31-.34-10.31.46-14.78 3.25A1.38 1.38 0 0 0 2587.67 1184.23ZM2581.84 1180.67h0a1.35 1.35 0 0 0 1.61 1c3.9-3.12 8.94-4 14.77-3.25a1.37 1.37 0 0 0 1-1.62h0a1.36 1.36 0 0 0-1.61-1c-5.31-.35-10.31.45-14.78 3.25A1.36 1.36 0 0 0 2581.84 1180.67ZM2576.83 1177.14h0a1.36 1.36 0 0 0 1.61 1c3.9-3.12 8.94-4 14.77-3.25a1.37 1.37 0 0 0 1-1.63h0a1.36 1.36 0 0 0-1.61-1c-5.31-.35-10.31.46-14.78 3.25A1.37 1.37 0 0 0 2576.83 1177.14Z" style="fill:#f2f2f2"></path>
        <path d="M2347.14,687.38c38.58-13.35,66.22-53.18,92.55-80.29l-37.37-53.35c-26.81,29.16-58.54,67.69-71.4,84.77C2305.32,671.17,2327.58,697.65,2347.14,687.38Z" style="fill:#ffa88f"></path>
        <path d="M2407,547.58c-23.5,15.22-44.62,39-61.68,60.88,25.21,5.78,38.87,51.68,33.13,61.39L2432.14,625C2451.57,599.56,2453.87,531.19,2407,547.58Z" style="fill:#ffe301"></path>
        <path d="M2560.13,792.3c-39.82,18.31-152,14.32-177.79-3.4-.35-40.73,1-80.57,5.07-119l1-9.4.18-1.48c4.61-38.28,12.06-75.1,23.3-109.87,19.43-16.83,78.36-21.21,124.38,4.19,5.29,43.1,9.26,77.77,12.84,113.22.35,3.59.71,7.18,1.06,10.77C2553.5,711.42,2556.58,747.05,2560.13,792.3Z" style="fill:#ffe301"></path>
        <path d="M2550.2,677.37c-19.85,1-37.87,1.5-54.18,1.5-56.73,0-92.12-5.52-108.61-8.93l1-9.4.18-1.48c19.11,4.06,71.31,12.38,160.52,7.54C2549.49,670.19,2549.85,673.78,2550.2,677.37Z" style="fill:#fff"></path>
        <path d="M2569.39,586.46s42.23,105.32,45.61,107.86,88.33,74.84,88.33,74.84l-12.72,20.25s-101.51-45.31-123-84.21c-27-35.72-59.22-99-59.22-99C2489.39,576.89,2549.51,541.78,2569.39,586.46Z" style="fill:#ffa88f"></path>
        <path d="M2499.08,571.84s-8.1,18.52,37.62,97.76c29.27,3,57.08-23.93,57.08-23.93s-22.83-88-56.24-94.56S2499.08,571.84,2499.08,571.84Z" style="fill:#ffe301"></path>
        <path d="M2701.13 766.14s33-5.28 33.72 9.09c.39 8-14.24-1.69-13.19 2.53s32.24 16.29 17.27 31.21-41.47-10.07-52.85-22.34S2692.59 759.17 2701.13 766.14ZM2446.55 548.64l1.63-7.07 5.88-25.3 7.75-33.45 41.72 1.14 1.41 70.34C2500.11 579.8 2436.83 569.5 2446.55 548.64Z" style="fill:#ffa88f"></path>
        <path d="M2492.18,509.93s-28.48,26.54-44,31.64l5.88-25.3Z" style="fill:#0d0d0d;opacity:.5;mix-blend-mode:soft-light"></path>
        <path d="M2435,445.62c-14.18,20.47-19.07,54.3,4.54,71.28s59.22,5.47,78.78-22.4,16.27-64.21-7.34-81.18S2448.58,409.6,2435,445.62Z" style="fill:#ffa88f"></path>
        <path d="M2454.26,475.3a.53.53,0,0,1-.24-.06c-.22-.13-5.41-3.31-4.84-7.86.43-3.46,4.28-3,6.82-2.71a8,8,0,0,0,2,.11l3.53-4.77a.45.45,0,0,1,.64-.1.47.47,0,0,1,.09.65l-3.67,5-.11,0a5.52,5.52,0,0,1-2.61,0c-3-.36-5.51-.46-5.81,1.91-.5,3.95,4.36,6.92,4.41,6.95a.46.46,0,0,1,.16.63A.47.47,0,0,1,2454.26,475.3Z" style="fill:#733602"></path>
        <path d="m2452.93 451.1-1.28-.9a8.16 8.16 0 0 0 1.42-3.43c.11-.88-.05-1.54-.43-1.81s-1-.18-1.82.23a8.16 8.16 0 0 0-2.68 2.56l-1.28-.9a9.7 9.7 0 0 1 3.23-3.06 3.22 3.22 0 0 1 3.44-.12 3.3 3.3 0 0 1 1.09 3.3A9.77 9.77 0 0 1 2452.93 451.1ZM2491.32 472.46l-1.28-.9c1.57-2.3 1.82-4.66 1-5.25s-2.92.49-4.5 2.79l-1.28-.9c2.07-3 4.94-4.39 6.67-3.18S2493.4 469.43 2491.32 472.46Z" style="fill:#522601"></path>
        <path d="M2468,498.56c-15.48,0-25.7-12.58-25.83-12.74a.46.46,0,0,1,.07-.65.45.45,0,0,1,.64.07c.16.21,16.87,20.74,39.79,8.5a.45.45,0,0,1,.61.19.47.47,0,0,1-.19.63A31.71,31.71,0,0,1,2468,498.56Z" style="fill:#733602"></path>
        <path d="M2448.18,424.17s10.27-9.63,40.91,10.17c44,28.43,26.56,63.79,26.56,63.79s41.12-46.94,2.19-86.33S2450.65,420,2448.18,424.17Z" style="fill:#59330b"></path>
        <path d="M2525.9,395.8c-47.16-28.53-75.51,16.87-75.51,16.87L2542.21,474S2575.08,425.51,2525.9,395.8ZM2499.63,435l-26.84-19.45s9-12.85,22.09-3.66C2510.62,422.89,2499.63,435,2499.63,435Z" style="fill:#9e189c"></path>
        <ellipse cx="2522.06" cy="485.91" rx="11.24" ry="11.38" style="fill:#ffa88f"></ellipse>
      </g>
      <g id="male_02">
        <path d="M1282.37,536.38C1309.15,533.91,1393.21,641,1393.21,641s93,16.92,108.12,30.43c4.15,7.24-10.16,29.63-21,26.81l-113.5-13s-83.23-46.36-102.92-71.91C1242.32,585.31,1258.53,539.19,1282.37,536.38Z" style="fill:#009345"></path>
        <path d="M1205.9,571.74c-28.34-10.93-30.57-41.91-9.39-53.17s100.46-17.28,95,21.65S1223.4,578.49,1205.9,571.74Z" style="fill:#009345"></path>
        <path d="M1330.74,747c-6.15,171.53-19.85,297.62-33.64,463-25.78,3.33-43.3,2-41.13-12-4.07-134.26-9.21-305.28-23.11-453.65Z" style="fill:#0d0d0d"></path>
        <path d="M1262.58,759c-27.18,169.45-64.38,300.14-98.4,462.5-26,.1-43.21-3.41-39.34-17,8-151.4,31.57-306.43,36-455.39Z" style="fill:#0d0d0d"></path>
        <path d="M1181.13,554.24s34.54-32,112.31-23.45c17.59,17.68,32.44,187.37,35.78,254.27-39.73,28.05-163.54,16.65-169.46.5Z" style="fill:#fff"></path>
        <path d="M1287.73,820.37c23.77-2.32,40.45-5.36,54.29-15.13,3.44-123.31-31-256.77-48.58-274.45-11-12.22-23.35-10.24-23.35.51C1296.45,609.3,1305.23,738.67,1287.73,820.37Z" style="fill:#009345"></path>
        <path d="M1340.27,805.2c.15-9.25.12-18.55-.07-27.83s-.47-18.57-.89-27.85q-1.26-27.84-4-55.59t-7.71-55.17a496.06,496.06,0,0,0-13.12-54.09l1.44-.47a495.26,495.26,0,0,1,13.65,54.18q5.09,27.5,8.22,55.28t4.54,55.71q.75,13.95,1.13,27.92c.27,9.32.39,18.63.32,28Z" style="fill:#3aed86"></path>
        <path d="M1230.36,556.4c-14.27-23.38-61.74-6.87-64.15,25.58,4.48,77.85-9.66,164.89-20.48,222.45,13.12,11.08,62.19,16.35,81.65,15.94C1239.44,756.91,1252.43,623.12,1230.36,556.4Z" style="fill:#009345"></path>
        <path d="M1325.75,1193.11l-12.11-3.73c-8-15.81-42.1-13.85-37.35,5.39-13.38,2-20.42-4.69-20.42-4.69-6,11.5-6.36,23.76-4,36.4h72.26Z" style="fill:#853c28"></path>
        <path d="M1287.59,1226.48c0-.16,0-.33,0-.49a33.33,33.33,0,1,1,66.66,0c0,.16,0,.33,0,.49Z" style="fill:#c77762"></path>
        <path d="M1098.79,1193.11l12.11-3.73c8-15.81,42.11-13.85,37.36,5.39,13.38,2,20.42-4.69,20.42-4.69,6,11.5,6.35,23.76,4,36.4h-72.26Z" style="fill:#853c28"></path>
        <path d="M1137,1226.48c0-.16,0-.33,0-.49a33.33,33.33,0,1,0-66.66,0c0,.16,0,.33,0,.49Z" style="fill:#c77762"></path>
        <path d="M1213.93,538.61c3.49,25.55,69.6,24.77,61.54-8.35l-11.77-66.07L1222,463.07l-4.61,43.3-2.26,21.44Z" style="fill:#ff9475"></path>
        <path d="M1181.61 556.46c-10.62.3-80.73 74.76-97.13 101.13-24 34.25 25.81 49.56 33.73 37.72 37.21-43.7 90.56-74 96.78-80.28C1226.59 603.21 1230.64 555 1181.61 556.46ZM1272.36 513.45c7.25 1.85 16.5 6.1 22.6 15.9 12.8 23.7 1.1 57.94-4.34 84-5.24-35.85-12.57-54.32-18.82-71.1C1273.35 535.2 1275.1 528.15 1272.36 513.45Z" style="fill:#009345"></path>
        <path d="M1298.45,578.72l-.19,0a.88.88,0,0,1-.66-1.05c7.63-34.55-4.76-49.89-4.88-50a.88.88,0,1,1,1.33-1.14c.54.64,13.09,16.07,5.25,51.56A.87.87,0,0,1,1298.45,578.72Z" style="fill:#3aed86"></path>
        <path d="M1223.2,543c6.44,9,16,25.13,8.21,82.23-10.57-21.72-79.53-78.61-34.9-106.7C1191.17,533.67,1216.76,534,1223.2,543Z" style="fill:#009345"></path>
        <path d="M1219.53,585.31a.87.87,0,0,1-.41-.11c-26.75-14.72-36.73-31.93-36.83-32.1a.88.88,0,0,1,.33-1.2.87.87,0,0,1,1.19.33c.09.17,9.87,17,36.14,31.43a.88.88,0,0,1-.42,1.65Z" style="fill:#3aed86"></path>
        <path d="M1214.52,533.07c10.75-2.84,38.3-17.72,47.26-35.44l-44.43,8.74Z" style="fill:#0d0d0d;opacity:.5;mix-blend-mode:soft-light"></path>
        <path d="M1171.06,428.26c-1,1.13-4.06,40.84,21.8,42.14S1184.83,412.26,1171.06,428.26Z" style="fill:#59330b"></path>
        <path d="M1179,456.7c-5.68,26.73,19.39,63.65,49,60.94s54.38-36.16,51.24-70.81S1249.56,386.29,1220,389,1165.82,419.79,1179,456.7Z" style="fill:#ff9475"></path>
        <path d="M1259.46,413.41s-14.63,17.27-54.84,22.56c-36.7,4.83-60.25-9.35-59.07-31.84,8.61,7.77,24-4.7,35.51-13.88,9.51-7.6,64-36.76,82.32,8.74,33.11,9.5,25.92,41.33,18.25,55.47C1266.81,443,1259.46,413.41,1259.46,413.41Z" style="fill:#59330b"></path>
        <path d="M1263.91,427s9.67,20.49,8.29,31c6.38-9.54,12.45-10.26,12.49-10.38S1284.77,422,1263.91,427Z" style="fill:#59330b"></path>
        <path d="M1213.5,472.87c-2.09,0-5.23-.47-6.88-3-1.94-3,1.35-5.19,3.53-6.66a8.51,8.51,0,0,0,1.64-1.27l-.4-6.06a.48.48,0,0,1,.43-.5.48.48,0,0,1,.5.44l.42,6.31,0,.11a5.81,5.81,0,0,1-2,1.75c-2.58,1.74-4.6,3.34-3.27,5.37,2.21,3.38,7.95,2.43,8,2.42a.46.46,0,0,1,.54.38.47.47,0,0,1-.38.54A12.11,12.11,0,0,1,1213.5,472.87Z" style="fill:#733602"></path>
        <path d="M1197.07 452.56c.33 3.17-.74 5.88-2.38 6.05s-3.23-2.27-3.56-5.44.74-5.87 2.38-6S1196.75 449.39 1197.07 452.56ZM1242.1 446.23c.32 3.17-.74 5.88-2.38 6s-3.23-2.26-3.56-5.43.74-5.88 2.38-6.05S1241.77 443.06 1242.1 446.23Z" style="fill:#522601"></path>
        <path d="M1219.71,491.56a32.51,32.51,0,0,1-5.49-.4.47.47,0,1,1,.17-.92c.26.05,26.79,4.72,36.56-20.1a.46.46,0,0,1,.6-.26.48.48,0,0,1,.27.61C1244.54,489,1228.27,491.56,1219.71,491.56Z" style="fill:#733602"></path>
        <path d="M1269.62,462.14a10.24,10.24,0,1,0,6-13.24A10.22,10.22,0,0,0,1269.62,462.14Z" style="fill:#ff9475"></path>
      </g>
      <g id="male_01">
        <polygon points="501.51 1158.91 500.31 1203.08 463.97 1203.08 461.45 1159.16 501.51 1158.91" style="fill:#ffa88f"></polygon>
        <polygon points="363.65 1157.85 355.44 1202.03 315.43 1202.03 321.28 1158.11 363.65 1157.85" style="fill:#ffa88f"></polygon>
        <path d="M518.24,764.45c7.46,47.41-7.83,238.36-16.73,389l-42.67.27-32.46-389.3Z" style="fill:#267fbf"></path>
        <polygon points="320.24 1160.3 356.86 766.17 452.83 766.17 366.67 1160.3 320.24 1160.3" style="fill:#267fbf"></polygon>
        <path d="M459.65,847.74s-24,5.1-54.07-3.57C434.66,863.68,459.65,847.74,459.65,847.74Z" style="fill:#185078"></path>
        <path d="M492.56 830.7c4.41 13.82 13.52 24.36 25.68 31.93v3.5A55.58 55.58 0 0 1 486 834ZM375.07 822.64l6.57 3.34s-9.09 23.18-34.27 32.85l.94-3.79C360.46 847.46 370.67 836.46 375.07 822.64Z" style="fill:#5dade8"></path>
        <path d="M505.25,1178.83c3.46,7.82,12.28,10.81,29.84,13.82,18.93-1.43,27.85,19.35,18.39,28H460c-1.45-6.35-.14-24.67.84-33.7,8.16,5.36,16.72,4.36,25.58,1C479.85,1172,503.89,1169.39,505.25,1178.83Z" style="fill:#195580"></path>
        <path d="M535.09,1192.65s-15.85,1.08-16.93,18.73H457.08V1222H557.29a36.88,36.88,0,0,0-1.4-19.81C552.09,1191.83,536.44,1192.45,535.09,1192.65Z" style="fill:#e6e6e6"></path>
        <rect width="2.71" height="17.83" x="505.04" y="1177.09" rx="1.33" style="fill:#f2f2f2" transform="rotate(-114.63 506.37 1185.998)"></rect>
        <path d="m503.69 1193.36 0 0a1.33 1.33 0 0 0 1.76.66l13.79-6.33a1.33 1.33 0 0 0 .65-1.76l0 0a1.33 1.33 0 0 0-1.76-.66l-13.78 6.33A1.33 1.33 0 0 0 503.69 1193.36ZM510.22 1196l0 0a1.33 1.33 0 0 0 1.76.66l13.78-6.33a1.33 1.33 0 0 0 .66-1.76l0 0a1.33 1.33 0 0 0-1.76-.66l-13.79 6.33A1.33 1.33 0 0 0 510.22 1196Z" style="fill:#f2f2f2"></path>
        <path d="M295.91,1190.74c10.79-2.52,15.27-6.67,18-12.76,1.36-9.45,29.68-5.4,23.15,10.57,8.86,3.38,13.14,3,21.3-2.41,1,9,2.29,27.36.84,33.71H294.42Z" style="fill:#195580"></path>
        <path d="M304,1191.49s18.78,1.39,19.87,19H362v10.59H276.36C270.89,1203.41,290.51,1186.15,304,1191.49Z" style="fill:#e6e6e6"></path>
        <path d="M318.11 1191.84h0a1.36 1.36 0 0 1-1.61 1c-3.9-3.08-8.95-3.92-14.78-3.21a1.35 1.35 0 0 1-1-1.61h0a1.34 1.34 0 0 1 1.6-1c5.32-.35 10.32.44 14.78 3.21A1.35 1.35 0 0 1 318.11 1191.84ZM323.94 1188.33h0a1.36 1.36 0 0 1-1.61 1c-3.9-3.08-8.95-3.92-14.78-3.21a1.36 1.36 0 0 1-1-1.61h0a1.36 1.36 0 0 1 1.61-1c5.31-.34 10.31.45 14.77 3.21A1.36 1.36 0 0 1 323.94 1188.33ZM329 1184.84h0a1.36 1.36 0 0 1-1.61 1c-3.9-3.08-8.95-3.91-14.78-3.21a1.35 1.35 0 0 1-1-1.61h0a1.36 1.36 0 0 1 1.61-1c5.31-.35 10.31.45 14.77 3.21A1.36 1.36 0 0 1 329 1184.84Z" style="fill:#f2f2f2"></path>
        <path d="M504.6 1151.11c0-.21-49.32 0-49.32 0v10.59l49.32 1.06ZM369.93 1157c0-.22-51.79 0-51.79 0L317 1168.1l51.78 1.06Z" style="fill:#5dade8"></path>
        <path d="M558.32,696.22c-39.16-11.35-68.62-49.36-96.19-74.87L497,566.92c28.14,27.52,61.63,64.05,75.27,80.3C599.34,678.25,578.34,705.44,558.32,696.22Z" style="fill:#ffa88f"></path>
        <path d="M492,561.06c24.18,13.91,46.39,36.38,64.44,57.18-39.11,18.92-34.44,57.93-34.14,67.07l-51.83-46.69C449.91,614.47,444.43,547.1,492,561.06Z" style="fill:#9e189c"></path>
        <path d="M513.93,677.75s-2.84-19.75,14.63-41.62,25.84-25.58,28.81-24.21,6.08,5.5,6.08,5.5a9.21,9.21,0,0,1-.6,6.67S545.57,635.57,534.09,653c-14.84,22.48-8.26,35.27-8.26,35.27S518.36,690.48,513.93,677.75Z" style="fill:#de3adc"></path>
        <path d="M369.46,568.5c46.05-25.1,105-20.79,124.41-4.13L523.44,801.2c-25.82,17.52-138,21.45-177.78,3.38C353.29,708.19,358.62,656,369.46,568.5Z" style="fill:#9e189c"></path>
        <rect width="1.75" height="65.84" x="504.96" y="627.35" style="fill:#de3adc" transform="rotate(-6.81 505.684 660.14)"></rect>
        <path d="M391.48,635.92s-75.13,81.42-78.93,83.24-123.64,36.25-123.64,36.25c-11.14-.09-15.66-6.39-11.75-20.6l103.11-46.43,67-103.86C365.57,555.07,423.08,599.22,391.48,635.92Z" style="fill:#ffa88f"></path>
        <path d="M374.82,566.1s-27.95,2.64-79.54,77.21c42.83,41.87,52.91,44.05,52.91,44.05s69.75-62.07,61.47-95.08S374.82,566.1,374.82,566.1Z" style="fill:#9e189c"></path>
        <path d="M286.37,830.42s18.7,27.69,6.14,34.34c-7,3.73-4.52-13.6-7.85-10.89s-.94,36-20.63,28.7-8.53-41.79-2.37-57.23S289,819.76,286.37,830.42Z" style="fill:#ffa88f"></path>
        <path d="M347.52 690.65s-19.4 1.15-40.69-17c-17.63-15.06-17.12-25.68-17.12-25.68a10.38 10.38 0 0 1 8.38-9.13s9.49 17.59 26.18 30.07C345.84 685 359 679.18 359 679.18S360.49 687 347.52 690.65ZM457.76 553.21c8.83 1.72 20.89 9.58 9.91 27.41s-74.47 15.91-77.18-5.13S448.93 551.5 457.76 553.21Z" style="fill:#de3adc"></path>
        <path d="M459.23,563.81l-1.63-7-5.89-25L444,498.78l-41.71,1.13-1.42,69.5C405.67,594.6,468.94,584.43,459.23,563.81Z" style="fill:#ffa88f"></path>
        <path d="M413.6,525.57s28.48,26.22,44,31.26l-5.89-25Z" style="fill:#0d0d0d;opacity:.5;mix-blend-mode:soft-light"></path>
        <path d="M470.06,457.55c15,21.39,20.16,56.72-4.8,74.45s-62.6,5.72-83.27-23.39-17.2-67.07,7.76-84.79S455.74,419.94,470.06,457.55Z" style="fill:#ffa88f"></path>
        <path d="M449.75,488.56a.47.47,0,0,1-.42-.24.49.49,0,0,1,.17-.66c.05,0,5.18-3.13,4.66-7.25-.32-2.48-3-2.37-6.14-2a6,6,0,0,1-2.76,0l-.11-.05-3.89-5.2a.5.5,0,0,1,.1-.68.49.49,0,0,1,.68.1l3.72,5a9.55,9.55,0,0,0,2.14-.11c2.69-.32,6.75-.79,7.21,2.82.61,4.76-4.88,8.07-5.12,8.21A.44.44,0,0,1,449.75,488.56Z" style="fill:#733602"></path>
        <path d="M451.15 463.28a10.08 10.08 0 0 1-1.79-4.32 3 3 0 0 1 4.79-3.31 10.15 10.15 0 0 1 3.42 3.19l-1.36.94a8.53 8.53 0 0 0-2.83-2.67c-.82-.43-1.52-.52-1.93-.24s-.57 1-.45 1.88a8.56 8.56 0 0 0 1.5 3.59ZM410.56 485.58c-2.19-3.16-2.46-6.5-.63-7.76s4.86.16 7.05 3.32l-1.35.94c-1.66-2.4-3.88-3.52-4.76-2.91s-.61 3.08 1.05 5.48Z" style="fill:#522601"></path>
        <path d="M435.19,512.85a33.9,33.9,0,0,1-16-4.18.49.49,0,0,1-.2-.65.47.47,0,0,1,.65-.2c24.23,12.78,41.89-8.66,42.06-8.88a.49.49,0,0,1,.68-.08.48.48,0,0,1,.07.68C462.35,499.71,451.55,512.85,435.19,512.85Z" style="fill:#733602"></path>
        <path d="M467.16,451s-6.13-23.05-36.51-19.52c4.46,6.68,14.77,10.92,25.85,14.85,0,0-26.21,8.14-46-1.16,2.83,7.84,13.94,13.32,13.94,13.32s-18.72,8.66-30.27,1.13c3.47,16.51-6.91,40.5,2.79,64.95-32.06-17.75-45.29-23.74-52.65-46.25-10.56-32.29,21.49-66,52.3-76.21C452.18,381.6,477.84,414.33,467.16,451Z" style="fill:#0d0d0d"></path>
        <path d="M399.39,494.28A10.56,10.56,0,1,1,385.85,488,10.55,10.55,0,0,1,399.39,494.28Z" style="fill:#ffa88f"></path>
        <path d="M453.75 474.83c.88 2.43 5.83 2.86 11.06 1s8.75-5.4 7.87-7.83-5.83-2.86-11.05-1S452.87 472.4 453.75 474.83ZM407.78 497.54c.88 2.43 6 2.8 11.5.82s9.19-5.55 8.32-8-6-2.8-11.5-.82S406.9 495.11 407.78 497.54Z" style="fill:#ff9475"></path>
      </g>
      <g id="lady_02">
        <path d="M1750.69,566.71l42.53,102.65,94.39,73.21-16.56,11s-68-27.63-89.47-46.39c-22.2-9-90.93-114.63-83.62-143.62C1703,543.75,1742.8,532,1750.69,566.71Z" style="fill:#ffa88f"></path>
        <path d="M1753.68,559.93l-7.82,21.32s-14.93,30.7-52.15,21.9c-9.48-4.94-.83-77.76-.83-77.76S1729.4,526.59,1753.68,559.93Z" style="fill:#f13005"></path>
        <path d="M1645.68,403.11s-12.18-18.94-40.36-12.9c-68,14.57-27.4,132.05-93.66,215.31,38.51,60.87,107.55,16,107.55,16S1656.51,444.06,1645.68,403.11Z" style="fill:#0e0e0e"></path>
        <path d="M1673.41,785.76l103.65,393,28.85,1.12-42.14-401.29C1747.81,682.78,1655.55,724.09,1673.41,785.76Z" style="fill:#fe931f"></path>
        <path d="M1603.25,777.59c-.08,130.34,10.35,387.72,10.35,387.72l33.5-1.89L1700.46,781C1702.94,727.4,1614.85,701,1603.25,777.59Z" style="fill:#fe931f"></path>
        <path d="M1830.35,1225.28c-.71-6-18.81-12.63-18.81-12.63l-7.41-51.4v-1.38h-34l-3.38,20.6,27.1,44.81Z" style="fill:#0d0d0d"></path>
        <polygon points="1771.46 1225.28 1787.43 1177.75 1766.69 1180.33 1766.72 1225.28 1771.46 1225.28" style="fill:#0d0d0d"></polygon>
        <path d="M1658.87,1227.45c7.48-5.61-7.71-12.63-7.71-12.63l-4.06-51.4V1162h-33l-3.38,20.6,17.15,44.81Z" style="fill:#0d0d0d"></path>
        <polygon points="1615.48 1227.45 1631.45 1179.93 1610.71 1182.51 1610.74 1227.45 1615.48 1227.45" style="fill:#0d0d0d"></polygon>
        <path d="M1735.05,677.18l-92.85,5.27c-2.72-17.24-32.2-92.05-20.61-126-1.25-23.23,80.94-36.9,93.29-23.16s26.65,32.22,30.52,45.2S1735.05,677.18,1735.05,677.18Z" style="fill:#f13005"></path>
        <path d="M1649.35,536.67s14.07,23,49.81,30.45c15.35-17.79-3.88-41.72-3.88-41.72a49.7,49.7,0,0,0-46.84,12.15Z" style="fill:#ffa88f"></path>
        <path d="M1736.64,561.63c4.48,6.51,8.23,13.93,9.07,21.31l.72-.08c-.86-7.54-4.69-15.1-9.25-21.71C1737,561.31,1736.82,561.46,1736.64,561.63Z" style="fill:#fff"></path>
        <path d="M1698.43,485.1c-.35,8.41-2.44,47.54-2.75,55.21-10.13,9.7-46.12,8.22-47.06-5.7L1659,473.33Z" style="fill:#ffa88f"></path>
        <path d="M1698.43,485.1l-1.68,40c-16.94-8.77-27.51-25.5-32.52-41.14a57.42,57.42,0,0,1,18.69-3.47Z" style="fill:#0d0d0d;mix-blend-mode:soft-light;opacity:.6"></path>
        <path d="M1742.62,429.11C1755,462.88,1741,497,1724.38,504c-27,11.38-68.92-4.26-81.26-38s-.07-69.39,27.4-79.57S1730.28,395.34,1742.62,429.11Z" style="fill:#ffa88f"></path>
        <path d="M1719,462.12a.55.55,0,0,1-.38-.62.54.54,0,0,1,.62-.45c2.21.38,4,.14,5-.67a2.37,2.37,0,0,0,.93-1.74c.07-1-1.36-1.94-3.18-3.08a20.65,20.65,0,0,1-6-5l-2.53-3.79a.54.54,0,0,1,.9-.6l2.52,3.76a19.62,19.62,0,0,0,5.65,4.7c2.12,1.34,3.8,2.4,3.68,4.09a3.47,3.47,0,0,1-1.34,2.52c-1.3,1-3.33,1.33-5.88.89Z" style="fill:#94503c"></path>
        <path d="M1697.32,442.67c.55,2.18-.35,4.28-2,4.71s-3.46-1-4-3.18.35-4.29,2-4.71S1696.78,440.49,1697.32,442.67Z" style="fill:#6e3b2d"></path>
        <ellipse cx="1731.15" cy="434.88" rx="3.1" ry="3.93" style="fill:#6e3b2d" transform="rotate(-17.98 1731.446 434.898)"></ellipse>
        <path d="M1723.71 429.84a.54.54 0 0 1-.37-.66 7.31 7.31 0 0 1 5.51-5.46 5.08 5.08 0 0 1 5.25 2 .55.55 0 0 1-.11.77.54.54 0 0 1-.76-.11 4 4 0 0 0-4.17-1.56 6.31 6.31 0 0 0-4.67 4.66.54.54 0 0 1-.66.39ZM1686.91 439.32a.55.55 0 0 1-.37-.66 7.32 7.32 0 0 1 5.51-5.47 5.1 5.1 0 0 1 5.25 2 .55.55 0 0 1-.11.77.54.54 0 0 1-.76-.11 4 4 0 0 0-4.17-1.56 6.31 6.31 0 0 0-4.67 4.66.54.54 0 0 1-.66.39Z" style="fill:#94503c"></path>
        <path d="M1714.29,389.89s-53.63,52.57-56.61,110.43c-40.88-34.72-49-69-26.52-100C1651.25,372.6,1690.07,370.66,1714.29,389.89Z" style="fill:#0e0e0e"></path>
        <path d="M1708.22,396.34s20.6,6.69,33.87,31.39c-6.57-27.56-39.64-74.71-93.16-43.27S1708.22,396.34,1708.22,396.34Z" style="fill:#0e0e0e"></path>
        <ellipse cx="1662.13" cy="466.5" rx="12.52" ry="12.6" style="fill:#ffa88f"></ellipse>
        <path d="M1662.93,514.86l-.61-.19A21.15,21.15,0,0,1,1650,504.05a21.56,21.56,0,0,1,5.64-26.4l.93,1.16a20,20,0,0,0-5.24,24.56,19.72,19.72,0,0,0,36.4-2.89,19.88,19.88,0,0,0-21.09-25.91l-.17-1.48a21.4,21.4,0,0,1,12.11,40.3A21,21,0,0,1,1662.93,514.86Z" style="fill:#fff"></path>
        <path d="M1709.67,484.76a9.34,9.34,0,0,1-3.77-2,.55.55,0,0,1,0-.77.53.53,0,0,1,.76,0c.12.1,8.52,7.78,25.58-6.57a.54.54,0,0,1,.76.07.55.55,0,0,1-.07.77C1721.54,485.82,1713.85,486,1709.67,484.76Z" style="fill:#94503c"></path>
        <path d="M1642.2,682.45s-41.11,42.47-39,95.14c47.57,12.94,159.81-2.86,159.81-2.86-3.31-34.94-8-62.52-28-97.55C1666,677.18,1642.2,682.45,1642.2,682.45Z" style="fill:#fe931f"></path>
        <path d="M1614.91,554.13c-20.26,21.11-60.77,79.34-75,118.79-6.89,22.5,33.09,29.61,50.74,0l58.16-81.78C1666.7,560.42,1629,539.43,1614.91,554.13Z" style="fill:#ffa88f"></path>
        <path d="M1603.12,567.75s34.7,2.92,34.71,38.82c22.35.34,26-54.62,7.28-61.05S1612.5,555.58,1603.12,567.75Z" style="fill:#f13005"></path>
      </g>
      <g id="lady_01">
        <path d="M3794,556.51s22.62-1.25,34.11,19.61-3.26,40-3.26,40,41.81,1.26,46.4,41.85S3840,704.31,3840,704.31s14.32,31.11-20.48,55-68.2-20.83-68.2-20.83-28.94,11.35-51.87-18.44,2.73-59.49,2.73-59.49-16.89-12.9-12.94-43.94,28.21-31.53,28.21-31.53-11.31-18.56,1.47-32,32.9-1.43,32.9-1.43,6.19-23.47,22.27-20.12S3794,556.51,3794,556.51Z" style="fill:#0d0d0d"></path>
        <path d="M3701.84,627.6l-38.72,82.69-105.54,30.15,2.66,18.92s120.62-6.21,133-23.66c18.11-25.57,57.36-82.37,56.85-98.64S3714.2,598.31,3701.84,627.6Z" style="fill:#ffa88f"></path>
        <path d="M3661.47,755.34c8.58-51,2.5-80.93,8.76-96.72s32.39-40.5,43.28-44.43c29.61-10.67,70.06,2.54,73.86,46.16,3.07,35.14-45.19,102.55-45.19,102.55Z" style="fill:#267fbf"></path>
        <path d="M3771.6,843.53,3704,962.67v0l-6.88,12L3666,1029.59l0,.07c1.27,61.56-26.79,119.7-45,161.78l-27.65,8.49,28.61-173.17,8.37-50.7,22.81-138,40.16,1.87Z" style="fill:#ffa88f"></path>
        <path d="M3823.06,1181.37l-22.63,10.07s-77.33-126.44-86.78-161.65c-.13-.43-.22-.89-.35-1.35-2.64-10.62-5.41-30.53-8-53.69-.44-3.92-.89-8-1.3-12v0c-5.19-48.79-9.55-106.6-10.73-122.76-.22-2.86-.31-4.41-.31-4.41l94.44,2.54-22.21,138.81L3758,1021.6a3.17,3.17,0,0,1,.26.33C3785,1055.09,3807.94,1116,3823.06,1181.37Z" style="fill:#ffa88f"></path>
        <path d="m3594.24 1193.39-7.72 32s-12.06 1.18-13.3 7.33h33.26l11.86-31.18v31.18h4.55s11.86-26.52 10.74-37.84-6.42-17.8-6.42-17.8ZM3800.42 1191.46l12.15 23.16s-5.54 12.48-4.38 19c9.15 0 23.75-17.65 23.75-17.65l-6.19-29L3841.3 1210l3-2.28s-8-30.9-14.69-38.76-11.56-8.44-11.56-8.44Z" style="fill:#ffe3db"></path>
        <path d="M3630.28 976.06c12.44-.49 38.28-1.31 66.82-1.35L3666 1029.59c-18.74-.49-34.43-1.84-44-2.83ZM3758 1021.6a3.17 3.17 0 0 1 .26.33 305.33 305.33 0 0 1-45 6.51c-2.64-10.62-5.41-30.53-8-53.69 20.34.09 41.53.65 59.89 2.1Z" style="fill:#0d0d0d;mix-blend-mode:soft-light;opacity:.6"></path>
        <path d="M3741.39,752.14c44.55,24.56,78.25,177.12,89.76,235.42-13.72,19-171.49,40.81-216.36,23.53.95-64.49,33.32-184.14,47.8-260.84Z" style="fill:#267fbf"></path>
        <path d="M3720.55,620.69s-8.67,14.81,3.12,20.33,49.82-7.26,49.06-17.29S3736,609.16,3720.55,620.69Z" style="fill:#fff"></path>
        <path d="M3718.94,623.94s-15.21,4.35-12.68-5.55c3.35-13.08,60.1-11.94,66.3,4.46C3774.7,628.51,3718.94,623.94,3718.94,623.94Z" style="fill:#fff"></path>
        <path d="M3774.36,578.7l-5.06,42.12c-1.7,9.32-51.61,7.68-44.37-5.87l4.72-10.29,9.57-20.87,5.86-12.82Z" style="fill:#ffa88f"></path>
        <path d="M3764.46,590.38c-9.59,15.37-29.35,14.78-34.81,14.28l12-26.2C3754.93,571.49,3771.61,578.93,3764.46,590.38Z" style="fill:#0d0d0d;mix-blend-mode:soft-light;opacity:.6"></path>
        <path d="M3689.71,648.45a2.64,2.64,0,0,1-1.5-.41c-1.88-1.25-2.73-2.77-2.54-4.5,1-8.78,30.93-20.06,32.21-20.54a.63.63,0,0,1,.75.26.68.68,0,0,1-.06.81C3716.26,626.72,3697.11,648.45,3689.71,648.45Zm26.12-23.24c-9.67,3.85-28.23,12.44-28.89,18.47-.13,1.22.51,2.28,2,3.25C3692.38,649.25,3706.55,635.57,3715.83,625.21Z" style="fill:#fff"></path>
        <path d="M3707.36,660.68a4.29,4.29,0,0,1-4.14-2.12c-4.11-7.6,13.59-34.18,14.35-35.31a.64.64,0,0,1,.75-.25.67.67,0,0,1,.41.69c-.38,3.75-3.93,36.59-10.86,37Zm9.81-34.45c-5.59,8.74-15.66,26.47-12.84,31.68.58,1.07,1.71,1.54,3.47,1.44C3711.92,659.11,3715.57,639.92,3717.17,626.23Z" style="fill:#fff"></path>
        <path d="M3709.81,522.51c-16,32.15-8,70.7,6.15,78.09,24.69,15.29,55.12,1.47,68.69-33.13,12.69-32.33,15.68-64-9-79.25S3716.72,497.18,3709.81,522.51Z" style="fill:#ffa88f"></path>
        <path d="M3741.36,579s-19.79-2.77-26.12-5.78c-3.06,17.72,13.43,19.1,17,17.81C3739.76,588.25,3740.85,584.1,3741.36,579Z" style="fill:#f13005"></path>
        <path d="M3724.73 563.18a.29.29 0 0 1-.16 0c-.22 0-5.32-.94-6.2-3.44a3 3 0 0 1 .78-2.92l.07-.08.1 0a15.42 15.42 0 0 0 6.84-4.55.36.36 0 0 1 .52 0 .4.4 0 0 1 0 .54 16 16 0 0 1-7.05 4.72 2.14 2.14 0 0 0-.58 2.08c.61 1.73 4.27 2.72 5.63 3a.38.38 0 0 1 .3.44A.37.37 0 0 1 3724.73 563.18ZM3751.92 548.11c-.38 2 .52 3.85 2 4.15s3-1.07 3.36-3.07-.52-3.85-2-4.15S3752.3 546.12 3751.92 548.11ZM3717.25 540.71c-.5 1.89.27 3.77 1.72 4.18s3.05-.79 3.55-2.69-.27-3.76-1.72-4.18S3717.75 538.81 3717.25 540.71Z" style="fill:#0e0e0e"></path>
        <path d="M3763.94,524.42c1.09-.6-3.35,29.13,26.7,40.53,33.39-22,26.79-95-32.61-82.37-21.43,8.59-37-9.86-55,1.13C3666.07,515.58,3727,544.91,3763.94,524.42Z" style="fill:#0d0d0d"></path>
        <ellipse cx="3783.24" cy="567.69" rx="10.1" ry="10.44" style="fill:#ffa88f"></ellipse>
        <path d="M3798.7,757.5c1,19,24.36,23.5,34.09,17,4.3-35.24-40.67-119.27-51.74-127.21-12.8-9.18-44.69,8.9-29.47,36.31Z" style="fill:#ffa88f"></path>
      </g>
      <polygon points="3864.89 1233.85 233.2 1229.54 233.2 1225.23 3864.89 1229.54 3864.89 1233.85" style="fill:#b1b1f2"></polygon>
      <path d="M3872.74,790.44c-16.67-5.67-41.53-8.51-54.86-11-36.93-6.91-74.16-12.4-111.23-18-107.62-16.22-216.72-24.75-325.09-29.72-140.78-6.46-281.35,7.41-421.5,24.42-116.25,14.11-231.45,28-348.25,19.48-61-4.46-121.93-9.56-181.35-26.38-52-16.77-103.64-33-157.9-39.53-55.93-1.72-109.28,9.22-162.88,25-76.3,23.72-152,46.89-230.5,19.9-34.31-14.82-68.58-28.72-104.59-38.42-36.85-7.16-73.85-11.32-111.21-14.12-39.37-2.31-78.77-4-118.13-6.52-42.48-4.15-84.66-11-127.24-14.19-80.79.63-155.72,30-232.44,52.93-43.38,11.46-86.08,18.72-130.93,15.88-44.8-8.28-87.18-25.18-130.92-37.73-80.9-18.58-163-25.57-245.67-27.76-87.72-1.22-175.14,2.09-262.1,14.74-88,14.93-174.35,37-259.37,65Q151.81,799,147,833.59c87-20.21,174-40.27,262.06-55.1a1426.63,1426.63,0,0,1,262.81-14.41,1850.37,1850.37,0,0,1,249.89,30.63c44,9.88,87.32,22,132.15,26.95,44.77.69,88.12-6,131.76-15.87,77.65-19.72,154.17-44,234.71-45.42,40.59,2.08,80.92,7.07,121.42,10.35,39.69,2.21,79.4,3.79,119.09,5.84a1156.55,1156.55,0,0,1,219,37.24c79.76,17.88,157.71,1.9,236.48-13.89,53.53-10.36,106.94-18.68,161.45-19.95,55.29,2.68,108.83,14.88,162.83,26.75,87.21,17.29,176,26.4,264.8,22.76,86.87-3.57,172.94-18.15,258.83-30.9,134.93-20,269.83-34.61,405.79-27.2a3105.19,3105.19,0,0,1,327.76,35.8c56,9.09,112,19.08,167.27,32.86C3865.79,823.24,3867.92,806.46,3872.74,790.44Z" style="fill:#ab3394"></path>
      <path d="M3865,860.08a302.32,302.32,0,0,1,.77-31c-17-5.92-43.39-7.65-58.12-10-37.14-5.79-74.51-10.36-111.61-16.12a3243.43,3243.43,0,0,0-327.75-34.31c-136-7.11-270.87,6.86-405.79,26.07-85.9,12.23-172,26.2-258.84,29.62-88.82,3.49-177.59-5.24-264.79-21.82-54-11.38-107.55-23.08-162.84-25.65-54.51,1.23-107.92,9.21-161.45,19.14-78.77,15.13-156.72,30.45-236.48,13.31a1202.78,1202.78,0,0,0-219-35.7c-39.7-2-79.41-3.48-119.1-5.6-40.5-3.14-80.83-7.92-121.42-9.92-80.53,1.31-157,24.63-234.71,43.54-43.64,9.49-87,15.88-131.75,15.21-44.83-4.76-88.19-16.36-132.16-25.83a1926.38,1926.38,0,0,0-249.89-29.36,1487.43,1487.43,0,0,0-262.81,13.81c-88,14.21-175,33.44-262.06,52.82l-8.49,58.88c88.34-10.1,175.92-25.49,263.94-37.94C488.21,838.2,576,833.88,664.13,838.53c85.48,6.36,170.3,18.27,255.12,30.37,44.41,6.51,88.65,12.93,133.55,14.77,44.52-1,88.27-6.55,132.09-14.22,77.45-14.88,154.34-32,233.46-34.53,79.41.15,158.78,3,238.18,4.24,75.1,1.2,149.9,5,224.45,14.42,79.9,9,160,3.24,240.05-.42,109.13-3.86,217.43,4.93,324.28,27.64,59.35,12.29,119.53,17.55,179.77,21,112.28,6.47,223.68-10.48,334.42-29.1,151.63-25.5,300.74-41.58,454.35-24.86,87.51,9.53,176.89,25.65,262.14,38.93,59.53,9.27,129.19,21.34,193,30.71C3867.07,898.39,3865.43,879.24,3865,860.08Z" style="fill:#2f83c5"></path>
      <path d="M3873.51,960.59c-1.4-14.31-3-28.65-4.49-43-64.63-8.72-128.78-19.85-193-30.79-117-19.92-233.86-43-352.61-50-122.2-7.21-244.41,12.19-363.88,36-110.5,22-221.86,35.68-334.42,29.1-60.29-3.53-120.42-8.73-179.77-21-106.85-22.71-215.15-31.5-324.28-27.64-80.05,3.66-160.15,9.41-240.05.42-74.55-9.45-149.35-13.22-224.45-14.42-79.4-1.2-158.77-4.09-238.18-4.24-79.12,2.51-156,19.65-233.46,34.53-43.82,7.67-87.57,13.24-132.09,14.22-44.9-1.84-89.14-8.26-133.55-14.77-84.82-12.1-169.64-24-255.12-30.37-88.17-4.65-175.92-.33-263.48,10.79-88,12.45-175.6,27.84-263.94,37.94l-9.84,68.15c89.56-2.6,178.06-15.44,266.68-27.73,87.82-11.37,175.75-17,264.2-10.4,86.78,8.91,172.75,24.18,259.51,33.28C1006.91,957.5,1096,952,1185,940.09c77.45-11.23,154.74-23.19,233-27,78.65-2,157.29-.62,236-.36,157.75.06,316.44-5.23,473.95,4.53,110.05,7.21,219.63,18.42,327.42,42.42,59.28,12.78,119.47,17.77,179.73,21.15,110.39,6.19,219.16-10.77,327.63-30.92,118.19-22,236.41-43.91,357.26-37,120.51,6.89,239,33.21,357.4,54.13,66.16,11.7,132.71,21.45,199.84,26.59Q3875.16,977.18,3873.51,960.59Z" style="fill:#01ac53"></path>
      <path d="M3888.62,1068.92q-7.07-39.43-11.89-79c-33.85-11.91-137.44-11.77-199.36-22.78C3558.92,946,3440.48,919.86,3320,913c-120.85-6.92-239.07,15-357.26,37-108.47,20.15-217.24,37.11-327.63,30.92-60.26-3.38-120.45-8.37-179.73-21.15-107.79-24-217.37-35.21-327.42-42.42-157.51-9.76-316.2-4.47-473.95-4.53-78.66-.26-157.3-1.64-236,.36-78.26,3.76-155.55,15.72-233,27-89,11.92-178.12,17.41-267.77,10.47-86.76-9.1-172.73-24.37-259.51-33.28-88.45-6.61-176.38-1-264.2,10.4C304.93,940,216.43,952.81,126.87,955.41q-6.06,42.09-12.14,84.16c178.5-18.94,355.8-58.41,536.19-43.39,87.54,9.9,174.05,27,261.56,37.1,90.93,7.64,181,.35,270.73-15C1261,1004,1338.63,990,1418,990c81.27,2.77,162.34,9.35,243.62,11.63,158.31,2.69,316.74-5.7,474.94-1.06,53.46,1.92,106.77,5.71,160.07,10.28,57.73,6.34,114.14,18.5,170.33,33,59.38,14.4,119.92,19.27,180.56,22.64,109.72,6.1,218.18-11.09,326.38-29.27,118.36-19.9,235.68-36.5,356-28,123,8.69,244.69,31.42,366,51.81,65.37,11,131.11,20.43,196.74,30.23Q3890.63,1080.07,3888.62,1068.92Z" style="fill:#f5ea14"></path>
      <path d="M3891.85,1086.79c-36.22-12.25-135.79-15.63-195.94-25.81-121.41-20.53-243-43.12-366-51.81-120.32-8.49-237.64,8.11-356,28-108.2,18.18-216.66,35.37-326.38,29.27-60.64-3.37-121.18-8.24-180.56-22.64-56.19-14.47-112.6-26.63-170.33-33-53.3-4.57-106.61-8.36-160.07-10.28-158.2-4.64-316.63,3.75-474.94,1.06-81.28-2.28-162.35-8.86-243.62-11.63-79.38,0-157,14-234.8,28.29-89.77,15.35-179.8,22.64-270.73,15-87.51-10.11-174-27.2-261.56-37.1-180.39-15-357.69,24.45-536.19,43.39l-13,90c178.81-35,359.17-71,542.18-52.45,88.29,11.61,175.29,31.09,263.54,43,45.81,5,91.34,7.2,137.38,4.26,46.06-5.26,91.27-14.38,136.46-24.61,78.11-18,156-35.15,236.69-31.49,42.83,4.57,85.25,12.08,127.93,17.82,41.92,4.6,83.91,8,126,10.63q118.83,6.29,237.81,5.6c79.49-1.87,158.65-10.12,238.13-12.65,53.26-1,106.38.66,159.54,3.78,57.82,5.3,114.08,17.9,170.38,31.7,59.34,13.44,119.74,18,180.13,20.61,108.1,4.7,215.33-11.92,322.22-28.65,118-18.46,233.91-30.76,353.49-23.41,125.39,7.71,250,25.67,374,44.74,66.26,10.19,132.78,19.19,198.42,33C3902.1,1143.16,3897,1115,3891.85,1086.79Z" style="fill:#f69126"></path>
      <path d="M3906.88,1177.27c-.42-3.07-.86-6.13-1.3-9.2-30.77-14.45-132.5-21.14-193-30.53-124.75-19.36-250.19-37.12-376.37-44.55-120.53-7.1-237.17,5.57-356.06,24.18-106.89,16.74-214.12,33.35-322.22,28.65-60.39-2.62-120.79-7.17-180.13-20.61-56.3-13.8-112.56-26.4-170.38-31.7-53.16-3.12-106.28-4.82-159.54-3.78-79.48,2.53-158.64,10.78-238.13,12.65q-119,.78-237.81-5.6c-42.09-2.6-84.08-6-126-10.63-42.68-5.74-85.1-13.25-127.93-17.82-80.66-3.66-158.58,13.45-236.69,31.49-45.19,10.23-90.4,19.35-136.46,24.61-46,2.94-91.57.79-137.38-4.26-88.25-11.94-175.25-31.42-263.54-43-183-18.55-363.37,17.42-542.18,52.45q-6.3,43.7-12.61,87.41a1893.25,1893.25,0,0,1,275.68-54.47c90.65-9.47,181.23-13.58,272-3.68,89.09,12.67,176.62,34.1,265.65,47.15,46.27,5.53,92.15,7.91,138.68,4.35,46.88-6.37,92.57-17.38,138.23-29.57,77.53-21,154.85-40.54,235.78-33.35,46,7.42,91.11,18.75,136.87,27.14,42.46,6.41,85.06,11.18,127.85,14.69,81,5.47,162,7.09,243.16,6.15,78.14-2.58,155.85-13.33,233.81-19a1353.56,1353.56,0,0,1,160-1.11c55.69,5.26,110.46,16,165.46,25.83,59.65,9.55,119.87,13.68,179.91,14.91,107.17,2.2,213.51-15.29,319.43-32.63,117.61-19.26,233.05-31.27,352.44-26.67,126.91,4.88,253.55,17.71,379.29,34.36,66,8.74,132.17,17.63,197.46,31.22C3910,1207.24,3908.88,1192.21,3906.88,1177.27Z" style="fill:#ec2227"></path>
      <path d="M3802.3,741.38l-84.2,9.54,2.09,18.76s89.41,18.7,112.6-4.83C3834.76,764.06,3802.3,741.38,3802.3,741.38Z" style="fill:#ffa88f"></path>
      <path d="M3729.35,766.48c-10.78,17.06-18.38,17.6-25.29,19.07-10.2,2.17-25.16-4-23-9.19,0,0,14.93-4.36,15.12-5.18s-21,7.84-22.51,3.61c-1-2.86,38.53-21,38.53-21s9.35-2,14.39,2C3729,757.67,3732.24,762.27,3729.35,766.48Z" style="fill:#ffa88f"></path>
      <path d="M3712.14,751.35c-8.62.17-17.21,1.21-25.74,5.12,1.33,7.1,12.19,1.45,16.35,3.52,1.79.89,6.23,7.23,14.58,5.78S3727.71,750,3712.14,751.35Z" style="fill:#ffa88f"></path>
      <path d="M3682.78 780.74a.22.22 0 0 1-.12-.17.22.22 0 0 1 .19-.25c.11 0 11.3-1.61 19.05-5.14a.22.22 0 1 1 .18.4c-7.81 3.56-19.06 5.16-19.17 5.18A.27.27 0 0 1 3682.78 780.74ZM3688.11 784a.22.22 0 0 1 .09-.42c.12 0 11.81-.66 19.3-4.79a.22.22 0 1 1 .21.39c-7.58 4.18-19.37 4.83-19.49 4.84Z" style="fill:#f07552"></path>
      <path d="M2360.24,709.74a567,567,0,0,0,100.31,48.45l14.69-11.45c-17.3-19-62.85-67.28-102.58-85.82-21.7-10.12-44.38-19.1-51.43,1.84C2316.85,675.77,2328,690.27,2360.24,709.74Z" style="fill:#ffa88f"></path>
      <path d="M2892.79,796.58c-7.94-11.27,37.41-53.31,96.09-83.5,2.11-54.35,3.93-87.47,11.66-123.08,3.64-18.14,54.5,3.4,54.5,44.3s3.23,101.6-13.76,127c-15.29,17.54-107.11,68.8-129.29,61.61C2904.62,825.19,2887.45,805.92,2892.79,796.58Z" style="fill:#ff9591"></path>
      <path d="M2910.55,824.77s6.33-2.12,4.81-12.16-14.25-29.21-23.62-21C2882.79,799.42,2902.35,829.46,2910.55,824.77Z" style="fill:#f06e69"></path>
      <path d="M3014.8,782.28a1,1,0,0,0,.54-.15c17.84-10.79,29.11-23.21,34.45-38,6.92-19.09,6.35-98.15,6.32-101.51a1,1,0,0,0-1-1h0a1.05,1.05,0,0,0-1,1c0,.82.6,82-6.19,100.79-5.18,14.29-16.17,26.36-33.58,36.89a1,1,0,0,0-.35,1.43A1,1,0,0,0,3014.8,782.28Z" style="fill:#ed512d"></path>
      <path d="M2891.77 796.4 2859.14 802s-2.45 1.68 3.06 5.54 15.81 1 15.81 1-29.2 21-26.93 24.6 26.44 11.16 37.78 5.87 16.9-14.94 19-18.41S2905.06 793.06 2891.77 796.4ZM563.83 650l-104.6 34.36 2 17.35s108.51 2.54 116.37 2.54C589.24 704.28 607.77 666.72 563.83 650Z" style="fill:#ffa88f"></path>
      <path d="M459 684.4s-25.79 14.71-26.56 23.12 31.49 10.1 32.68.74c-.21-3.55-3.29-1.62 4.68-8.71S471.23 682.11 459 684.4ZM177.16 734.81s-27.74 10.82-23 31.36c18.73 10.83 35.12 2.93 35.12 2.93s1.82-17.61 9.72-24.29S191.61 725.81 177.16 734.81Z" style="fill:#ffa88f"></path>
      <path d="M1185.08,722.71s13.39,3.32,15,5.27a31.76,31.76,0,0,0-6.06,5.57c3.92,7.21,13.08,7.48,15.11,13.58s-24.73,22.27-30.22,12.06a149.67,149.67,0,0,1-9.35-22.53Z" style="fill:#f3bb88"></path>
      <path d="M1081.2,686.74c8,23.55,80.37,64.24,91.46,58.45.26-.13,17-8.25,16.29-21.54,3.16-4.9-33-42.14-72-69.31C1090.29,638.62,1069.91,662.93,1081.2,686.74Z" style="fill:#009345"></path>
      <path d="M1500.49,672.2s23.7,16.47,19,25.35-39.39,6.42-39.2-1.07,4.66-6.85,4.66-6.85l-8.88-1.16C1471.26,682.47,1481.83,662.44,1500.49,672.2Z" style="fill:#f3bb88"></path>
      <path d="M1552.21,690.28c24,8.48,117.61,28.67,117.61,28.67l2.61-15.73-99.37-50.29C1540.14,649.33,1535.16,681.34,1552.21,690.28Z" style="fill:#ffa88f"></path>
      <path d="M1672.43 703.22s18.07-5 26.32-2.48 21.52 7.14 21.52 7.14-9.78 11.39-15.16 12.83-16-.56-18.91-.76-15.51 4.58-19.09-1S1666.4 704.48 1672.43 703.22ZM1891.78 742.77s20.27 14.1 14 20.54-41.21-1.88-34.13-6-10.8-7-6.11-15.49S1882.92 736.46 1891.78 742.77ZM2267.48 703.07v1.2c7.81 5.17 8.15 9.92 6.21 14.55 0 0 22.92 9.86 25.64-3.22S2262.23 692.28 2267.48 703.07ZM2452.13 754s3.15 28.78 7.67 30.22 24.42-7.24 26.54-13.49 1.37-11.29-11.93-25.37S2445 741.64 2452.13 754ZM2780.47 771.54s-3 17.27 3.58 15.15c6.42-2.07 8.79-6.67 11.83-13C2794.56 769.47 2783.65 766.67 2780.47 771.54ZM3553.15 737.26c-8.22 4.51-18.89 8-15.43 13.25 0 0 27.38-5.56 28.36-9.78S3559.71 735.65 3553.15 737.26Z" style="fill:#ffa88f"></path>
      <path d="M587.52 255a19.37 19.37 0 0 0 1.87-3.76q-1.26-.32-2.49-.66A22.74 22.74 0 0 1 587.52 255ZM560.13 234.64l.16-.09c11.5-5.77 23.71 4 26.61 16q1.23.34 2.49.66c5.92-16-10.68-36-26-28.29C557.73 225.76 557.17 230.11 560.13 234.64Z" style="fill:#009345"></path>
      <path d="M579.31,262.65c.67-.4,1.31-.82,1.92-1.24a23,23,0,0,0,6.29-6.43,20.07,20.07,0,0,1-1.21,7.85c-1.59,4.3-4.8,8.32-10.09,11.44-25,14.75-77.32-20.15-77.32-20.15l9.4-2-5.42-13.61S554.29,277.4,579.31,262.65Z" style="fill:#009345"></path>
      <path d="M555.43 239.67h.05c-1.82 7 9.53 16.59 25.75 21.75l0 0c10.12 2.47 26.7 4.59 37.9 2 40.39-9.39 49.09-26.44 49.09-26.44L667 235.21l4.31-9.91s-8.7 17-49.09 26.44a71.73 71.73 0 0 1-32.87-.52h0s-.86-.18-2.49-.67c-12.71-3.55-22.85-9.9-26.77-15.92-2.12-3.42-1.77-5.91-1.72-6.19ZM2779 1042.42a13.9 13.9 0 0 0 2.42-1.73c-.46-.41-.91-.82-1.34-1.24A15.75 15.75 0 0 1 2779 1042.42Z" style="fill:#009345"></path>
      <path d="M2768.58 1020.64h.14c9.1.2 13.5 10.36 11.34 18.82.43.42.88.83 1.34 1.24 9-8.06 5.23-26-6.91-26.3C2770 1014.29 2768.24 1016.82 2768.58 1020.64ZM2771.31 1044.5c.55 0 1.09-.08 1.61-.14a16.14 16.14 0 0 0 6.06-1.94 14.13 14.13 0 0 1-3.35 4.51 15.78 15.78 0 0 1-10.1 3.82c-20.52.94-41.68-38.19-41.68-38.19l6.54 1.85 1.12-10.31S2750.78 1045.45 2771.31 1044.5Z" style="fill:#009345"></path>
      <path d="M2764,1022.23h0c-3.44,3.76.48,13.53,8.91,22.12h0c5.52,4.9,15.18,11.71,23.05,13.79,28.36,7.5,39.45-.29,39.45-.29l-.21-1.47,6-4.78s-11.08,7.79-39.45.29a50.67,50.67,0,0,1-20.38-11.2h0s-.47-.39-1.33-1.24c-6.78-6.43-11-13.75-11.48-18.81a6.74,6.74,0,0,1,1-4.44Z" style="fill:#009345"></path>
      <path d="M2149.55 975.59s-3.73 42-36.1 17.91-55.15 13-55.15 13l11.18-.85 1.69 12.25s16.32-31.36 42.31-15.21c19.65 12.2 32.5 8 38.18-3.51s5-17.44 5-17.44l-3.51 4ZM1503 411.1s-60.91 31.87-56.39-33.77-66.43-64.27-66.43-64.27l11 14.6-15.32 13.11s57.43-5.22 58.17 44.68c.56 37.73 17.68 51.65 38.46 49.32s28.33-8.52 28.33-8.52l-8.57-1.31Z" style="fill:#ffe301"></path>
      <path d="M2257.18,231.11s-7.21,68.37-59.35,28.25-90.31,19.7-90.31,19.7l18.26-1.09,2.43,20s27.46-50.7,69.42-23.68c31.72,20.44,52.79,13.89,62.37-4.7s8.6-28.3,8.6-28.3l-5.84,6.4Z" style="fill:#93268f"></path>
      <path d="M3667,375.94s-60.91,31.88-56.39-33.77-66.43-64.26-66.43-64.26l11,14.6-15.32,13.1s57.43-5.22,58.17,44.68c.56,37.73,17.68,51.65,38.46,49.33s28.33-8.53,28.33-8.53l-8.57-1.3Z" style="fill:#ffe301"></path>
      <path d="M3086.51 428.45a28.91 28.91 0 0 1 1-12.85c-9.68 7.13-7.13 21.42-7.13 21.42l3.18-9.16ZM3147 356.25l6.56-9.27-.05 0c5.63-10-2-34.78-2.06-35.54l-1.14 7-5 1.56c0 .66 5.75 19.23 3.67 30.74h0A15.48 15.48 0 0 1 3147 356.25ZM3147 356.25l-.25.35S3146.79 356.49 3147 356.25ZM3115.09 406.23l6.37-8.84h-.05c5.32-3.83-4.57-25.47-2-33.09C3104.72 371.87 3121.18 395.22 3115.09 406.23Z" style="fill:#93268f"></path>
      <path d="M3119.42 364.28c8.8-7.5 27.89 1.1 29.55-13.55-8.21.93-17.8.95-23.45 5v0c-4.27 3.27-8.12 6.78-11.09 14A19.29 19.29 0 0 1 3119.42 364.28ZM3082.52 421.59c7.43-15.15 35.28-6.15 34.41-21.11C3102.05 404.69 3090.37 402.87 3082.52 421.59ZM2767.87 587.47a37.87 37.87 0 0 1-16.58-3.42c7.71 13.78 26.77 12.77 26.77 12.77l-11.44-5.63ZM2683.54 497c-.79-.71-10.57-9.64-11-10.05l0 .05c-12.15-9-45.67-3-46.67-3.07l9 2.62 1.23 6.73c.87.06 26-4.38 40.66.18h0A20.46 20.46 0 0 1 2683.54 497ZM2683.54 497l.42.38S2683.82 497.23 2683.54 497ZM2743.54 546.62l-10.5-9.73 0 .06c-4.13-7.56-33.94 1.83-43.46-2.76C2697.06 554.57 2730.17 536.9 2743.54 546.62Z" style="fill:#93268f"></path>
      <path d="M2689.56 534.17c-8.36-12.68 5.94-36.17-12.89-40.72-.12 10.87-1.64 23.36 2.7 31.38h0c3.56 6.09 7.51 11.67 16.48 16.73A24.86 24.86 0 0 1 2689.56 534.17ZM2758.28 591.56c-18.54-12.13-2.3-47-22-48.27C2739.41 563.37 2735.15 578.29 2758.28 591.56Z" style="fill:#93268f"></path>
      <path d="M2756.59,397.57s-28.23-13.15-36.1-35a36.44,36.44,0,0,0,9.48.23l7.16-11.91s5.15,23.93,28.35,35.88a20,20,0,0,0-7.61,4.23Z" style="fill:#ef1c25"></path>
      <path d="M982.08,296.27s-28.24-13.16-36.1-35a36.44,36.44,0,0,0,9.48.23l7.16-11.91s5.15,23.93,28.35,35.88a20,20,0,0,0-7.61,4.23Z" style="fill:#fe931f"></path>
      <path d="M1620.52,185.55s23.24-20.74,46.43-19.33a36.4,36.4,0,0,0-4,8.62l8.11,11.28s-24-4.72-44.16,11.87a20.15,20.15,0,0,0-.88-8.66Z" style="fill:#01ac53"></path>
      <path d="M3013.36 319.62s-28.24-13.15-36.1-35a36.44 36.44 0 0 0 9.48.23l7.16-11.91s5.15 23.93 28.35 35.88a20 20 0 0 0-7.61 4.23ZM3220.69 874.56s-26.61 16.2-49.16 10.6a36.53 36.53 0 0 0 5.45-7.76L3171 864.84s22.76 9 45.58-3.67a20.07 20.07 0 0 0-.7 8.67ZM1062.46 586.5s26.62 16.19 49.17 10.6a36.07 36.07 0 0 1-5.45-7.76l5.94-12.56s-22.77 9-45.59-3.68a20 20 0 0 1 .71 8.68ZM2307 361s26.61 16.19 49.16 10.6a36.21 36.21 0 0 1-5.44-7.76l5.93-12.57s-22.76 9-45.58-3.67a19.89 19.89 0 0 1 .7 8.67ZM1864.13 308.89s34.69.1 51.78-12.11a56.06 56.06 0 0 1-9.94-2.85l-2.57-10.28s-15.12 14.46-44.08 15.14a18.91 18.91 0 0 1 6.17 5.26Z" style="fill:#fe931f"></path>
      <path d="M3735.49,1032.75s34.69.1,51.78-12.11a56.06,56.06,0,0,1-9.94-2.85l-2.57-10.27s-15.12,14.45-44.08,15.14a18.82,18.82,0,0,1,6.17,5.25Z" style="fill:#9e189c"></path>
      <path d="M389.45,982s34.69.1,51.78-12.11a56.06,56.06,0,0,1-9.94-2.85l-2.57-10.27s-15.11,14.45-44.08,15.14a18.82,18.82,0,0,1,6.17,5.25Z" style="fill:#ffe301"></path>
    </g>
  </g>
</svg>
