<svg xmlns="http://www.w3.org/2000/svg" height="50" width= "50" xml:space="preserve" enable-background="new 0 0 512 512" viewBox="0 0 512 512" id="share">
  <g>
    <g>
      <line x1="243.7" x2="347.1" y1="195.6" y2="129.8" fill="#FFF"></line>
      <path fill="#F3843B" d="M243.7,216.9c-7,0-13.9-3.5-18-9.8c-6.3-9.9-3.4-23,6.5-29.3l103.5-65.8c9.9-6.3,23-3.4,29.3,6.5    c6.3,9.9,3.4,23-6.5,29.3l-103.5,65.8C251.5,215.8,247.6,216.9,243.7,216.9z"></path>
    </g>
    <g>
      <line x1="243.7" x2="347.1" y1="327.6" y2="389.4" fill="#FFF"></line>
      <path fill="#F3843B" d="M347.1,410.6c-3.7,0-7.5-1-10.9-3l-103.5-61.7c-10.1-6-13.4-19.1-7.4-29.1c6-10.1,19.1-13.4,29.1-7.4    L358,371.1c10.1,6,13.4,19.1,7.4,29.1C361.4,406.9,354.3,410.6,347.1,410.6z"></path>
    </g>
    <g>
      <ellipse cx="141.1" cy="256" fill="#6EC5A8" rx="118.9" ry="119.5"></ellipse>
      <path fill="#51A787" d="M141.1,396.8C63.9,396.8,1,333.6,1,256s62.9-140.8,140.1-140.8S281.2,178.4,281.2,256    S218.4,396.8,141.1,396.8z M141.1,157.7c-53.8,0-97.6,44.1-97.6,98.3s43.8,98.3,97.6,98.3s97.6-44.1,97.6-98.3    S194.9,157.7,141.1,157.7z"></path>
    </g>
    <g>
      <ellipse cx="418.4" cy="94" fill="#987EB8" rx="71.3" ry="71.7"></ellipse>
      <path fill="#7962A4" d="M418.4,186.9c-51,0-92.6-41.7-92.6-93s41.5-93,92.6-93S511,42.7,511,94S469.5,186.9,418.4,186.9z     M418.4,43.5c-27.6,0-50.1,22.6-50.1,50.5s22.5,50.5,50.1,50.5s50.1-22.6,50.1-50.5S446,43.5,418.4,43.5z"></path>
    </g>
    <g>
      <ellipse cx="418.4" cy="418" fill="#E9E9E9" rx="71.3" ry="71.7"></ellipse>
      <path fill="#B6B6B7" d="M418.4,511c-51,0-92.6-41.7-92.6-93s41.5-93,92.6-93s92.6,41.7,92.6,93S469.5,511,418.4,511z M418.4,367.6    c-27.6,0-50.1,22.6-50.1,50.5s22.5,50.5,50.1,50.5s50.1-22.6,50.1-50.5S446,367.6,418.4,367.6z"></path>
    </g>
  </g>
</svg>
