<?xml version="1.0" encoding="UTF-8"?>
<svg version="1.1" xmlns="http://www.w3.org/2000/svg" width="60" height="60" viewBox="0 0 512 512">
<path d="M0 0 C1.28046959 -0.0146228 1.28046959 -0.0146228 2.58680725 -0.02954102 C21.37712566 -0.19992162 39.51792393 -0.08639785 57.91015625 4.23828125 C58.72194336 4.42551758 59.53373047 4.61275391 60.37011719 4.80566406 C65.62809052 6.05694502 70.77564044 7.55366228 75.91015625 9.23828125 C77.04130859 9.60711426 77.04130859 9.60711426 78.1953125 9.98339844 C105.00609723 18.901677 128.94527325 33.07055396 149.703125 52.21875 C151.62497777 53.97733032 153.58663114 55.646479 155.59765625 57.30078125 C159.45918245 60.59654896 162.65713934 64.35291436 165.91015625 68.23828125 C166.70808594 69.1715625 167.50601562 70.10484375 168.328125 71.06640625 C196.51334385 104.32581729 215.73064014 148.29911694 216.1484375 192.328125 C216.15818604 193.18177139 216.16793457 194.03541779 216.17797852 194.91493225 C216.34835912 213.70525066 216.23483535 231.84604893 211.91015625 250.23828125 C211.72291992 251.05006836 211.53568359 251.86185547 211.34277344 252.69824219 C210.09149248 257.95621552 208.59477522 263.10376544 206.91015625 268.23828125 C206.66426758 268.99238281 206.41837891 269.74648438 206.16503906 270.5234375 C197.2467605 297.33422223 183.07788354 321.27339825 163.9296875 342.03125 C162.17110718 343.95310277 160.5019585 345.91475614 158.84765625 347.92578125 C155.55188854 351.78730745 151.79552314 354.98526434 147.91015625 358.23828125 C146.976875 359.03621094 146.04359375 359.83414062 145.08203125 360.65625 C111.82262021 388.84146885 67.84932056 408.05876514 23.8203125 408.4765625 C22.96666611 408.48631104 22.11301971 408.49605957 21.23350525 408.50610352 C2.44318684 408.67648412 -15.69761143 408.56296035 -34.08984375 404.23828125 C-34.90163086 404.05104492 -35.71341797 403.86380859 -36.54980469 403.67089844 C-41.80777802 402.41961748 -46.95532794 400.92290022 -52.08984375 399.23828125 C-52.84394531 398.99239258 -53.59804687 398.74650391 -54.375 398.49316406 C-81.18578473 389.5748855 -105.12496075 375.40600854 -125.8828125 356.2578125 C-127.80466527 354.49923218 -129.76631864 352.8300835 -131.77734375 351.17578125 C-135.63886995 347.88001354 -138.83682684 344.12364814 -142.08984375 340.23828125 C-142.88777344 339.305 -143.68570313 338.37171875 -144.5078125 337.41015625 C-172.69303135 304.15074521 -191.91032764 260.17744556 -192.328125 216.1484375 C-192.33787354 215.29479111 -192.34762207 214.44114471 -192.35766602 213.56163025 C-192.52804662 194.77131184 -192.41452285 176.63051357 -188.08984375 158.23828125 C-187.90260742 157.42649414 -187.71537109 156.61470703 -187.52246094 155.77832031 C-186.27117998 150.52034698 -184.77446272 145.37279706 -183.08984375 140.23828125 C-182.84395508 139.48417969 -182.59806641 138.73007813 -182.34472656 137.953125 C-173.426448 111.14234027 -159.25757104 87.20316425 -140.109375 66.4453125 C-138.35079468 64.52345973 -136.681646 62.56180636 -135.02734375 60.55078125 C-131.73157604 56.68925505 -127.97521064 53.49129816 -124.08984375 50.23828125 C-123.1565625 49.44035156 -122.22328125 48.64242187 -121.26171875 47.8203125 C-88.00230771 19.63509365 -44.02900806 0.41779736 0 0 Z " fill="#FECB4C" transform="translate(192.08984375,-0.23828125)"/>
<path d="M0 0 C2.28186967 -0.00967406 4.56282396 -0.04077751 6.84448242 -0.07226562 C30.2567039 -0.2425628 52.65339106 6.66112896 69.9362793 23.06054688 C76.09533715 29.21960473 80.15596257 35.45143089 84.1159668 43.24023438 C84.50655273 43.93503906 84.89713867 44.62984375 85.29956055 45.34570312 C86.64853698 48.47610299 85.89248779 51.01468564 85.1159668 54.24023438 C82.1159668 56.24023438 82.1159668 56.24023438 79.3034668 56.17773438 C75.97524966 55.19884698 74.43397797 53.79918697 71.85791016 51.5793457 C68.78277131 49.21534618 65.32355492 47.70521643 61.8034668 46.11523438 C61.04582031 45.76759033 60.28817383 45.41994629 59.50756836 45.06176758 C44.59348972 38.30552959 29.18804773 35.09501389 12.83081055 35.07226562 C11.97145401 35.06893723 11.11209747 35.06560883 10.22669983 35.06217957 C8.41741464 35.05714925 6.6081203 35.05477002 4.79882812 35.05493164 C2.0847165 35.05275939 -0.62897833 35.03460085 -3.34301758 35.015625 C-16.78514055 34.97089924 -30.25700081 35.27432643 -43.1340332 39.55273438 C-43.79040771 39.77074707 -44.44678223 39.98875977 -45.12304688 40.21337891 C-61.1873559 45.56442576 -61.1873559 45.56442576 -74.8840332 55.24023438 C-78.3215332 55.49023438 -78.3215332 55.49023438 -81.8840332 55.24023438 C-84.01401514 52.04526148 -84.15324722 50.98881664 -83.48168945 47.32226562 C-78.86566403 31.24160189 -65.01857907 18.21568491 -50.8840332 10.24023438 C-34.28312202 2.21025303 -18.23534258 0.04653357 0 0 Z " fill="#674600" transform="translate(202.884033203125,266.759765625)"/>
<path d="M0 0 C0 0.66 0 1.32 0 2 C1.093125 2.28875 2.18625 2.5775 3.3125 2.875 C7 4 7 4 10 6 C12.04529192 6.58476882 14.11165752 7.0976865 16.1875 7.5625 C17.27417969 7.81128906 18.36085937 8.06007812 19.48046875 8.31640625 C27.23068467 9.82172011 34.68316366 10.19373464 42.5625 10.1875 C43.61937012 10.18669434 44.67624023 10.18588867 45.76513672 10.18505859 C55.96205923 10.10569906 66.40434231 9.79886741 76 6 C76.33 5.34 76.66 4.68 77 4 C80.95824787 1.4659815 85.2101778 -0.95796444 90 0 C91.8125 1.125 91.8125 1.125 93 3 C93.69883081 10.8646197 89.34887193 16.77495578 84.63574219 22.72119141 C75.38500096 33.74948955 63.77366728 43.80965296 49 46 C33.62687822 47.17073711 21.71182923 43.01667359 9.8515625 33.2265625 C3.8946918 27.64641089 -4.72601713 18.33144352 -6 10 C-6.66 10 -7.32 10 -8 10 C-8.36272727 3.59181818 -8.36272727 3.59181818 -6.8125 1.0625 C-4.43958382 -0.32851983 -2.70313576 -0.21917317 0 0 Z " fill="#6A4802" transform="translate(218,198)"/>
<path d="M0 0 C2.8125 1 2.8125 1 5 2 C5 2.66 5 3.32 5 4 C28.48568835 12.46839724 58.05632041 11.65432514 81 2 C81.66 1.34 82.32 0.68 83 0 C84.875 -0.265625 84.875 -0.265625 87 -0.25 C87.70125 -0.25515625 88.4025 -0.2603125 89.125 -0.265625 C91 0 91 0 93 2 C93.125 5.625 93.125 5.625 93 9 C92.34 9 91.68 9 91 9 C90.76410156 9.85851562 90.52820313 10.71703125 90.28515625 11.6015625 C88.86285854 15.36265371 86.90610186 18.25398861 84.4375 21.375 C83.98842285 21.94371826 83.5393457 22.51243652 83.07666016 23.09838867 C74.81219507 33.3481315 62.60624714 43.33482322 49 45 C34.29070051 46.12018386 21.7624359 42.46229085 10.47265625 32.84765625 C3.35931182 26.08504683 -4.32884295 17.23647491 -8 8 C-7.75 4.3125 -7.75 4.3125 -7 1 C-4.44744228 -0.27627886 -2.84227731 -0.19829842 0 0 Z " fill="#6A4802" transform="translate(105,199)"/>
<path d="M0 0 C2.54712751 2.37594958 4.6148941 5.06675381 6.75 7.8125 C21.01404445 25.89631665 42.44388543 37.56178004 65.125 40.6875 C65.91898193 40.77451172 66.71296387 40.86152344 67.53100586 40.95117188 C73.63577558 41.6855411 77.5722058 43.6347058 82 48.0625 C82.5689079 51.44600489 82.53772752 54.67641382 82 58.0625 C79.80977082 60.88674288 78.16982793 62.47758603 75 64.0625 C49.76169785 65.96081866 23.49784979 54.55644579 4.51953125 38.2734375 C3.68808594 37.54382813 2.85664063 36.81421875 2 36.0625 C0.83017578 35.09183594 0.83017578 35.09183594 -0.36328125 34.1015625 C-7.37393484 28.1685396 -17.64525761 19.19015367 -19.43359375 9.78125 C-19.44059989 5.80176308 -19.29836391 3.57398099 -17.25 0.0625 C-12.10497386 -4.51085657 -5.53972587 -3.57773963 0 0 Z " fill="#684601" transform="translate(269,93.9375)"/>
<path d="M0 0 C2.97239241 1.78476241 5.42604027 3.85208055 7 7 C7.76428554 13.22346798 6.71387366 16.50093364 3.01171875 21.5234375 C-16.53113535 45.58201905 -44.02595008 63.21137917 -75.22558594 67.29101562 C-79.54124631 67.68066485 -83.7436923 67.91130014 -88 67 C-90.8515625 64.5234375 -90.8515625 64.5234375 -93 62 C-93.33 61.67 -93.66 61.34 -94 61 C-94.30859375 58.890625 -94.30859375 58.890625 -94.4375 56.25 C-94.52837891 54.95835937 -94.52837891 54.95835937 -94.62109375 53.640625 C-93.87485446 50.46793467 -92.5266317 48.99335186 -89.93725586 47.04931641 C-86.22140874 45.03662442 -82.20044283 44.64680755 -78.0625 44.0625 C-68.71680959 42.4947889 -60.55357237 40.19691024 -52 36 C-51.35224609 35.68434082 -50.70449219 35.36868164 -50.03710938 35.04345703 C-35.89964672 27.99179993 -24.31645469 18.61612525 -14.54956055 6.18847656 C-10.23555698 0.74330556 -7.02141051 -0.84741161 0 0 Z " fill="#684601" transform="translate(151,91)"/>
</svg>
