<?xml version="1.0" encoding="UTF-8"?>
<svg version="1.1" xmlns="http://www.w3.org/2000/svg" width="60" height="60" viewBox="0 0 512 512">
<path d="M0 0 C1.28046959 -0.0146228 1.28046959 -0.0146228 2.58680725 -0.02954102 C21.37712566 -0.19992162 39.51792393 -0.08639785 57.91015625 4.23828125 C58.72194336 4.42551758 59.53373047 4.61275391 60.37011719 4.80566406 C65.62809052 6.05694502 70.77564044 7.55366228 75.91015625 9.23828125 C77.04130859 9.60711426 77.04130859 9.60711426 78.1953125 9.98339844 C105.00609723 18.901677 128.94527325 33.07055396 149.703125 52.21875 C151.62497777 53.97733032 153.58663114 55.646479 155.59765625 57.30078125 C159.45918245 60.59654896 162.65713934 64.35291436 165.91015625 68.23828125 C166.70808594 69.1715625 167.50601562 70.10484375 168.328125 71.06640625 C196.51334385 104.32581729 215.73064014 148.29911694 216.1484375 192.328125 C216.15818604 193.18177139 216.16793457 194.03541779 216.17797852 194.91493225 C216.34835912 213.70525066 216.23483535 231.84604893 211.91015625 250.23828125 C211.72291992 251.05006836 211.53568359 251.86185547 211.34277344 252.69824219 C210.09149248 257.95621552 208.59477522 263.10376544 206.91015625 268.23828125 C206.66426758 268.99238281 206.41837891 269.74648438 206.16503906 270.5234375 C197.2467605 297.33422223 183.07788354 321.27339825 163.9296875 342.03125 C162.17110718 343.95310277 160.5019585 345.91475614 158.84765625 347.92578125 C155.55188854 351.78730745 151.79552314 354.98526434 147.91015625 358.23828125 C146.976875 359.03621094 146.04359375 359.83414062 145.08203125 360.65625 C111.82262021 388.84146885 67.84932056 408.05876514 23.8203125 408.4765625 C22.96666611 408.48631104 22.11301971 408.49605957 21.23350525 408.50610352 C2.44318684 408.67648412 -15.69761143 408.56296035 -34.08984375 404.23828125 C-34.90163086 404.05104492 -35.71341797 403.86380859 -36.54980469 403.67089844 C-41.80777802 402.41961748 -46.95532794 400.92290022 -52.08984375 399.23828125 C-52.84394531 398.99239258 -53.59804687 398.74650391 -54.375 398.49316406 C-81.18578473 389.5748855 -105.12496075 375.40600854 -125.8828125 356.2578125 C-127.80466527 354.49923218 -129.76631864 352.8300835 -131.77734375 351.17578125 C-135.63886995 347.88001354 -138.83682684 344.12364814 -142.08984375 340.23828125 C-142.88777344 339.305 -143.68570313 338.37171875 -144.5078125 337.41015625 C-172.69303135 304.15074521 -191.91032764 260.17744556 -192.328125 216.1484375 C-192.33787354 215.29479111 -192.34762207 214.44114471 -192.35766602 213.56163025 C-192.52804662 194.77131184 -192.41452285 176.63051357 -188.08984375 158.23828125 C-187.90260742 157.42649414 -187.71537109 156.61470703 -187.52246094 155.77832031 C-186.27117998 150.52034698 -184.77446272 145.37279706 -183.08984375 140.23828125 C-182.84395508 139.48417969 -182.59806641 138.73007813 -182.34472656 137.953125 C-173.426448 111.14234027 -159.25757104 87.20316425 -140.109375 66.4453125 C-138.35079468 64.52345973 -136.681646 62.56180636 -135.02734375 60.55078125 C-131.73157604 56.68925505 -127.97521064 53.49129816 -124.08984375 50.23828125 C-123.1565625 49.44035156 -122.22328125 48.64242187 -121.26171875 47.8203125 C-88.00230771 19.63509365 -44.02900806 0.41779736 0 0 Z " fill="#FECB4C" transform="translate(192.08984375,-0.23828125)"/>
<path d="M0 0 C49.85940031 10.0979672 102.61010347 12.04850677 152.875 3.8125 C155.29774592 3.44764619 157.72092247 3.08563988 160.14453125 2.7265625 C171.43400138 1.02741037 171.43400138 1.02741037 182.609375 -1.28125 C189.82371785 -2.92579607 197.6178424 -3.59144724 204.5 -0.625 C211.06331687 6.11103573 212.23580749 12.80739225 212.25561523 21.88623047 C211.79286677 47.00486811 197.48286304 68.77523479 180.18676758 85.9934082 C172.06099687 93.74047025 155.76589636 108.8125 143.875 108.8125 C143.875 109.4725 143.875 110.1325 143.875 110.8125 C143.04097656 111.06644531 142.20695313 111.32039063 141.34765625 111.58203125 C130.4304976 114.91211952 130.4304976 114.91211952 119.640625 118.62890625 C118.89296875 118.89574219 118.1453125 119.16257812 117.375 119.4375 C116.7253125 119.67726563 116.075625 119.91703125 115.40625 120.1640625 C106.91597098 122.33904138 98.03165547 121.9987449 89.32885742 121.99780273 C87.07776857 121.9999852 84.82717423 122.01818513 82.57617188 122.03710938 C74.14278752 122.06878373 66.16382105 121.58002074 57.875 119.8125 C57.875 119.1525 57.875 118.4925 57.875 117.8125 C56.84375 117.915625 55.8125 118.01875 54.75 118.125 C48.14011834 118.18465597 41.93019714 115.1937573 35.875 112.8125 C35.875 112.1525 35.875 111.4925 35.875 110.8125 C35.194375 110.709375 34.51375 110.60625 33.8125 110.5 C19.2991192 107.1032513 6.59128098 96.45227729 -3.72460938 86.19384766 C-4.98433344 84.95125373 -6.2792777 83.74460933 -7.578125 82.54296875 C-23.0147045 67.99696114 -35.30026313 46.34164072 -36.46484375 24.8984375 C-36.51145016 23.20345315 -36.54416645 21.50802587 -36.5625 19.8125 C-36.5728125 19.02311035 -36.583125 18.2337207 -36.59375 17.42041016 C-36.49245986 10.8070084 -35.05261389 6.08609587 -30.6875 0.9375 C-22.73911361 -5.65384481 -9.22473283 -2.08518438 0 0 Z " fill="#674601" transform="translate(116.125,229.1875)"/>
<path d="M0 0 C4.30611855 0.54663163 8.42565876 1.30813541 12.64453125 2.3581543 C25.5880811 5.53550762 38.76143405 6.7054718 52 8 C52.66271912 8.08406601 53.32543823 8.16813202 54.00823975 8.25474548 C62.40816658 9.25067448 70.82102825 9.16412636 79.265625 9.16796875 C80.94740831 9.1711923 82.62919136 9.17455715 84.31097412 9.17805481 C87.83102058 9.1840195 91.3510426 9.18589776 94.87109375 9.18530273 C98.43559896 9.18522189 101.99997453 9.19210038 105.56445312 9.20581055 C129.82311947 9.29758631 153.50149121 8.86161397 177.4375 4.5 C179.27538086 4.18095703 179.27538086 4.18095703 181.15039062 3.85546875 C188.18691666 2.62343691 188.18691666 2.62343691 195.09765625 0.84375 C198 0 198 0 202 0 C194.40300715 16.93496323 175.81397324 28.20414439 159.1875 34.75 C140.47540814 41.821728 121.61952277 44.36712696 101.69897461 44.26074219 C99.30361926 44.24996003 96.90900569 44.26074699 94.51367188 44.2734375 C85.4976577 44.28242863 76.87370301 43.76944287 68 42 C67.13592529 41.82839355 66.27185059 41.65678711 65.3815918 41.47998047 C39.7354461 36.03611523 15.26122892 24.19815115 0 2 C0 1.34 0 0.68 0 0 Z " fill="#FDFCFB" transform="translate(103,250)"/>
<path d="M0 0 C8.90468361 3.97906138 14.09413153 12.65785574 17.609375 21.38671875 C22.21487435 34.91234316 20.27898748 49.45343067 14.2890625 62.1953125 C10.42969176 69.29191498 5.08901907 74.23814477 -2.390625 77.38671875 C-8.89094728 78.25118303 -15.63110437 77.64074394 -21.390625 74.38671875 C-27.86754832 68.95031199 -31.4491528 62.19644144 -34.390625 54.38671875 C-34.75542969 53.48308594 -35.12023437 52.57945312 -35.49609375 51.6484375 C-38.85399791 39.40455114 -37.06682681 25.58935451 -31.390625 14.38671875 C-24.53500099 2.41351625 -13.75337642 -3.52823545 0 0 Z " fill="#674600" transform="translate(280.390625,114.61328125)"/>
<path d="M0 0 C8.90468361 3.97906138 14.09413153 12.65785574 17.609375 21.38671875 C22.21487435 34.91234316 20.27898748 49.45343067 14.2890625 62.1953125 C10.42969176 69.29191498 5.08901907 74.23814477 -2.390625 77.38671875 C-8.89094728 78.25118303 -15.63110437 77.64074394 -21.390625 74.38671875 C-27.86754832 68.95031199 -31.4491528 62.19644144 -34.390625 54.38671875 C-34.75542969 53.48308594 -35.12023437 52.57945312 -35.49609375 51.6484375 C-38.85399791 39.40455114 -37.06682681 25.58935451 -31.390625 14.38671875 C-24.53500099 2.41351625 -13.75337642 -3.52823545 0 0 Z " fill="#674600" transform="translate(144.390625,114.61328125)"/>
</svg>
