<?xml version="1.0" encoding="UTF-8"?>
<svg version="1.1" xmlns="http://www.w3.org/2000/svg" width="60" height="60" viewBox="0 0 512 512">
<path d="M0 0 C1.28046959 -0.0146228 1.28046959 -0.0146228 2.58680725 -0.02954102 C21.37712566 -0.19992162 39.51792393 -0.08639785 57.91015625 4.23828125 C58.72194336 4.42551758 59.53373047 4.61275391 60.37011719 4.80566406 C65.62809052 6.05694502 70.77564044 7.55366228 75.91015625 9.23828125 C77.04130859 9.60711426 77.04130859 9.60711426 78.1953125 9.98339844 C105.00609723 18.901677 128.94527325 33.07055396 149.703125 52.21875 C151.62497777 53.97733032 153.58663114 55.646479 155.59765625 57.30078125 C159.45918245 60.59654896 162.65713934 64.35291436 165.91015625 68.23828125 C166.70808594 69.1715625 167.50601562 70.10484375 168.328125 71.06640625 C196.51334385 104.32581729 215.73064014 148.29911694 216.1484375 192.328125 C216.15818604 193.18177139 216.16793457 194.03541779 216.17797852 194.91493225 C216.34835912 213.70525066 216.23483535 231.84604893 211.91015625 250.23828125 C211.72291992 251.05006836 211.53568359 251.86185547 211.34277344 252.69824219 C210.09149248 257.95621552 208.59477522 263.10376544 206.91015625 268.23828125 C206.66426758 268.99238281 206.41837891 269.74648438 206.16503906 270.5234375 C197.2467605 297.33422223 183.07788354 321.27339825 163.9296875 342.03125 C162.17110718 343.95310277 160.5019585 345.91475614 158.84765625 347.92578125 C155.55188854 351.78730745 151.79552314 354.98526434 147.91015625 358.23828125 C146.976875 359.03621094 146.04359375 359.83414062 145.08203125 360.65625 C111.82262021 388.84146885 67.84932056 408.05876514 23.8203125 408.4765625 C22.96666611 408.48631104 22.11301971 408.49605957 21.23350525 408.50610352 C2.44318684 408.67648412 -15.69761143 408.56296035 -34.08984375 404.23828125 C-34.90163086 404.05104492 -35.71341797 403.86380859 -36.54980469 403.67089844 C-41.80777802 402.41961748 -46.95532794 400.92290022 -52.08984375 399.23828125 C-52.84394531 398.99239258 -53.59804687 398.74650391 -54.375 398.49316406 C-81.18578473 389.5748855 -105.12496075 375.40600854 -125.8828125 356.2578125 C-127.80466527 354.49923218 -129.76631864 352.8300835 -131.77734375 351.17578125 C-135.63886995 347.88001354 -138.83682684 344.12364814 -142.08984375 340.23828125 C-142.88777344 339.305 -143.68570313 338.37171875 -144.5078125 337.41015625 C-172.69303135 304.15074521 -191.91032764 260.17744556 -192.328125 216.1484375 C-192.33787354 215.29479111 -192.34762207 214.44114471 -192.35766602 213.56163025 C-192.52804662 194.77131184 -192.41452285 176.63051357 -188.08984375 158.23828125 C-187.90260742 157.42649414 -187.71537109 156.61470703 -187.52246094 155.77832031 C-186.27117998 150.52034698 -184.77446272 145.37279706 -183.08984375 140.23828125 C-182.84395508 139.48417969 -182.59806641 138.73007813 -182.34472656 137.953125 C-173.426448 111.14234027 -159.25757104 87.20316425 -140.109375 66.4453125 C-138.35079468 64.52345973 -136.681646 62.56180636 -135.02734375 60.55078125 C-131.73157604 56.68925505 -127.97521064 53.49129816 -124.08984375 50.23828125 C-123.1565625 49.44035156 -122.22328125 48.64242187 -121.26171875 47.8203125 C-88.00230771 19.63509365 -44.02900806 0.41779736 0 0 Z " fill="#FECB4C" transform="translate(192.08984375,-0.23828125)"/>
<path d="M0 0 C1.61852203 -0.00322153 3.23704066 -0.00904215 4.85554504 -0.01725769 C9.23790192 -0.03176205 13.61933802 -0.00889098 18.00158358 0.02160144 C22.59165126 0.04800714 27.18169191 0.0426694 31.77182007 0.04151917 C39.47710526 0.04432593 47.18203532 0.07033677 54.88720703 0.11132812 C63.79360016 0.15853506 72.69960482 0.17432111 81.60611403 0.17212147 C91.09403894 0.17009476 100.58181427 0.19091656 110.06969404 0.21846128 C112.80185611 0.2248526 115.53399401 0.22698443 118.26616287 0.22817802 C122.55907323 0.231193 126.85165786 0.24952026 131.14446068 0.27967644 C132.71942716 0.28843328 134.29443114 0.2921312 135.86942101 0.29039383 C138.01995167 0.28891934 140.169573 0.30590825 142.31997681 0.32762146 C143.52304285 0.33264899 144.72610889 0.33767653 145.96563148 0.34285641 C150.16816397 0.85404467 152.64188768 2.56716163 155.91943359 5.11157227 C158.06011893 7.95209704 157.66120995 10.85156558 157.55615234 14.28344727 C156.91049372 18.06085194 155.19587507 19.55440138 152.13818359 21.72875977 C148.14384597 23.68941018 144.89341421 23.9817185 140.46510315 23.98945618 C139.47886716 23.9951945 139.47886716 23.9951945 138.47270721 24.00104874 C136.2772142 24.01133891 134.08198466 24.00739428 131.88647461 24.00341797 C130.30928303 24.00776664 128.73209356 24.01295031 127.15490723 24.01890564 C122.87598746 24.03228986 118.59715605 24.03287498 114.31821942 24.03034234 C110.74462484 24.02927228 107.17104811 24.03415686 103.59745735 24.03894776 C95.16627633 24.05004085 86.73513986 24.0504814 78.30395508 24.04443359 C69.60896111 24.03839243 60.9141289 24.05070888 52.21916252 24.07200366 C44.75065408 24.08962151 37.28219712 24.09562075 29.81366867 24.09236592 C25.35449477 24.09055328 20.89543627 24.09318732 16.4362812 24.10708046 C12.24276719 24.11965725 8.04950533 24.11771618 3.85599518 24.10466957 C2.31851809 24.10230395 0.78102326 24.105038 -0.75643349 24.11329269 C-2.85849832 24.1237635 -4.95971757 24.11565789 -7.06175232 24.10298157 C-8.82461909 24.10323318 -8.82461909 24.10323318 -10.62309933 24.10348988 C-15.12778242 23.58228338 -18.5203103 22.10451709 -21.69775391 18.84594727 C-23.05785332 16.3722094 -23.39030208 14.67022327 -23.48681641 11.85375977 C-23.54095703 11.03133789 -23.59509766 10.20891602 -23.65087891 9.36157227 C-22.60723865 5.87932705 -21.15742441 4.30932132 -18.36497879 2.02067757 C-12.80552731 -0.84863462 -6.11994605 -0.07058705 0 0 Z " fill="#684701" transform="translate(136.86181640625,271.271240234375)"/>
<path d="M0 0 C8.90468361 3.97906138 14.09413153 12.65785574 17.609375 21.38671875 C22.21487435 34.91234316 20.27898748 49.45343067 14.2890625 62.1953125 C10.42969176 69.29191498 5.08901907 74.23814477 -2.390625 77.38671875 C-8.89094728 78.25118303 -15.63110437 77.64074394 -21.390625 74.38671875 C-27.86754832 68.95031199 -31.4491528 62.19644144 -34.390625 54.38671875 C-34.75542969 53.48308594 -35.12023437 52.57945312 -35.49609375 51.6484375 C-38.85399791 39.40455114 -37.06682681 25.58935451 -31.390625 14.38671875 C-24.53500099 2.41351625 -13.75337642 -3.52823545 0 0 Z " fill="#674600" transform="translate(280.390625,114.61328125)"/>
<path d="M0 0 C8.90468361 3.97906138 14.09413153 12.65785574 17.609375 21.38671875 C22.21487435 34.91234316 20.27898748 49.45343067 14.2890625 62.1953125 C10.42969176 69.29191498 5.08901907 74.23814477 -2.390625 77.38671875 C-8.89094728 78.25118303 -15.63110437 77.64074394 -21.390625 74.38671875 C-27.86754832 68.95031199 -31.4491528 62.19644144 -34.390625 54.38671875 C-34.75542969 53.48308594 -35.12023437 52.57945312 -35.49609375 51.6484375 C-38.85399791 39.40455114 -37.06682681 25.58935451 -31.390625 14.38671875 C-24.53500099 2.41351625 -13.75337642 -3.52823545 0 0 Z " fill="#674600" transform="translate(144.390625,114.61328125)"/>
</svg>
