<?xml version="1.0" encoding="UTF-8"?>
<svg version="1.1" xmlns="http://www.w3.org/2000/svg" width="60" height="60" viewBox="0 0 512 512">
<path d="M0 0 C1.28046959 -0.0146228 1.28046959 -0.0146228 2.58680725 -0.02954102 C21.37712566 -0.19992162 39.51792393 -0.08639785 57.91015625 4.23828125 C58.72194336 4.42551758 59.53373047 4.61275391 60.37011719 4.80566406 C65.62809052 6.05694502 70.77564044 7.55366228 75.91015625 9.23828125 C77.04130859 9.60711426 77.04130859 9.60711426 78.1953125 9.98339844 C105.00609723 18.901677 128.94527325 33.07055396 149.703125 52.21875 C151.62497777 53.97733032 153.58663114 55.646479 155.59765625 57.30078125 C159.45918245 60.59654896 162.65713934 64.35291436 165.91015625 68.23828125 C166.70808594 69.1715625 167.50601562 70.10484375 168.328125 71.06640625 C196.51334385 104.32581729 215.73064014 148.29911694 216.1484375 192.328125 C216.15818604 193.18177139 216.16793457 194.03541779 216.17797852 194.91493225 C216.34835912 213.70525066 216.23483535 231.84604893 211.91015625 250.23828125 C211.72291992 251.05006836 211.53568359 251.86185547 211.34277344 252.69824219 C210.09149248 257.95621552 208.59477522 263.10376544 206.91015625 268.23828125 C206.66426758 268.99238281 206.41837891 269.74648438 206.16503906 270.5234375 C197.2467605 297.33422223 183.07788354 321.27339825 163.9296875 342.03125 C162.17110718 343.95310277 160.5019585 345.91475614 158.84765625 347.92578125 C155.55188854 351.78730745 151.79552314 354.98526434 147.91015625 358.23828125 C146.976875 359.03621094 146.04359375 359.83414062 145.08203125 360.65625 C111.82262021 388.84146885 67.84932056 408.05876514 23.8203125 408.4765625 C22.96666611 408.48631104 22.11301971 408.49605957 21.23350525 408.50610352 C2.44318684 408.67648412 -15.69761143 408.56296035 -34.08984375 404.23828125 C-34.90163086 404.05104492 -35.71341797 403.86380859 -36.54980469 403.67089844 C-41.80777802 402.41961748 -46.95532794 400.92290022 -52.08984375 399.23828125 C-52.84394531 398.99239258 -53.59804687 398.74650391 -54.375 398.49316406 C-81.18578473 389.5748855 -105.12496075 375.40600854 -125.8828125 356.2578125 C-127.80466527 354.49923218 -129.76631864 352.8300835 -131.77734375 351.17578125 C-135.63886995 347.88001354 -138.83682684 344.12364814 -142.08984375 340.23828125 C-142.88777344 339.305 -143.68570313 338.37171875 -144.5078125 337.41015625 C-172.69303135 304.15074521 -191.91032764 260.17744556 -192.328125 216.1484375 C-192.33787354 215.29479111 -192.34762207 214.44114471 -192.35766602 213.56163025 C-192.52804662 194.77131184 -192.41452285 176.63051357 -188.08984375 158.23828125 C-187.90260742 157.42649414 -187.71537109 156.61470703 -187.52246094 155.77832031 C-186.27117998 150.52034698 -184.77446272 145.37279706 -183.08984375 140.23828125 C-182.84395508 139.48417969 -182.59806641 138.73007813 -182.34472656 137.953125 C-173.426448 111.14234027 -159.25757104 87.20316425 -140.109375 66.4453125 C-138.35079468 64.52345973 -136.681646 62.56180636 -135.02734375 60.55078125 C-131.73157604 56.68925505 -127.97521064 53.49129816 -124.08984375 50.23828125 C-123.1565625 49.44035156 -122.22328125 48.64242187 -121.26171875 47.8203125 C-88.00230771 19.63509365 -44.02900806 0.41779736 0 0 Z " fill="#FECB4C" transform="translate(192.08984375,-0.23828125)"/>
<path d="M0 0 C4.35017418 3.51360223 8.48643459 7.19865817 12.5390625 11.05078125 C13.02552246 11.51000977 13.51198242 11.96923828 14.01318359 12.44238281 C32.82311616 30.30256013 32.82311616 30.30256013 33.2265625 38.11328125 C32.5390625 41.05078125 32.5390625 41.05078125 29.5390625 43.05078125 C24.0231826 42.83562281 20.85469706 41.27959837 16.4140625 38.11328125 C-6.15813564 22.79188551 -36.03183923 11.01626666 -63.51953125 10.84765625 C-64.26695084 10.84195618 -65.01437042 10.8362561 -65.78443909 10.8303833 C-67.36010351 10.82099745 -68.935787 10.81442509 -70.51147461 10.81054688 C-72.86153832 10.80093221 -75.21069091 10.76988591 -77.56054688 10.73828125 C-108.41659529 10.52341952 -140.6551338 20.9049426 -166.17236328 38.25708008 C-170.28491831 41.05078125 -170.28491831 41.05078125 -172.4609375 41.05078125 C-172.4609375 41.71078125 -172.4609375 42.37078125 -172.4609375 43.05078125 C-175.8359375 43.17578125 -175.8359375 43.17578125 -179.4609375 43.05078125 C-181.4609375 41.05078125 -181.4609375 41.05078125 -181.8359375 37.79296875 C-181.39126945 33.35555216 -180.22876467 31.62621445 -177.4609375 28.17578125 C-177.05302979 27.66184814 -176.64512207 27.14791504 -176.22485352 26.6184082 C-174.99074402 25.07917883 -173.72607837 23.56460815 -172.4609375 22.05078125 C-171.76871094 21.21675781 -171.07648438 20.38273437 -170.36328125 19.5234375 C-166.09493372 14.55925598 -161.50723002 10.21094107 -156.4609375 6.05078125 C-155.71199219 5.41398437 -154.96304688 4.7771875 -154.19140625 4.12109375 C-140.63145211 -7.13870662 -125.42418255 -15.27545874 -108.4609375 -19.94921875 C-107.46449219 -20.23796875 -106.46804687 -20.52671875 -105.44140625 -20.82421875 C-70.1345178 -30.87050165 -29.05731954 -22.07156278 0 0 Z " fill="#674600" transform="translate(278.4609375,273.94921875)"/>
<path d="M0 0 C11.05288281 5.90301292 16.83039946 16.96877685 20.4921875 28.4765625 C23.78407905 40.07413221 24.47673483 51.4624919 24.5 63.4375 C24.50449158 64.14876038 24.50898315 64.86002075 24.51361084 65.59283447 C24.56424002 85.30237489 20.83596603 106.0110368 7 121 C6.34 121 5.68 121 5 121 C5 121.66 5 122.32 5 123 C0.48702622 126.00864919 -3.72138796 125.91833388 -9 125 C-15.78799852 121.39749566 -19.62332173 114.64753471 -23 108 C-23.66322266 106.71029297 -23.66322266 106.71029297 -24.33984375 105.39453125 C-36.25157087 79.72457829 -34.57539805 48.20200203 -25.71191406 21.91357422 C-22.86708535 14.26687756 -17.16251944 5.10159271 -10.0234375 0.8125 C-6.63957468 -0.54627117 -3.52221356 -0.72873384 0 0 Z " fill="#674600" transform="translate(134,79)"/>
<path d="M0 0 C8.06054859 3.66388572 12.51019953 11.18493561 16 19 C25.65275246 44.88721252 26.80565809 75.75812162 16.625 101.6875 C15.78901042 103.47708015 14.91502683 105.2495139 14 107 C13.28650391 108.36898437 13.28650391 108.36898437 12.55859375 109.765625 C9.17803015 115.80297619 5.81500191 120.7283327 -1 123 C-3.0859375 123.16796875 -3.0859375 123.16796875 -5.375 123.1875 C-6.12523437 123.20167969 -6.87546875 123.21585937 -7.6484375 123.23046875 C-11.54806995 122.84827886 -14.15149427 121.79128473 -17.02734375 119.109375 C-34.06429924 98.06577353 -34.61617488 70.82092508 -33 45 C-31.22154242 28.65772373 -25.79667438 14.17115475 -15 1.6875 C-10.10773958 -1.06439649 -5.45787005 -0.9942362 0 0 Z " fill="#674600" transform="translate(283,80)"/>
<path d="M0 0 C0.66 0.33 1.32 0.66 2 1 C-3.61 6.61 -9.22 12.22 -15 18 C-15.66 17.67 -16.32 17.34 -17 17 C-12.88524836 12.04943944 -8.61923992 7.60171545 -3.69921875 3.4453125 C-1.90381734 1.95747294 -1.90381734 1.95747294 0 0 Z " fill="#795609" transform="translate(124,278)"/>
<path d="M0 0 C0.66 0.33 1.32 0.66 2 1 C-1.63 4.63 -5.26 8.26 -9 12 C-9 8.00102358 -7.64683965 6.93298448 -5 4 C-3.36643049 2.62631655 -1.7074998 1.28062485 0 0 Z " fill="#845F0F" transform="translate(271,80)"/>
</svg>
